<?xml version="1.0" encoding="UTF-8" standalone="no"?>
<svg
   width="880"
   height="310"
   viewBox="0 0 88 31"
   version="1.1"
   id="svg55"
   sodipodi:docname="ad-astra-et-web.svg"
   inkscape:version="1.2.2 (b0a8486541, 2022-12-01)"
   xmlns:inkscape="http://www.inkscape.org/namespaces/inkscape"
   xmlns:sodipodi="http://sodipodi.sourceforge.net/DTD/sodipodi-0.dtd"
   xmlns="http://www.w3.org/2000/svg"
   xmlns:svg="http://www.w3.org/2000/svg">
  <sodipodi:namedview
     id="namedview26"
     pagecolor="#ffffff"
     bordercolor="#999999"
     borderopacity="1"
     inkscape:showpageshadow="0"
     inkscape:pageopacity="0"
     inkscape:pagecheckerboard="0"
     inkscape:deskcolor="#d1d1d1"
     showgrid="false"
     inkscape:zoom="1.1948498"
     inkscape:cx="291.66847"
     inkscape:cy="68.209413"
     inkscape:window-width="1920"
     inkscape:window-height="1003"
     inkscape:window-x="0"
     inkscape:window-y="0"
     inkscape:window-maximized="1"
     inkscape:current-layer="svg55" />
  <defs
     id="defs17">
    <linearGradient
       id="gradient-fill"
       x1="43.671001"
       y1="0.18799999"
       x2="44.203999"
       y2="30.688"
       gradientUnits="userSpaceOnUse"
       gradientTransform="translate(0.07,0.05)">
      <stop
         id="stop4257"
         offset="0"
         style="stop-color:rgb(255, 255, 255); stop-opacity:1" />
      <stop
         id="stop4259"
         offset="1"
         style="stop-color:rgb(235, 235, 235); stop-opacity:1" />
    </linearGradient>
    <linearGradient
       id="gradient-stroke"
       x1="43.671001"
       y1="0.18799999"
       x2="44.203999"
       y2="30.688"
       gradientUnits="userSpaceOnUse"
       gradientTransform="translate(0.07,0.05)">
      <stop
         id="stop4220"
         offset="0"
         style="stop-color:rgb(200, 200, 200); stop-opacity:1" />
      <stop
         id="stop4222"
         offset="1"
         style="stop-color:rgb(120, 120, 120); stop-opacity:1" />
    </linearGradient>
    <linearGradient
       id="gradient"
       x1="4"
       x2="31"
       y1="28"
       y2="3"
       gradientUnits="userSpaceOnUse">
      <stop
         offset="0%"
         stop-color="#0a00b2"
         id="stop8" />
      <stop
         offset="50%"
         stop-color="#ff0000"
         id="stop10" />
      <stop
         offset="100%"
         stop-color="#fffc00"
         id="stop12" />
    </linearGradient>
    <style
       id="style15">
			.button {
				fill: url(#gradient-fill);
				stroke-width: 0.5;
				stroke: url(#gradient-stroke);
			}
			.wordmark {
				fill: #000000;
			}
			.powered {
				fill: #000000;
			}
			.petals {
				fill: url(#gradient);
			}
			.petal {
				opacity: 0.65;
			}
		</style>
  </defs>
  <path
     id="button"
     class="button"
     d="m 5.03,0.25 h 77.94 a 4.78,4.78 0 0 1 4.78,4.78 v 20.94 a 4.78,4.78 0 0 1 -4.78,4.78 H 5.03 A 4.78,4.78 0 0 1 0.25,25.97 V 5.03 A 4.78,4.78 0 0 1 5.03,0.25 Z"
     style="fill:url(#gradient-fill);stroke:url(#gradient-stroke)" />
  <g
     id="g526"
     transform="matrix(0.55424043,0,0,0.55424043,2.7595015,-0.94643905)">
    <path
       fill="#fda736"
       d="m 29,43.52 0.13,8 L 21.56,48.93 14,51.52 14.06,48 A 16,16 0 0 0 29.54,35.82 l 4.26,1.31 z"
       id="path363" />
    <path
       fill="#fed370"
       d="M 29.54,35.82 A 16,16 0 0 1 14.06,48 L 14.13,43.52 13,42 9.33,37.13 13,36 17,34.78 19,32 21.64,28.24 24.2,32 l 2,2.78 z"
       id="path365" />
    <path
       fill="#35214c"
       d="M 29.13,52.52 A 1.13,1.13 0 0 1 28.81,52.47 L 21.56,50 14.32,52.48 A 1,1 0 0 1 13.41,52.34 1,1 0 0 1 13,51.5 L 13.12,43.85 8.53,37.73 A 1,1 0 0 1 9,36.17 L 16.31,33.92 17,33 a 1.0043904,1.0043904 0 0 1 1.64,1.16 l -0.83,1.17 a 1,1 0 0 1 -0.53,0.39 l -6.28,1.95 3.95,5.25 a 1,1 0 0 1 0.2,0.62 L 15,50.11 21.24,48 a 1,1 0 0 1 0.64,0 l 6.23,2.13 v -1.09 a 1,1 0 0 1 1,-1 v 0 a 1,1 0 0 1 1,1 v 2.52 a 1,1 0 0 1 -0.41,0.83 1.06,1.06 0 0 1 -0.57,0.13 z M 29,46 a 1,1 0 0 1 -1,-1 v -1.48 a 1,1 0 0 1 0.2,-0.61 l 3.95,-5.25 -6.28,-1.93 A 1,1 0 0 1 25.34,35.34 L 21.56,30 20.92,30.92 a 1,1 0 0 1 -1.64,-1.14 l 1.46,-2.09 a 1,1 0 0 1 0.82,-0.43 v 0 a 1,1 0 0 1 0.82,0.43 l 4.4,6.25 7.31,2.25 a 1,1 0 0 1 0.66,0.65 1,1 0 0 1 -0.15,0.91 L 30,43.85 V 45 a 1,1 0 0 1 -1,1 z"
       id="path367" />
    <path
       fill="#68539b"
       d="m 27,27 a 1,1 0 0 1 -0.69,-0.27 1,1 0 0 1 0,-1.42 l 17,-18 a 1.0044899,1.0044899 0 1 1 1.46,1.38 l -17,18 A 1,1 0 0 1 27,27 Z m 12,2 a 1,1 0 0 1 -0.71,-0.29 1,1 0 0 1 0,-1.42 l 9,-9 a 1.0040916,1.0040916 0 0 1 1.42,1.42 l -9,9 A 1,1 0 0 1 39,29 Z m -3,3 a 1,1 0 0 1 -0.71,-0.29 1,1 0 0 1 0,-1.42 l 1,-1 a 1.0040916,1.0040916 0 0 1 1.42,1.42 l -1,1 A 1,1 0 0 1 36,32 Z m 17,-5 a 1,1 0 0 1 -0.71,-0.29 1,1 0 0 1 0,-1.42 l 3.5,-3.5 a 1.0040916,1.0040916 0 0 1 1.42,1.42 l -3.5,3.5 A 1,1 0 0 1 53,27 Z M 35,45 a 1,1 0 0 1 -0.71,-0.29 1,1 0 0 1 0,-1.42 l 13,-13 a 1.0040916,1.0040916 0 0 1 1.42,1.42 l -13,13 A 1,1 0 0 1 35,45 Z M 17,26 a 1,1 0 0 1 -0.71,-0.29 1,1 0 0 1 0,-1.42 l 11,-11 a 1.0040916,1.0040916 0 0 1 1.42,1.42 l -11,11 A 1,1 0 0 1 17,26 Z m -4,4 a 1,1 0 0 1 -0.71,-0.29 1,1 0 0 1 0,-1.42 l 1,-1 a 1.0040916,1.0040916 0 0 1 1.42,1.42 l -1,1 A 1,1 0 0 1 13,30 Z"
       id="path373" />
  </g>
  <g
     aria-label="PerekondAD ASTRA"
     id="text674"
     style="font-size:10px;font-family:Aldhabi;-inkscape-font-specification:'Aldhabi, Normal';text-align:center;direction:rtl;text-anchor:middle">
    <path
       d="m 41.540843,14.196289 q -0.38,0 -0.38,-0.22 V 7.4762886 q 0,-0.16 0.06,-0.23 0.07,-0.07 0.21,-0.07 h 1.65 q 0.71,0 1.26,0.42 0.56,0.42 0.56,1.54 0,0.83 -0.32,1.2900004 -0.31,0.46 -0.71,0.62 -0.39,0.15 -0.71,0.15 h -1.1 v 2.78 q 0,0.22 -0.38,0.22 z m 1.57,-3.76 q 0.33,0 0.6,-0.29 0.27,-0.2900004 0.27,-1.0100004 0,-0.67 -0.28,-0.93 -0.27,-0.27 -0.66,-0.27 h -0.98 v 2.5000004 z"
       style="-inkscape-font-specification:'Asap Condensed, Normal'"
       id="path309" />
    <path
       d="m 47.710845,14.236289 q -1.06,0 -1.58,-0.65 -0.51,-0.65 -0.51,-1.99 0,-1.33 0.5,-2.0200004 0.5,-0.69 1.47,-0.69 0.87,0 1.31,0.67 0.44,0.6600004 0.44,1.9400004 0,0.09 -0.12,0.25 -0.12,0.16 -0.21,0.16 h -2.49 q 0.05,0.85 0.32,1.23 0.27,0.38 0.86,0.38 0.36,0 0.6,-0.1 0.24,-0.1 0.39,-0.21 0.15,-0.11 0.18,-0.11 0.1,0 0.22,0.2 0.13,0.2 0.13,0.3 0,0.12 -0.21,0.28 -0.2,0.15 -0.55,0.26 -0.35,0.1 -0.75,0.1 z m 0.74,-3.05 q 0,-1.5800004 -0.89,-1.5800004 -0.96,0 -1.04,1.5800004 z"
       style="-inkscape-font-specification:'Asap Condensed, Normal'"
       id="path311" />
    <path
       d="m 50.920849,14.196289 q -0.4,0 -0.4,-0.22 v -3.53 q 0,-0.6600004 -0.06,-0.9400004 -0.06,-0.29 -0.06,-0.32 0,-0.12 0.19,-0.17 0.19,-0.06 0.35,-0.06 0.14,0 0.2,0.15 0.07,0.15 0.1,0.32 0.04,0.16 0.05,0.21 0.48,-0.75 1.05,-0.75 0.25,0 0.38,0.11 0.14,0.1 0.14,0.28 0,0.17 -0.06,0.36 -0.06,0.18 -0.14,0.18 -0.05,0 -0.18,-0.05 -0.13,-0.06 -0.31,-0.06 -0.26,0 -0.5,0.22 -0.23,0.2100004 -0.31,0.3900004 v 3.66 q 0,0.22 -0.4,0.22 z"
       style="-inkscape-font-specification:'Asap Condensed, Normal'"
       id="path313" />
    <path
       d="m 55.420844,14.236289 q -1.06,0 -1.58,-0.65 -0.51,-0.65 -0.51,-1.99 0,-1.33 0.5,-2.0200004 0.5,-0.69 1.47,-0.69 0.87,0 1.31,0.67 0.44,0.6600004 0.44,1.9400004 0,0.09 -0.12,0.25 -0.12,0.16 -0.21,0.16 h -2.49 q 0.05,0.85 0.32,1.23 0.27,0.38 0.86,0.38 0.36,0 0.6,-0.1 0.24,-0.1 0.39,-0.21 0.15,-0.11 0.18,-0.11 0.1,0 0.22,0.2 0.13,0.2 0.13,0.3 0,0.12 -0.21,0.28 -0.2,0.15 -0.55,0.26 -0.35,0.1 -0.75,0.1 z m 0.74,-3.05 q 0,-1.5800004 -0.89,-1.5800004 -0.96,0 -1.04,1.5800004 z"
       style="-inkscape-font-specification:'Asap Condensed, Normal'"
       id="path315" />
    <path
       d="m 61.600848,13.896289 q 0.07,0.11 0.07,0.16 0,0.08 -0.09,0.11 -0.09,0.03 -0.3,0.03 h -0.2 q -0.16,0 -0.22,-0.02 -0.06,-0.02 -0.12,-0.11 l -1.56,-2.47 h -0.06 v 2.38 q 0,0.22 -0.37,0.22 h -0.11 q -0.38,0 -0.38,-0.22 V 6.8762886 q 0,-0.22 0.38,-0.22 h 0.11 q 0.37,0 0.37,0.22 v 4.4700004 h 0.05 l 1.45,-2.2800004 q 0.08,-0.14 0.43,-0.14 h 0.2 q 0.16,0 0.24,0.04 0.09,0.03 0.09,0.09 0,0.08 -0.08,0.21 l -1.45,2.2000004 z"
       style="-inkscape-font-specification:'Asap Condensed, Normal'"
       id="path317" />
    <path
       d="m 64.12084,14.236289 q -0.94,0 -1.44,-0.68 -0.49,-0.68 -0.49,-1.97 0,-1.3 0.49,-2.0000004 0.5,-0.7 1.44,-0.7 0.93,0 1.41,0.7 0.49,0.6900004 0.49,2.0000004 0,1.3 -0.48,1.98 -0.48,0.67 -1.42,0.67 z m -0.02,-0.72 q 0.53,0 0.78,-0.47 0.26,-0.48 0.26,-1.48 0,-1 -0.26,-1.48 -0.25,-0.4800004 -0.78,-0.4800004 -0.53,0 -0.78,0.4800004 -0.24,0.47 -0.24,1.48 0,1 0.24,1.48 0.25,0.47 0.78,0.47 z"
       style="-inkscape-font-specification:'Asap Condensed, Normal'"
       id="path319" />
    <path
       d="m 67.640833,14.196289 q -0.37,0 -0.37,-0.22 v -3.53 q 0,-0.6500004 -0.05,-0.9400004 -0.05,-0.29 -0.05,-0.32 0,-0.12 0.21,-0.17 0.22,-0.06 0.37,-0.06 0.14,0 0.19,0.13 0.06,0.13 0.09,0.3 0.03,0.17 0.04,0.25 0.23,-0.35 0.56,-0.55 0.33,-0.2 0.7,-0.2 0.62,0 0.96,0.42 0.34,0.41 0.34,1.1400004 v 3.53 q 0,0.22 -0.38,0.22 h -0.1 q -0.39,0 -0.39,-0.22 v -3.45 q 0,-0.44 -0.18,-0.6700004 -0.18,-0.24 -0.53,-0.24 -0.27,0 -0.52,0.2 -0.25,0.1900004 -0.4,0.5000004 v 3.66 q 0,0.22 -0.38,0.22 z"
       style="-inkscape-font-specification:'Asap Condensed, Normal'"
       id="path321" />
    <path
       d="m 73.350837,14.236289 q -0.47,0 -0.83,-0.34 -0.35,-0.34 -0.55,-0.95 -0.19,-0.61 -0.19,-1.41 0,-1.25 0.45,-1.9500004 0.45,-0.7 1.2,-0.7 0.35,0 0.59,0.13 0.25,0.13 0.47,0.38 v -2.52 q 0,-0.22 0.37,-0.22 h 0.11 q 0.38,0 0.38,0.22 v 5.8200004 q 0,0.63 0.05,0.93 0.05,0.3 0.05,0.34 0,0.11 -0.22,0.17 -0.21,0.05 -0.36,0.05 -0.15,0 -0.21,-0.14 -0.05,-0.14 -0.08,-0.32 -0.03,-0.18 -0.04,-0.24 -0.23,0.37 -0.54,0.56 -0.3,0.19 -0.65,0.19 z m 0.21,-0.73 q 0.25,0 0.49,-0.18 0.25,-0.18 0.44,-0.51 v -2.74 q -0.34,-0.4500004 -0.84,-0.4500004 -0.98,0 -0.98,1.9000004 0,0.94 0.22,1.46 0.23,0.52 0.67,0.52 z"
       style="-inkscape-font-specification:'Asap Condensed, Normal'"
       id="path323" />
    <path
       d="m 40.830843,24.411712 q -0.32,0 -0.32,-0.144 0,-0.024 0.016,-0.12 l 1.384,-5.192 q 0.056,-0.176 0.368,-0.176 h 0.336 q 0.336,0 0.368,0.176 l 1.384,5.192 q 0.024,0.072 0.024,0.12 0,0.144 -0.312,0.144 h -0.216 q -0.296,0 -0.328,-0.136 l -0.304,-1.216 h -1.576 l -0.296,1.216 q -0.032,0.136 -0.32,0.136 z m 2.24,-2.072 -0.512,-2.048 q -0.032,-0.128 -0.088,-0.52 h -0.04 l -0.032,0.192 q -0.016,0.136 -0.064,0.328 l -0.504,2.048 z"
       style="-inkscape-font-specification:'Asap Condensed,  Medium'"
       id="path325" />
    <path
       d="m 45.286837,24.395712 q -0.128,0 -0.184,-0.064 -0.056,-0.064 -0.056,-0.2 v -5.072 q 0,-0.136 0.056,-0.2 0.056,-0.064 0.184,-0.064 h 1.392 q 2.016,0 2.016,2.8 0,1.464 -0.52,2.136 -0.52,0.664 -1.496,0.664 z m 1.368,-0.736 q 0.552,0 0.848,-0.488 0.296,-0.488 0.296,-1.576 0,-2.064 -1.144,-2.064 h -0.728 v 4.128 z"
       style="-inkscape-font-specification:'Asap Condensed,  Medium'"
       id="path327" />
    <path
       d="m 50.932823,24.415712 q -0.37,0 -0.37,-0.17 0,-0.03 0.02,-0.13 l 1.81,-6.55 q 0.06,-0.19 0.4,-0.19 h 0.32 q 0.36,0 0.4,0.19 l 1.81,6.55 q 0.03,0.07 0.03,0.13 0,0.08 -0.1,0.13 -0.09,0.04 -0.27,0.04 h -0.17 q -0.32,0 -0.36,-0.16 l -0.43,-1.64 h -2.15 l -0.42,1.64 q -0.04,0.16 -0.36,0.16 z m 2.87,-2.56 -0.71,-2.74 q -0.03,-0.13 -0.11,-0.61 h -0.05 q -0.02,0.07 -0.04,0.23 l -0.08,0.38 -0.71,2.74 z"
       style="-inkscape-font-specification:'Asap Condensed, Normal'"
       id="path329" />
    <path
       d="m 57.098815,24.443712 q -0.376,0 -0.712,-0.096 -0.336,-0.104 -0.568,-0.288 -0.048,-0.048 -0.072,-0.088 -0.024,-0.048 -0.024,-0.12 0,-0.168 0.072,-0.344 0.072,-0.184 0.168,-0.184 0.04,0 0.088,0.032 0.056,0.024 0.088,0.04 0.4,0.296 0.944,0.296 0.368,0 0.608,-0.208 0.24,-0.208 0.24,-0.592 0,-0.352 -0.2,-0.552 -0.2,-0.2 -0.608,-0.408 -0.432,-0.224 -0.696,-0.416 -0.264,-0.2 -0.432,-0.496 -0.16,-0.296 -0.16,-0.728 0,-0.48 0.208,-0.832 0.216,-0.36 0.592,-0.552 0.376,-0.192 0.856,-0.192 0.28,0 0.544,0.072 0.264,0.064 0.456,0.184 0.08,0.048 0.08,0.144 0,0.144 -0.08,0.344 -0.08,0.2 -0.168,0.2 -0.032,0 -0.144,-0.048 -0.32,-0.144 -0.68,-0.144 -0.368,0 -0.592,0.2 -0.224,0.2 -0.224,0.544 0,0.248 0.104,0.416 0.112,0.168 0.288,0.288 0.176,0.12 0.52,0.304 0.392,0.208 0.64,0.4 0.248,0.192 0.4,0.488 0.152,0.288 0.152,0.72 0,0.736 -0.464,1.176 -0.456,0.44 -1.224,0.44 z"
       style="-inkscape-font-specification:'Asap Condensed,  Medium'"
       id="path331" />
    <path
       d="m 60.714817,24.411712 q -0.352,0 -0.352,-0.2 v -4.68 h -1.08 q -0.088,0 -0.128,-0.064 -0.04,-0.072 -0.04,-0.224 v -0.16 q 0,-0.152 0.04,-0.216 0.04,-0.072 0.128,-0.072 h 3.024 q 0.096,0 0.136,0.072 0.04,0.064 0.04,0.216 v 0.16 q 0,0.152 -0.04,0.224 -0.04,0.064 -0.136,0.064 h -1.072 v 4.68 q 0,0.2 -0.352,0.2 z"
       style="-inkscape-font-specification:'Asap Condensed,  Medium'"
       id="path333" />
    <path
       d="m 63.530821,24.411712 q -0.36,0 -0.36,-0.2 v -5.152 q 0,-0.264 0.248,-0.264 h 1.232 q 0.776,0 1.176,0.344 0.4,0.344 0.4,1.12 0,0.96 -0.744,1.352 v 0.032 q 0.168,0.088 0.296,0.32 0.128,0.232 0.256,0.624 l 0.496,1.56 q 0.008,0.032 0.016,0.064 0.008,0.024 0.008,0.048 0,0.152 -0.368,0.152 h -0.176 q -0.136,0 -0.232,-0.04 -0.096,-0.04 -0.12,-0.112 l -0.464,-1.56 q -0.12,-0.376 -0.28,-0.512 -0.152,-0.136 -0.456,-0.136 h -0.416 v 2.16 q 0,0.2 -0.36,0.2 z m 1.208,-3.128 q 0.256,0 0.432,-0.256 0.184,-0.264 0.184,-0.648 0,-0.432 -0.176,-0.64 -0.176,-0.208 -0.48,-0.208 h -0.664 v 1.752 z"
       style="-inkscape-font-specification:'Asap Condensed,  Medium'"
       id="path335" />
    <path
       d="m 67.114825,24.411712 q -0.32,0 -0.32,-0.144 0,-0.024 0.016,-0.12 l 1.384,-5.192 q 0.056,-0.176 0.368,-0.176 h 0.336 q 0.336,0 0.368,0.176 l 1.384,5.192 q 0.024,0.072 0.024,0.12 0,0.144 -0.312,0.144 h -0.216 q -0.296,0 -0.328,-0.136 l -0.304,-1.216 h -1.576 l -0.296,1.216 q -0.032,0.136 -0.32,0.136 z m 2.24,-2.072 -0.512,-2.048 q -0.032,-0.128 -0.088,-0.52 h -0.04 l -0.032,0.192 q -0.016,0.136 -0.064,0.328 l -0.504,2.048 z"
       style="-inkscape-font-specification:'Asap Condensed,  Medium'"
       id="path337" />
  </g>
</svg>
