<?xml version="1.0" encoding="UTF-8" standalone="no"?>
<svg
   width="880"
   height="310"
   viewBox="0 0 88 31"
   version="1.1"
   id="svg55"
   sodipodi:docname="ad-astra-es-web.svg"
   inkscape:export-filename="ad-astra-es-web.png"
   inkscape:export-xdpi="96"
   inkscape:export-ydpi="96"
   inkscape:version="1.2.2 (b0a8486541, 2022-12-01)"
   xmlns:inkscape="http://www.inkscape.org/namespaces/inkscape"
   xmlns:sodipodi="http://sodipodi.sourceforge.net/DTD/sodipodi-0.dtd"
   xmlns="http://www.w3.org/2000/svg"
   xmlns:svg="http://www.w3.org/2000/svg">
  <sodipodi:namedview
     id="namedview38"
     pagecolor="#ffffff"
     bordercolor="#999999"
     borderopacity="1"
     inkscape:showpageshadow="0"
     inkscape:pageopacity="0"
     inkscape:pagecheckerboard="0"
     inkscape:deskcolor="#d1d1d1"
     showgrid="false"
     inkscape:zoom="0.13203437"
     inkscape:cx="549.09943"
     inkscape:cy="64.377175"
     inkscape:window-width="1920"
     inkscape:window-height="1003"
     inkscape:window-x="0"
     inkscape:window-y="0"
     inkscape:window-maximized="1"
     inkscape:current-layer="svg55" />
  <defs
     id="defs17">
    <linearGradient
       id="gradient-fill"
       x1="43.671001"
       y1="0.18799999"
       x2="44.203999"
       y2="30.688"
       gradientUnits="userSpaceOnUse"
       gradientTransform="translate(0.07,0.05)">
      <stop
         id="stop4257"
         offset="0"
         style="stop-color:rgb(255, 255, 255); stop-opacity:1" />
      <stop
         id="stop4259"
         offset="1"
         style="stop-color:rgb(235, 235, 235); stop-opacity:1" />
    </linearGradient>
    <linearGradient
       id="gradient-stroke"
       x1="43.671001"
       y1="0.18799999"
       x2="44.203999"
       y2="30.688"
       gradientUnits="userSpaceOnUse"
       gradientTransform="translate(0.07,0.05)">
      <stop
         id="stop4220"
         offset="0"
         style="stop-color:rgb(200, 200, 200); stop-opacity:1" />
      <stop
         id="stop4222"
         offset="1"
         style="stop-color:rgb(120, 120, 120); stop-opacity:1" />
    </linearGradient>
    <linearGradient
       id="gradient"
       x1="4"
       x2="31"
       y1="28"
       y2="3"
       gradientUnits="userSpaceOnUse">
      <stop
         offset="0%"
         stop-color="#0a00b2"
         id="stop8" />
      <stop
         offset="50%"
         stop-color="#ff0000"
         id="stop10" />
      <stop
         offset="100%"
         stop-color="#fffc00"
         id="stop12" />
    </linearGradient>
    <style
       id="style15">
			.button {
				fill: url(#gradient-fill);
				stroke-width: 0.5;
				stroke: url(#gradient-stroke);
			}
			.wordmark {
				fill: #000000;
			}
			.powered {
				fill: #000000;
			}
			.petals {
				fill: url(#gradient);
			}
			.petal {
				opacity: 0.65;
			}
		</style>
  </defs>
  <path
     id="button"
     class="button"
     d="m 5.03,0.25 h 77.94 a 4.78,4.78 0 0 1 4.78,4.78 v 20.94 a 4.78,4.78 0 0 1 -4.78,4.78 H 5.03 A 4.78,4.78 0 0 1 0.25,25.97 V 5.03 A 4.78,4.78 0 0 1 5.03,0.25 Z"
     style="fill:url(#gradient-fill);stroke:url(#gradient-stroke)" />
  <g
     id="g526"
     transform="matrix(0.55424043,0,0,0.55424043,2.7595015,-0.94643905)">
    <path
       fill="#fda736"
       d="m 29,43.52 0.13,8 L 21.56,48.93 14,51.52 14.06,48 A 16,16 0 0 0 29.54,35.82 l 4.26,1.31 z"
       id="path363" />
    <path
       fill="#fed370"
       d="M 29.54,35.82 A 16,16 0 0 1 14.06,48 L 14.13,43.52 13,42 9.33,37.13 13,36 17,34.78 19,32 21.64,28.24 24.2,32 l 2,2.78 z"
       id="path365" />
    <path
       fill="#35214c"
       d="M 29.13,52.52 A 1.13,1.13 0 0 1 28.81,52.47 L 21.56,50 14.32,52.48 A 1,1 0 0 1 13.41,52.34 1,1 0 0 1 13,51.5 L 13.12,43.85 8.53,37.73 A 1,1 0 0 1 9,36.17 L 16.31,33.92 17,33 a 1.0043904,1.0043904 0 0 1 1.64,1.16 l -0.83,1.17 a 1,1 0 0 1 -0.53,0.39 l -6.28,1.95 3.95,5.25 a 1,1 0 0 1 0.2,0.62 L 15,50.11 21.24,48 a 1,1 0 0 1 0.64,0 l 6.23,2.13 v -1.09 a 1,1 0 0 1 1,-1 v 0 a 1,1 0 0 1 1,1 v 2.52 a 1,1 0 0 1 -0.41,0.83 1.06,1.06 0 0 1 -0.57,0.13 z M 29,46 a 1,1 0 0 1 -1,-1 v -1.48 a 1,1 0 0 1 0.2,-0.61 l 3.95,-5.25 -6.28,-1.93 A 1,1 0 0 1 25.34,35.34 L 21.56,30 20.92,30.92 a 1,1 0 0 1 -1.64,-1.14 l 1.46,-2.09 a 1,1 0 0 1 0.82,-0.43 v 0 a 1,1 0 0 1 0.82,0.43 l 4.4,6.25 7.31,2.25 a 1,1 0 0 1 0.66,0.65 1,1 0 0 1 -0.15,0.91 L 30,43.85 V 45 a 1,1 0 0 1 -1,1 z"
       id="path367" />
    <path
       fill="#68539b"
       d="m 27,27 a 1,1 0 0 1 -0.69,-0.27 1,1 0 0 1 0,-1.42 l 17,-18 a 1.0044899,1.0044899 0 1 1 1.46,1.38 l -17,18 A 1,1 0 0 1 27,27 Z m 12,2 a 1,1 0 0 1 -0.71,-0.29 1,1 0 0 1 0,-1.42 l 9,-9 a 1.0040916,1.0040916 0 0 1 1.42,1.42 l -9,9 A 1,1 0 0 1 39,29 Z m -3,3 a 1,1 0 0 1 -0.71,-0.29 1,1 0 0 1 0,-1.42 l 1,-1 a 1.0040916,1.0040916 0 0 1 1.42,1.42 l -1,1 A 1,1 0 0 1 36,32 Z m 17,-5 a 1,1 0 0 1 -0.71,-0.29 1,1 0 0 1 0,-1.42 l 3.5,-3.5 a 1.0040916,1.0040916 0 0 1 1.42,1.42 l -3.5,3.5 A 1,1 0 0 1 53,27 Z M 35,45 a 1,1 0 0 1 -0.71,-0.29 1,1 0 0 1 0,-1.42 l 13,-13 a 1.0040916,1.0040916 0 0 1 1.42,1.42 l -13,13 A 1,1 0 0 1 35,45 Z M 17,26 a 1,1 0 0 1 -0.71,-0.29 1,1 0 0 1 0,-1.42 l 11,-11 a 1.0040916,1.0040916 0 0 1 1.42,1.42 l -11,11 A 1,1 0 0 1 17,26 Z m -4,4 a 1,1 0 0 1 -0.71,-0.29 1,1 0 0 1 0,-1.42 l 1,-1 a 1.0040916,1.0040916 0 0 1 1.42,1.42 l -1,1 A 1,1 0 0 1 13,30 Z"
       id="path373" />
  </g>
  <g
     aria-label="La Familia AD ASTRA"
     id="text674"
     style="font-size:10px;font-family:Aldhabi;-inkscape-font-specification:'Aldhabi, Normal';text-align:center;direction:rtl;text-anchor:middle"
     transform="translate(0.00695759,0.00695759)">
    <path
       d="m 41.473885,14.169331 q -0.14,0 -0.21,-0.07 -0.06,-0.07 -0.06,-0.23 V 7.3693306 q 0,-0.22 0.38,-0.22 h 0.14 q 0.38,0 0.38,0.22 v 6.0400004 h 2.08 q 0.11,0 0.15,0.07 0.05,0.07 0.05,0.23 v 0.16 q 0,0.16 -0.05,0.23 -0.04,0.07 -0.15,0.07 z"
       style="-inkscape-font-specification:'Asap Condensed, Normal'"
       id="path254" />
    <path
       d="m 46.473895,14.229331 q -0.67,0 -1.07,-0.4 -0.39,-0.41 -0.39,-1.15 0,-0.75 0.39,-1.15 0.39,-0.4 0.97,-0.53 0.58,-0.14 1.33,-0.15 v -0.47 q 0,-0.34 -0.21,-0.5600004 -0.21,-0.22 -0.66,-0.22 -0.35,0 -0.62,0.09 -0.26,0.08 -0.45,0.18 -0.19,0.09 -0.22,0.09 -0.1,0 -0.23,-0.19 -0.12,-0.2 -0.12,-0.3 0,-0.13 0.23,-0.27 0.24,-0.14 0.62,-0.23 0.39,-0.09 0.8,-0.09 0.8,0 1.25,0.4 0.45,0.4 0.45,1.1100004 v 2.3 q 0,0.66 0.06,0.95 0.06,0.28 0.06,0.31 0,0.12 -0.19,0.18 -0.19,0.05 -0.35,0.05 -0.15,0 -0.22,-0.15 -0.07,-0.16 -0.13,-0.44 -0.53,0.64 -1.3,0.64 z m 0.17,-0.79 q 0.65,0 1.06,-0.57 v -1.29 q -0.56,0.01 -0.93,0.08 -0.36,0.07 -0.62,0.31 -0.26,0.23 -0.26,0.7 0,0.77 0.75,0.77 z"
       style="-inkscape-font-specification:'Asap Condensed, Normal'"
       id="path256" />
    <path
       d="m 51.843895,14.189331 q -0.38,0 -0.38,-0.22 V 7.4693306 q 0,-0.16 0.06,-0.23 0.07,-0.07 0.21,-0.07 h 2.6 q 0.19,0 0.19,0.3 v 0.16 q 0,0.3 -0.19,0.3 h -1.97 v 2.4800004 h 1.8 q 0.19,0 0.19,0.3 v 0.16 q 0,0.3 -0.19,0.3 h -1.8 v 2.8 q 0,0.22 -0.38,0.22 z"
       style="-inkscape-font-specification:'Asap Condensed, Normal'"
       id="path258" />
    <path
       d="m 56.683894,14.229331 q -0.67,0 -1.07,-0.4 -0.39,-0.41 -0.39,-1.15 0,-0.75 0.39,-1.15 0.39,-0.4 0.97,-0.53 0.58,-0.14 1.33,-0.15 v -0.47 q 0,-0.34 -0.21,-0.5600004 -0.21,-0.22 -0.66,-0.22 -0.35,0 -0.62,0.09 -0.26,0.08 -0.45,0.18 -0.19,0.09 -0.22,0.09 -0.1,0 -0.23,-0.19 -0.12,-0.2 -0.12,-0.3 0,-0.13 0.23,-0.27 0.24,-0.14 0.62,-0.23 0.39,-0.09 0.8,-0.09 0.8,0 1.25,0.4 0.45,0.4 0.45,1.1100004 v 2.3 q 0,0.66 0.06,0.95 0.06,0.28 0.06,0.31 0,0.12 -0.19,0.18 -0.19,0.05 -0.35,0.05 -0.15,0 -0.22,-0.15 -0.07,-0.16 -0.13,-0.44 -0.53,0.64 -1.3,0.64 z m 0.17,-0.79 q 0.65,0 1.06,-0.57 v -1.29 q -0.56,0.01 -0.93,0.08 -0.36,0.07 -0.62,0.31 -0.26,0.23 -0.26,0.7 0,0.77 0.75,0.77 z"
       style="-inkscape-font-specification:'Asap Condensed, Normal'"
       id="path260" />
    <path
       d="m 64.773903,8.8793306 q 0.55,0 0.91,0.41 0.36,0.4 0.36,1.2100004 v 3.47 q 0,0.22 -0.38,0.22 h -0.1 q -0.38,0 -0.38,-0.22 v -3.39 q 0,-0.47 -0.17,-0.7200004 -0.17,-0.25 -0.51,-0.25 -0.31,0 -0.56,0.23 -0.24,0.2200004 -0.34,0.5000004 v 0.16 3.47 q 0,0.22 -0.37,0.22 h -0.11 q -0.38,0 -0.38,-0.22 v -3.39 q 0,-0.47 -0.17,-0.7200004 -0.17,-0.25 -0.52,-0.25 -0.33,0 -0.58,0.24 -0.25,0.2400004 -0.31,0.4600004 v 3.66 q 0,0.22 -0.38,0.22 h -0.11 q -0.37,0 -0.37,-0.22 v -3.53 q 0,-0.6500004 -0.05,-0.9400004 -0.05,-0.29 -0.05,-0.32 0,-0.12 0.21,-0.17 0.22,-0.06 0.37,-0.06 0.14,0 0.19,0.13 0.06,0.13 0.09,0.3 0.03,0.17 0.04,0.25 0.2,-0.34 0.52,-0.54 0.33,-0.21 0.71,-0.21 0.38,0 0.68,0.19 0.31,0.18 0.46,0.58 0.24,-0.35 0.58,-0.56 0.34,-0.21 0.72,-0.21 z"
       style="-inkscape-font-specification:'Asap Condensed, Normal'"
       id="path262" />
    <path
       d="m 67.973896,14.189331 q -0.4,0 -0.4,-0.22 V 9.1393306 q 0,-0.22 0.4,-0.22 h 0.04 q 0.4,0 0.4,0.22 v 4.8300004 q 0,0.22 -0.4,0.22 z m 0.02,-5.9700004 q -0.44,0 -0.44,-0.22 v -0.6 q 0,-0.22 0.44,-0.22 0.44,0 0.44,0.22 v 0.6 q 0,0.22 -0.44,0.22 z"
       style="-inkscape-font-specification:'Asap Condensed, Normal'"
       id="path264" />
    <path
       d="m 71.083893,14.229331 q -0.41,0 -0.74,-0.26 -0.32,-0.27 -0.32,-0.95 V 6.8693306 q 0,-0.22 0.4,-0.22 h 0.04 q 0.4,0 0.4,0.22 v 6.0700004 q 0,0.57 0.37,0.57 0.12,0 0.2,-0.02 0.08,-0.03 0.12,-0.03 0.09,0 0.15,0.19 0.06,0.18 0.06,0.28 0,0.15 -0.22,0.23 -0.22,0.07 -0.46,0.07 z"
       style="-inkscape-font-specification:'Asap Condensed, Normal'"
       id="path266" />
    <path
       d="m 73.213898,14.189331 q -0.4,0 -0.4,-0.22 V 9.1393306 q 0,-0.22 0.4,-0.22 h 0.04 q 0.4,0 0.4,0.22 v 4.8300004 q 0,0.22 -0.4,0.22 z m 0.02,-5.9700004 q -0.44,0 -0.44,-0.22 v -0.6 q 0,-0.22 0.44,-0.22 0.44,0 0.44,0.22 v 0.6 q 0,0.22 -0.44,0.22 z"
       style="-inkscape-font-specification:'Asap Condensed, Normal'"
       id="path268" />
    <path
       d="m 76.473895,14.229331 q -0.67,0 -1.07,-0.4 -0.39,-0.41 -0.39,-1.15 0,-0.75 0.39,-1.15 0.39,-0.4 0.97,-0.53 0.58,-0.14 1.33,-0.15 v -0.47 q 0,-0.34 -0.21,-0.5600004 -0.21,-0.22 -0.66,-0.22 -0.35,0 -0.62,0.09 -0.26,0.08 -0.45,0.18 -0.19,0.09 -0.22,0.09 -0.1,0 -0.23,-0.19 -0.12,-0.2 -0.12,-0.3 0,-0.13 0.23,-0.27 0.24,-0.14 0.62,-0.23 0.39,-0.09 0.8,-0.09 0.8,0 1.25,0.4 0.45,0.4 0.45,1.1100004 v 2.3 q 0,0.66 0.06,0.95 0.06,0.28 0.06,0.31 0,0.12 -0.19,0.18 -0.19,0.05 -0.35,0.05 -0.15,0 -0.22,-0.15 -0.07,-0.16 -0.13,-0.44 -0.53,0.64 -1.3,0.64 z m 0.17,-0.79 q 0.65,0 1.06,-0.57 v -1.29 q -0.56,0.01 -0.93,0.08 -0.36,0.07 -0.62,0.31 -0.26,0.23 -0.26,0.7 0,0.77 0.75,0.77 z"
       style="-inkscape-font-specification:'Asap Condensed, Normal'"
       id="path270" />
    <path
       d="m 40.823885,24.404754 q -0.32,0 -0.32,-0.144 0,-0.024 0.016,-0.12 l 1.384,-5.192 q 0.056,-0.176 0.368,-0.176 h 0.336 q 0.336,0 0.368,0.176 l 1.384,5.192 q 0.024,0.072 0.024,0.12 0,0.144 -0.312,0.144 h -0.216 q -0.296,0 -0.328,-0.136 l -0.304,-1.216 h -1.576 l -0.296,1.216 q -0.032,0.136 -0.32,0.136 z m 2.24,-2.072 -0.512,-2.048 q -0.032,-0.128 -0.088,-0.52 h -0.04 l -0.032,0.192 q -0.016,0.136 -0.064,0.328 l -0.504,2.048 z"
       style="-inkscape-font-specification:'Asap Condensed,  Medium'"
       id="path272" />
    <path
       d="m 45.279879,24.388754 q -0.128,0 -0.184,-0.064 -0.056,-0.064 -0.056,-0.2 v -5.072 q 0,-0.136 0.056,-0.2 0.056,-0.064 0.184,-0.064 h 1.392 q 2.016,0 2.016,2.8 0,1.464 -0.52,2.136 -0.52,0.664 -1.496,0.664 z m 1.368,-0.736 q 0.552,0 0.848,-0.488 0.296,-0.488 0.296,-1.576 0,-2.064 -1.144,-2.064 h -0.728 v 4.128 z"
       style="-inkscape-font-specification:'Asap Condensed,  Medium'"
       id="path274" />
    <path
       d="m 50.925865,24.408754 q -0.37,0 -0.37,-0.17 0,-0.03 0.02,-0.13 l 1.81,-6.55 q 0.06,-0.19 0.4,-0.19 h 0.32 q 0.36,0 0.4,0.19 l 1.81,6.55 q 0.03,0.07 0.03,0.13 0,0.08 -0.1,0.13 -0.09,0.04 -0.27,0.04 h -0.17 q -0.32,0 -0.36,-0.16 l -0.43,-1.64 h -2.15 l -0.42,1.64 q -0.04,0.16 -0.36,0.16 z m 2.87,-2.56 -0.71,-2.74 q -0.03,-0.13 -0.11,-0.61 h -0.05 q -0.02,0.07 -0.04,0.23 l -0.08,0.38 -0.71,2.74 z"
       style="-inkscape-font-specification:'Asap Condensed, Normal'"
       id="path276" />
    <path
       d="m 57.091857,24.436754 q -0.376,0 -0.712,-0.096 -0.336,-0.104 -0.568,-0.288 -0.048,-0.048 -0.072,-0.088 -0.024,-0.048 -0.024,-0.12 0,-0.168 0.072,-0.344 0.072,-0.184 0.168,-0.184 0.04,0 0.088,0.032 0.056,0.024 0.088,0.04 0.4,0.296 0.944,0.296 0.368,0 0.608,-0.208 0.24,-0.208 0.24,-0.592 0,-0.352 -0.2,-0.552 -0.2,-0.2 -0.608,-0.408 -0.432,-0.224 -0.696,-0.416 -0.264,-0.2 -0.432,-0.496 -0.16,-0.296 -0.16,-0.728 0,-0.48 0.208,-0.832 0.216,-0.36 0.592,-0.552 0.376,-0.192 0.856,-0.192 0.28,0 0.544,0.072 0.264,0.064 0.456,0.184 0.08,0.048 0.08,0.144 0,0.144 -0.08,0.344 -0.08,0.2 -0.168,0.2 -0.032,0 -0.144,-0.048 -0.32,-0.144 -0.68,-0.144 -0.368,0 -0.592,0.2 -0.224,0.2 -0.224,0.544 0,0.248 0.104,0.416 0.112,0.168 0.288,0.288 0.176,0.12 0.52,0.304 0.392,0.208 0.64,0.4 0.248,0.192 0.4,0.488 0.152,0.288 0.152,0.72 0,0.736 -0.464,1.176 -0.456,0.44 -1.224,0.44 z"
       style="-inkscape-font-specification:'Asap Condensed,  Medium'"
       id="path278" />
    <path
       d="m 60.707859,24.404754 q -0.352,0 -0.352,-0.2 v -4.68 h -1.08 q -0.088,0 -0.128,-0.064 -0.04,-0.072 -0.04,-0.224 v -0.16 q 0,-0.152 0.04,-0.216 0.04,-0.072 0.128,-0.072 h 3.024 q 0.096,0 0.136,0.072 0.04,0.064 0.04,0.216 v 0.16 q 0,0.152 -0.04,0.224 -0.04,0.064 -0.136,0.064 h -1.072 v 4.68 q 0,0.2 -0.352,0.2 z"
       style="-inkscape-font-specification:'Asap Condensed,  Medium'"
       id="path280" />
    <path
       d="m 63.523863,24.404754 q -0.36,0 -0.36,-0.2 v -5.152 q 0,-0.264 0.248,-0.264 h 1.232 q 0.776,0 1.176,0.344 0.4,0.344 0.4,1.12 0,0.96 -0.744,1.352 v 0.032 q 0.168,0.088 0.296,0.32 0.128,0.232 0.256,0.624 l 0.496,1.56 q 0.008,0.032 0.016,0.064 0.008,0.024 0.008,0.048 0,0.152 -0.368,0.152 h -0.176 q -0.136,0 -0.232,-0.04 -0.096,-0.04 -0.12,-0.112 l -0.464,-1.56 q -0.12,-0.376 -0.28,-0.512 -0.152,-0.136 -0.456,-0.136 h -0.416 v 2.16 q 0,0.2 -0.36,0.2 z m 1.208,-3.128 q 0.256,0 0.432,-0.256 0.184,-0.264 0.184,-0.648 0,-0.432 -0.176,-0.64 -0.176,-0.208 -0.48,-0.208 h -0.664 v 1.752 z"
       style="-inkscape-font-specification:'Asap Condensed,  Medium'"
       id="path282" />
    <path
       d="m 67.107867,24.404754 q -0.32,0 -0.32,-0.144 0,-0.024 0.016,-0.12 l 1.384,-5.192 q 0.056,-0.176 0.368,-0.176 h 0.336 q 0.336,0 0.368,0.176 l 1.384,5.192 q 0.024,0.072 0.024,0.12 0,0.144 -0.312,0.144 h -0.216 q -0.296,0 -0.328,-0.136 l -0.304,-1.216 h -1.576 l -0.296,1.216 q -0.032,0.136 -0.32,0.136 z m 2.24,-2.072 -0.512,-2.048 q -0.032,-0.128 -0.088,-0.52 h -0.04 l -0.032,0.192 q -0.016,0.136 -0.064,0.328 l -0.504,2.048 z"
       style="-inkscape-font-specification:'Asap Condensed,  Medium'"
       id="path284" />
  </g>
</svg>
