<svg version="1.1" id="Layer_1" xmlns="http://www.w3.org/2000/svg" xmlns:xlink="http://www.w3.org/1999/xlink" x="0px" y="0px"
	 width="100%" viewBox="0 0 640 640" enable-background="new 0 0 640 640" xml:space="preserve">
<path fill="#FFFEFE" opacity="1.000000" stroke="none" 
	d="
M355.000000,641.000000 
	C236.666687,641.000000 118.833374,641.000000 1.000047,641.000000 
	C1.000032,427.666718 1.000032,214.333450 1.000016,1.000133 
	C214.333237,1.000089 427.666473,1.000089 640.999756,1.000044 
	C640.999878,214.333191 640.999878,427.666382 640.999939,640.999756 
	C545.833313,641.000000 450.666656,641.000000 355.000000,641.000000 
M370.430389,543.470215 
	C370.430389,546.438599 370.430389,549.406921 370.430389,552.578247 
	C371.896057,552.431763 374.101135,552.211304 376.306183,551.990845 
	C376.355927,552.408997 376.405640,552.827209 376.455353,553.245422 
	C374.988770,553.992310 373.522156,554.739258 372.055573,555.486145 
	C372.064850,556.069458 372.074158,556.652710 372.083466,557.236023 
	C377.057037,558.660645 382.030640,560.085266 386.497986,561.364868 
	C385.896881,557.247070 385.462341,554.270081 385.670685,551.127014 
	C386.107605,551.174561 386.544525,551.222168 386.990173,552.028748 
	C387.750671,553.307373 388.245361,555.093750 389.367676,555.681396 
	C390.084686,556.056763 392.190094,554.980164 392.875183,553.997986 
	C395.186584,550.684082 396.996674,552.284546 398.750305,554.329712 
	C399.679901,555.413818 400.288635,556.773132 401.108490,558.939209 
	C401.118774,563.950378 401.129059,568.961609 400.558777,574.370667 
	C401.812775,577.097656 403.066772,579.824646 404.320801,582.551636 
	C404.802948,582.428589 405.285126,582.305542 405.767273,582.182556 
	C404.550690,583.796448 403.334076,585.410400 402.117462,587.024292 
	C403.811768,587.284302 404.952179,586.849976 406.055389,586.335876 
	C408.962616,584.980896 411.727539,583.107849 414.776428,582.312012 
	C421.994293,580.427795 425.129486,575.691162 423.642426,568.274902 
	C423.190643,566.021790 422.485962,563.411438 423.202606,561.439087 
	C424.026978,559.170349 426.299133,557.427795 428.180450,555.171204 
	C429.682373,557.076477 430.444763,558.043579 431.849243,559.825195 
	C433.153687,555.363708 435.794250,556.351257 438.797272,558.022034 
	C438.078918,555.292175 437.548798,553.277527 437.800049,551.096375 
	C438.858337,551.152771 439.916656,551.209167 441.004425,551.963257 
	C443.194000,553.811035 445.383545,555.658813 447.573090,557.506531 
	C448.052521,557.107605 448.531921,556.708679 449.011322,556.309753 
	C448.437225,554.476746 447.863159,552.643738 447.290131,550.814148 
	C454.239990,548.898499 457.811646,543.464966 456.198700,537.419678 
	C452.628693,536.694885 452.628662,536.694885 450.875916,532.498413 
	C449.719055,529.728638 443.678162,528.662598 440.199097,530.901001 
	C439.138000,530.839172 438.076904,530.777344 436.836609,530.059082 
	C434.791931,529.504822 432.393402,525.899658 430.338593,530.962524 
	C429.892334,530.974426 429.446045,530.986328 428.681488,530.350159 
	C426.552185,524.614075 422.282227,519.498901 426.263397,512.460022 
	C427.568695,510.152161 425.314789,505.831207 424.534668,501.595612 
	C423.258392,503.186340 422.616760,503.986084 422.480927,504.155365 
	C419.725891,503.180542 417.484467,502.387482 415.038239,501.534485 
	C415.038239,501.534485 414.910461,501.363525 414.968506,500.527893 
	C415.024841,497.999939 414.957581,496.064392 411.439423,497.946198 
	C409.764740,498.841980 407.495972,498.626953 405.496307,498.915100 
	C405.244659,498.373657 404.993042,497.832245 404.741394,497.290802 
	C401.633392,500.140320 400.820831,503.877625 401.140015,508.968781 
	C401.135376,513.963013 401.130707,518.957275 400.621643,524.278687 
	C401.108276,524.849426 401.594910,525.420105 402.282562,526.208435 
	C402.282562,526.208435 402.306091,526.503723 402.173676,527.232300 
	C401.774719,529.060730 401.375763,530.889160 401.052460,532.370972 
	C399.220215,530.836792 398.299530,529.458679 397.156799,529.239807 
	C395.011322,528.828918 392.715942,528.896912 390.525452,529.143555 
	C389.299805,529.281555 388.159546,530.178040 386.251801,530.921082 
	C385.505035,530.878174 384.758301,530.835266 383.829102,530.091248 
	C380.459473,530.384155 376.579559,529.771240 373.896271,531.282715 
	C372.050842,532.322205 371.865356,536.308533 371.025024,539.782166 
	C371.002197,540.859802 370.979401,541.937378 370.430389,543.470215 
M291.738983,461.020020 
	C299.163269,458.331604 301.513916,455.850220 300.851562,448.250793 
	C300.227020,441.085602 303.221161,435.998322 307.284088,430.728790 
	C320.084473,414.126953 332.667847,397.356659 345.235382,380.576843 
	C351.619232,372.053345 349.313629,365.315277 339.039581,362.144775 
	C317.132812,355.384552 295.175659,348.784515 273.328857,341.836761 
	C270.601990,340.969513 267.763031,338.866852 266.085846,336.537506 
	C252.379181,317.501251 238.982681,298.242126 225.388947,279.123932 
	C220.343307,272.027740 212.830566,272.083984 207.782623,279.125122 
	C203.712128,284.802856 199.782867,290.581818 195.787628,296.313538 
	C191.088318,303.055359 191.215988,306.078796 196.199295,312.905121 
	C194.865082,315.331604 193.595734,317.796692 192.180389,320.174896 
	C190.370331,323.216370 188.442581,326.187805 185.882751,329.038239 
	C178.181412,325.480133 175.074234,326.446228 169.591171,333.028351 
	C166.940643,336.210205 163.950729,340.118591 160.327438,341.315552 
	C138.248398,348.609467 115.951431,355.245758 93.709343,362.043121 
	C84.175201,364.956818 81.745918,371.952484 87.692223,379.896484 
	C101.654724,398.549866 115.718719,417.128021 129.543716,435.882507 
	C131.073563,437.957825 132.064804,440.983917 132.046494,443.560120 
	C131.881943,466.705139 131.443375,489.848267 131.068329,512.991699 
	C130.891098,523.928467 136.641083,528.261963 147.049896,524.722107 
	C168.447235,517.445129 189.820724,510.095428 211.138824,502.590393 
	C214.969009,501.242004 218.331619,501.273376 222.163589,502.605225 
	C244.130600,510.240173 266.145325,517.741638 288.209137,525.092346 
	C296.727295,527.930176 301.786224,524.117920 301.945770,515.085876 
	C302.072266,507.926910 302.052460,500.763397 301.972351,493.603302 
	C301.881256,485.463104 299.121338,482.485291 291.252014,480.770599 
	C291.171509,474.250916 291.091034,467.731232 291.738983,461.020020 
M314.928711,229.449966 
	C332.323090,211.051025 349.723602,192.657913 367.110413,174.251831 
	C393.878540,145.914474 420.664459,117.593826 447.375549,89.202797 
	C452.361633,83.903137 452.492432,77.852875 448.125458,73.721985 
	C443.649658,69.488136 438.039398,70.145210 432.854492,75.628693 
	C383.181091,128.162888 333.518951,180.707764 283.861511,233.257065 
	C277.340698,240.157623 270.778717,247.022446 264.397797,254.050873 
	C260.205139,258.669006 260.167328,264.043884 263.921295,267.967590 
	C267.719055,271.937042 273.828979,271.984100 278.335327,268.037018 
	C279.334686,267.161652 280.239563,266.174438 281.153900,265.206604 
	C292.250153,253.460693 303.340057,241.708801 314.928711,229.449966 
M382.870483,423.370453 
	C417.487091,388.744843 452.107758,354.123322 486.715942,319.489288 
	C491.926941,314.274384 492.435730,308.466644 488.148376,304.085907 
	C483.820038,299.663300 477.921600,299.997131 472.781525,305.132629 
	C430.248993,347.627563 387.732422,390.138489 345.234711,432.668213 
	C340.002167,437.904694 339.605194,443.654449 343.977692,448.023438 
	C348.328308,452.370575 354.270813,451.928253 359.394867,446.821014 
	C367.061890,439.179138 374.700745,431.509003 382.870483,423.370453 
M223.174347,184.673904 
	C203.875427,203.988434 184.596283,223.322800 165.256973,242.596802 
	C162.242661,245.600967 159.705154,249.096420 161.469543,253.163132 
	C162.717346,256.039154 165.436554,258.950470 168.243378,260.317871 
	C172.409973,262.347717 176.169998,260.034760 179.344482,256.852203 
	C204.505905,231.626678 229.717773,206.451462 254.909973,181.256607 
	C265.739410,170.425995 276.608307,159.634140 287.359985,148.726791 
	C292.062317,143.956360 292.237823,138.320419 288.148682,134.088684 
	C283.959076,129.752945 278.155487,130.007156 273.141632,134.752396 
	C272.537354,135.324326 271.958252,135.922974 271.369385,136.511108 
	C255.466156,152.393921 239.563187,168.277008 223.174347,184.673904 
M431.687317,226.186493 
	C416.149353,241.720016 400.589508,257.231750 385.085846,272.799377 
	C379.957367,277.949036 379.652313,283.865051 384.097595,288.163116 
	C388.383850,292.307434 394.245697,291.946594 399.149963,287.050079 
	C428.475403,257.771057 457.781311,228.472427 487.061676,199.148346 
	C491.978058,194.224625 492.324249,188.393402 488.168182,184.094757 
	C483.874939,179.654205 477.894012,179.999924 472.794830,185.085281 
	C459.241760,198.601669 445.721436,212.150879 431.687317,226.186493 
M85.187569,201.852585 
	C87.120644,204.787628 89.976341,207.488525 90.793060,210.706863 
	C92.449524,217.234238 95.455421,220.847198 101.078148,220.856094 
	C106.573975,220.864777 109.853180,217.617615 110.978287,211.052719 
	C112.127464,204.347397 114.665939,201.877869 121.327133,200.985016 
	C127.113464,200.209412 130.649475,196.629822 130.904633,191.289459 
	C131.152573,186.100235 127.571854,182.053955 121.889626,181.102325 
	C114.132317,179.803192 112.437263,178.094055 110.909515,170.030838 
	C109.878601,164.589828 106.275879,161.352798 101.045898,161.168427 
	C96.473190,161.007217 91.946930,164.029831 91.472519,168.793243 
	C90.678688,176.763855 86.707779,180.490509 78.877869,181.533188 
	C73.643341,182.230255 70.881126,186.588074 71.133713,191.610184 
	C71.366524,196.239120 74.578125,199.789871 79.527626,200.797714 
	C81.151459,201.128357 82.807625,201.300201 85.187569,201.852585 
M547.542114,391.757080 
	C543.515076,393.287567 541.773987,396.424103 541.103271,400.499817 
	C539.874634,407.964996 537.936890,409.767914 530.214539,411.087891 
	C524.751953,412.021606 521.289673,415.707611 521.150696,420.737305 
	C521.007263,425.926544 524.475159,429.811920 530.185791,430.860138 
	C538.111877,432.315094 539.601990,433.835724 541.125366,442.024628 
	C542.171326,447.647186 546.204956,451.118988 551.456482,450.916626 
	C556.474365,450.723267 560.027405,447.244965 560.911133,441.660858 
	C562.053345,434.443207 564.254700,432.150513 571.191895,430.953766 
	C577.394775,429.883698 580.963379,426.168884 580.884827,420.863892 
	C580.805176,415.486359 577.138916,411.827118 570.954163,410.952148 
	C564.647949,410.059967 561.858948,407.324982 560.963013,401.154541 
	C559.861389,393.568024 555.940979,390.577087 547.542114,391.757080 
M521.406616,258.265961 
	C520.222290,263.283691 521.891418,267.165253 526.299500,269.706573 
	C530.528931,272.144928 534.791260,271.302460 538.937500,267.192688 
	C549.938171,256.288605 560.883362,245.328232 571.801758,234.341644 
	C576.994751,229.116226 577.409119,223.289017 573.050781,218.959885 
	C568.693298,214.631622 562.834473,215.064606 557.661133,220.208755 
	C547.031372,230.778564 536.414673,241.361877 525.871704,252.017914 
	C524.263245,253.643646 523.078003,255.688065 521.406616,258.265961 
M129.685181,278.179626 
	C127.588310,280.312897 125.336266,282.316956 123.428581,284.607758 
	C120.014587,288.707367 120.219002,294.141296 123.683884,297.756989 
	C127.374611,301.608337 133.131104,302.248230 137.194489,298.708099 
	C141.319397,295.114288 145.229691,291.211395 148.817627,287.082123 
	C152.220428,283.165924 151.623550,277.569611 148.003372,273.962463 
	C144.240707,270.213287 138.680588,269.981567 134.474030,273.502380 
	C132.948959,274.778809 131.606705,276.273621 129.685181,278.179626 
M369.014221,291.186188 
	C363.999969,295.416199 358.744110,299.396759 354.042999,303.950043 
	C349.787109,308.072113 349.963623,313.816681 353.741516,317.795746 
	C357.651642,321.914215 363.496613,322.106537 367.997192,318.033752 
	C371.195679,315.139313 374.136688,311.961700 377.221832,308.940277 
	C380.608551,305.623566 382.088257,301.801910 380.150635,297.222260 
	C378.236786,292.698792 374.639801,290.798248 369.014221,291.186188 
M327.899750,43.571255 
	C324.391449,40.378826 320.356598,40.097507 316.312042,42.044071 
	C312.366669,43.942898 310.536316,47.243290 310.935669,51.817245 
	C311.224579,55.126419 310.971527,58.479622 311.054413,61.810841 
	C311.185059,67.060188 315.281433,70.912819 320.749237,71.017914 
	C326.476501,71.127991 330.809631,67.276283 330.957733,61.812656 
	C331.061554,57.982410 331.288025,54.117664 330.896057,50.326603 
	C330.676117,48.199326 329.309753,46.190575 327.899750,43.571255 
M284.121033,88.447624 
	C289.162720,92.960693 295.273163,90.651649 300.914307,90.894569 
	C306.752319,91.145973 311.679169,86.114563 311.684357,80.668823 
	C311.688934,75.838791 306.414856,71.130257 300.816437,71.021629 
	C297.818604,70.963463 294.798340,71.216568 291.824951,70.937698 
	C287.249054,70.508560 283.930695,72.357895 282.050354,76.299911 
	C280.131226,80.323341 280.334869,84.385803 284.121033,88.447624 
M328.463959,94.133125 
	C325.011444,90.641907 320.933899,89.967125 316.580048,91.943054 
	C312.353485,93.861198 310.550568,97.276657 310.965637,102.017609 
	C311.240295,105.154716 311.099762,108.340561 310.972504,111.497627 
	C310.769714,116.527863 313.826752,119.183235 317.951324,120.661453 
	C322.429474,122.266388 328.037903,120.541313 329.511597,116.257469 
	C331.931793,109.222359 332.599823,101.804855 328.463959,94.133125 
M340.902344,71.018898 
	C334.411102,71.597160 330.706055,75.540062 330.981934,81.576134 
	C331.241974,87.264595 335.298981,90.894165 341.558960,90.984215 
	C344.877655,91.031960 348.199005,91.073677 351.516327,90.996582 
	C357.177338,90.865028 360.935669,86.900131 360.983673,81.128326 
	C361.033783,75.103401 357.243774,71.115913 351.275421,71.002007 
	C348.123352,70.941841 344.968994,71.003403 340.902344,71.018898 
M481.332123,100.491463 
	C480.039520,100.771164 478.602844,100.780891 477.480469,101.379677 
	C473.653931,103.421135 470.846832,106.104012 470.962677,111.048546 
	C471.075897,115.883179 473.602844,118.815483 477.603760,120.673294 
	C481.878143,122.658066 485.390076,120.740692 488.372650,117.751404 
	C494.152649,111.958382 491.306946,104.294380 481.332123,100.491463 
M90.806549,298.207703 
	C90.554581,297.596222 90.373627,296.942596 90.039635,296.379791 
	C86.795197,290.912323 80.004143,289.246490 75.100555,292.692505 
	C70.744644,295.753632 69.422424,302.940002 72.502731,306.811981 
	C77.041260,312.516968 83.469597,313.287018 88.133820,307.916931 
	C90.004173,305.763489 90.052612,302.027618 90.806549,298.207703 
M200.515320,174.587540 
	C200.657486,172.785782 201.516235,170.596512 200.794510,169.261917 
	C199.230865,166.370407 197.329758,162.572662 194.689377,161.646469 
	C191.826508,160.642242 187.483734,161.644547 184.658524,163.279221 
	C180.710266,165.563690 179.751190,170.264526 181.611740,174.268539 
	C182.853119,176.940079 185.628937,179.874741 188.321106,180.682999 
	C193.197952,182.147141 197.842316,180.660248 200.515320,174.587540 
M100.358253,444.511139 
	C101.557022,437.929321 99.678963,433.758118 94.632217,431.793243 
	C90.027817,430.000610 85.260330,431.439819 82.789795,435.368347 
	C79.792831,440.133972 80.844360,446.294769 85.145012,449.167236 
	C90.283859,452.599518 95.893562,451.112183 100.358253,444.511139 
M542.992798,190.762894 
	C547.784668,189.592712 550.498535,186.446625 550.842590,181.639786 
	C551.134338,177.564255 549.673401,174.052063 545.663879,172.224243 
	C541.511108,170.331100 537.623413,170.629990 534.092957,173.831406 
	C530.626038,176.975281 530.323486,180.912399 531.784668,184.828476 
	C533.501831,189.430679 537.385559,191.155594 542.992798,190.762894 
M460.548981,460.858246 
	C462.850830,460.089478 465.515167,459.814850 467.378510,458.448212 
	C471.163971,455.671844 471.959747,450.324951 469.791046,446.311432 
	C467.607910,442.271301 462.757355,440.197174 458.317322,441.405334 
	C454.011749,442.576935 451.044617,446.517456 451.096832,450.994507 
	C451.157257,456.176422 454.178589,459.607086 460.548981,460.858246 
M223.037033,71.203598 
	C218.264282,70.594521 213.883179,72.033913 212.368347,76.535439 
	C211.349091,79.564285 211.750275,83.846039 213.185196,86.739502 
	C215.205032,90.812462 219.670700,91.799362 224.050583,90.469498 
	C228.276199,89.186478 230.699570,85.919212 230.901352,81.588715 
	C231.134216,76.590820 228.574844,73.099464 223.037033,71.203598 
M224.789490,553.151917 
	C220.786667,557.698120 219.950592,562.176697 222.547577,566.230469 
	C224.931198,569.951172 228.636917,572.147949 232.716553,570.513672 
	C235.759277,569.294678 238.965073,566.626587 240.412369,563.754395 
	C242.192261,560.222107 240.787338,556.080200 237.483551,553.461731 
	C233.773224,550.521057 229.605240,550.170532 224.789490,553.151917 
M584.596191,301.474396 
	C580.117065,300.475372 575.435608,300.549561 573.143799,304.877380 
	C571.629089,307.737793 571.133423,311.918640 571.948425,315.048157 
	C573.158447,319.694305 577.358398,321.423706 582.173767,320.963623 
	C586.625305,320.538269 589.522034,318.046600 590.716125,313.832642 
	C592.154053,308.757751 590.450378,305.210175 584.596191,301.474396 
M420.294128,175.620895 
	C420.566742,175.013809 420.938599,174.431320 421.096313,173.795715 
	C422.360870,168.699615 419.987488,163.540512 415.573944,161.705399 
	C410.616333,159.644089 404.478943,161.302475 402.272125,165.299667 
	C399.765900,169.839325 400.710632,176.230484 404.306030,179.059021 
	C408.854401,182.637253 413.786377,182.282669 418.168243,178.049347 
	C418.766449,177.471420 419.318146,176.845352 420.294128,175.620895 
M460.991577,531.804688 
	C460.718781,531.042908 460.446014,530.281067 460.173248,529.519287 
	C459.804413,529.589172 459.435577,529.659058 459.066742,529.728943 
	C459.180939,531.950073 459.295105,534.171265 459.409271,536.392456 
	C459.828430,536.379700 460.247589,536.367004 460.666748,536.354248 
	C460.776886,535.106018 460.887054,533.857727 460.991577,531.804688 
M397.473083,559.696289 
	C396.510498,559.593689 395.547882,559.491028 394.585297,559.388428 
	C394.606812,559.850281 394.628326,560.312134 394.649841,560.774048 
	C395.588409,560.633911 396.526978,560.493774 397.473083,559.696289 
M414.632050,585.085999 
	C414.881714,585.661011 415.131409,586.236084 415.381073,586.811096 
	C415.859222,586.331421 416.337372,585.851685 416.815521,585.371948 
	C416.241730,585.121582 415.667969,584.871216 414.632050,585.085999 
M425.904236,498.269897 
	C425.959045,498.768097 426.013885,499.266296 426.068695,499.764496 
	C426.514771,499.649902 426.960846,499.535309 427.406921,499.420715 
	C427.105042,498.995392 426.803131,498.570038 425.904236,498.269897 
M370.202972,530.609741 
	C370.207214,530.214722 370.211456,529.819763 370.215729,529.424744 
	C370.051819,529.423157 369.745483,529.410645 369.744629,529.421631 
	C369.714294,529.814758 369.712494,530.210022 370.202972,530.609741 
M419.704987,498.566223 
	C419.989685,498.294525 420.274384,498.022858 420.559052,497.751160 
	C420.446350,497.633392 420.241943,497.406952 420.234253,497.413452 
	C419.933990,497.666992 419.651703,497.941772 419.704987,498.566223 
M369.704712,560.566467 
	C369.989532,560.294678 370.274323,560.022827 370.559143,559.751038 
	C370.446411,559.633240 370.241943,559.406738 370.234253,559.413269 
	C369.933899,559.666931 369.651489,559.941711 369.704712,560.566467 
z"/>
<path fill="#FDD270" opacity="1.000000" stroke="none" 
	d="
M186.565552,329.189453 
	C188.442581,326.187805 190.370331,323.216370 192.180389,320.174896 
	C193.595734,317.796692 194.865082,315.331604 196.640442,312.653473 
	C208.461746,318.192230 211.002762,307.366699 216.689484,301.703674 
	C217.811707,303.107819 218.897736,304.335083 219.839203,305.664734 
	C230.523376,320.754303 241.272324,335.799347 251.798141,350.998871 
	C254.784714,355.311554 258.302826,358.175049 263.465088,359.644409 
	C273.851227,362.600708 284.077850,366.117523 294.192932,369.770386 
	C288.710999,384.788879 282.428345,398.902618 273.332764,411.723053 
	C265.354004,422.969299 256.844238,433.594208 246.150253,442.442413 
	C231.863571,454.263153 216.419418,463.939240 199.030487,470.612244 
	C183.773224,476.467194 168.149704,480.217834 151.729095,480.572815 
	C151.913696,466.634125 152.062439,453.153748 152.552277,439.685730 
	C152.733475,434.703247 151.154068,430.741608 148.179672,426.856415 
	C136.654022,411.801178 125.316704,396.601685 113.935135,381.436462 
	C113.180534,380.431000 112.641533,379.263763 111.833382,377.883301 
	C113.389107,377.221863 114.543770,376.609283 115.770317,376.227905 
	C131.954697,371.196014 148.000626,365.617981 164.397507,361.408722 
	C174.046005,358.931824 180.341736,353.679474 185.585083,345.635529 
	C189.286041,339.957794 190.524429,334.938904 186.565552,329.189453 
z"/>
<path fill="#3B264C" opacity="1.000000" stroke="none" 
	d="
M186.224152,329.113831 
	C190.524429,334.938904 189.286041,339.957794 185.585083,345.635529 
	C180.341736,353.679474 174.046005,358.931824 164.397507,361.408722 
	C148.000626,365.617981 131.954697,371.196014 115.770317,376.227905 
	C114.543770,376.609283 113.389107,377.221863 111.833382,377.883301 
	C112.641533,379.263763 113.180534,380.431000 113.935135,381.436462 
	C125.316704,396.601685 136.654022,411.801178 148.179672,426.856415 
	C151.154068,430.741608 152.733475,434.703247 152.552277,439.685730 
	C152.062439,453.153748 151.913696,466.634125 151.516220,480.913269 
	C151.402802,488.126160 151.402802,494.535400 151.402802,501.272400 
	C153.097870,501.012054 154.445389,501.000031 155.658096,500.589600 
	C173.620224,494.510132 191.488495,488.136688 209.570343,482.440186 
	C213.713043,481.135071 218.904739,481.016571 223.047699,482.251190 
	C236.272049,486.191986 249.221375,491.051971 262.294769,495.504547 
	C268.663818,497.673737 275.072510,499.726501 282.126160,502.050446 
	C282.126160,498.137817 282.064697,495.161469 282.138885,492.188446 
	C282.296021,485.889465 284.794495,483.013184 291.164764,481.657898 
	C299.121338,482.485291 301.881256,485.463104 301.972351,493.603302 
	C302.052460,500.763397 302.072266,507.926910 301.945770,515.085876 
	C301.786224,524.117920 296.727295,527.930176 288.209137,525.092346 
	C266.145325,517.741638 244.130600,510.240173 222.163589,502.605225 
	C218.331619,501.273376 214.969009,501.242004 211.138824,502.590393 
	C189.820724,510.095428 168.447235,517.445129 147.049896,524.722107 
	C136.641083,528.261963 130.891098,523.928467 131.068329,512.991699 
	C131.443375,489.848267 131.881943,466.705139 132.046494,443.560120 
	C132.064804,440.983917 131.073563,437.957825 129.543716,435.882507 
	C115.718719,417.128021 101.654724,398.549866 87.692223,379.896484 
	C81.745918,371.952484 84.175201,364.956818 93.709343,362.043121 
	C115.951431,355.245758 138.248398,348.609467 160.327438,341.315552 
	C163.950729,340.118591 166.940643,336.210205 169.591171,333.028351 
	C175.074234,326.446228 178.181412,325.480133 186.224152,329.113831 
z"/>
<path fill="#F8A639" opacity="1.000000" stroke="none" 
	d="
M291.208374,481.214233 
	C284.794495,483.013184 282.296021,485.889465 282.138885,492.188446 
	C282.064697,495.161469 282.126160,498.137817 282.126160,502.050446 
	C275.072510,499.726501 268.663818,497.673737 262.294769,495.504547 
	C249.221375,491.051971 236.272049,486.191986 223.047699,482.251190 
	C218.904739,481.016571 213.713043,481.135071 209.570343,482.440186 
	C191.488495,488.136688 173.620224,494.510132 155.658096,500.589600 
	C154.445389,501.000031 153.097870,501.012054 151.402802,501.272400 
	C151.402802,494.535400 151.402802,488.126160 151.615692,481.376465 
	C168.149704,480.217834 183.773224,476.467194 199.030487,470.612244 
	C216.419418,463.939240 231.863571,454.263153 246.150253,442.442413 
	C256.844238,433.594208 265.354004,422.969299 273.332764,411.723053 
	C282.428345,398.902618 288.710999,384.788879 294.580688,369.823242 
	C303.925751,372.128143 312.705719,374.747467 322.198273,377.579376 
	C320.507080,380.009460 319.612213,381.383392 318.630524,382.692230 
	C309.243622,395.207764 300.340057,408.131683 290.277313,420.078918 
	C283.036469,428.675812 279.798706,437.637299 280.862671,448.769287 
	C281.608490,456.572418 283.261414,459.378998 291.010559,461.211548 
	C291.091034,467.731232 291.171509,474.250916 291.208374,481.214233 
z"/>
<path fill="#3B264C" opacity="1.000000" stroke="none" 
	d="
M291.374756,461.115784 
	C283.261414,459.378998 281.608490,456.572418 280.862671,448.769287 
	C279.798706,437.637299 283.036469,428.675812 290.277313,420.078918 
	C300.340057,408.131683 309.243622,395.207764 318.630524,382.692230 
	C319.612213,381.383392 320.507080,380.009460 322.198273,377.579376 
	C312.705719,374.747467 303.925751,372.128143 294.758026,369.455933 
	C284.077850,366.117523 273.851227,362.600708 263.465088,359.644409 
	C258.302826,358.175049 254.784714,355.311554 251.798141,350.998871 
	C241.272324,335.799347 230.523376,320.754303 219.839203,305.664734 
	C218.897736,304.335083 217.811707,303.107819 216.689484,301.703674 
	C211.002762,307.366699 208.461746,318.192230 196.774902,312.316589 
	C191.215988,306.078796 191.088318,303.055359 195.787628,296.313538 
	C199.782867,290.581818 203.712128,284.802856 207.782623,279.125122 
	C212.830566,272.083984 220.343307,272.027740 225.388947,279.123932 
	C238.982681,298.242126 252.379181,317.501251 266.085846,336.537506 
	C267.763031,338.866852 270.601990,340.969513 273.328857,341.836761 
	C295.175659,348.784515 317.132812,355.384552 339.039581,362.144775 
	C349.313629,365.315277 351.619232,372.053345 345.235382,380.576843 
	C332.667847,397.356659 320.084473,414.126953 307.284088,430.728790 
	C303.221161,435.998322 300.227020,441.085602 300.851562,448.250793 
	C301.513916,455.850220 299.163269,458.331604 291.374756,461.115784 
z"/>
<path fill="#6C589B" opacity="1.000000" stroke="none" 
	d="
M314.680176,229.704208 
	C303.340057,241.708801 292.250153,253.460693 281.153900,265.206604 
	C280.239563,266.174438 279.334686,267.161652 278.335327,268.037018 
	C273.828979,271.984100 267.719055,271.937042 263.921295,267.967590 
	C260.167328,264.043884 260.205139,258.669006 264.397797,254.050873 
	C270.778717,247.022446 277.340698,240.157623 283.861511,233.257065 
	C333.518951,180.707764 383.181091,128.162888 432.854492,75.628693 
	C438.039398,70.145210 443.649658,69.488136 448.125458,73.721985 
	C452.492432,77.852875 452.361633,83.903137 447.375549,89.202797 
	C420.664459,117.593826 393.878540,145.914474 367.110413,174.251831 
	C349.723602,192.657913 332.323090,211.051025 314.680176,229.704208 
z"/>
<path fill="#6D599B" opacity="1.000000" stroke="none" 
	d="
M382.611023,423.610657 
	C374.700745,431.509003 367.061890,439.179138 359.394867,446.821014 
	C354.270813,451.928253 348.328308,452.370575 343.977692,448.023438 
	C339.605194,443.654449 340.002167,437.904694 345.234711,432.668213 
	C387.732422,390.138489 430.248993,347.627563 472.781525,305.132629 
	C477.921600,299.997131 483.820038,299.663300 488.148376,304.085907 
	C492.435730,308.466644 491.926941,314.274384 486.715942,319.489288 
	C452.107758,354.123322 417.487091,388.744843 382.611023,423.610657 
z"/>
<path fill="#6D599B" opacity="1.000000" stroke="none" 
	d="
M223.417252,184.416962 
	C239.563187,168.277008 255.466156,152.393921 271.369385,136.511108 
	C271.958252,135.922974 272.537354,135.324326 273.141632,134.752396 
	C278.155487,130.007156 283.959076,129.752945 288.148682,134.088684 
	C292.237823,138.320419 292.062317,143.956360 287.359985,148.726791 
	C276.608307,159.634140 265.739410,170.425995 254.909973,181.256607 
	C229.717773,206.451462 204.505905,231.626678 179.344482,256.852203 
	C176.169998,260.034760 172.409973,262.347717 168.243378,260.317871 
	C165.436554,258.950470 162.717346,256.039154 161.469543,253.163132 
	C159.705154,249.096420 162.242661,245.600967 165.256973,242.596802 
	C184.596283,223.322800 203.875427,203.988434 223.417252,184.416962 
z"/>
<path fill="#6D599C" opacity="1.000000" stroke="none" 
	d="
M431.937714,225.936768 
	C445.721436,212.150879 459.241760,198.601669 472.794830,185.085281 
	C477.894012,179.999924 483.874939,179.654205 488.168182,184.094757 
	C492.324249,188.393402 491.978058,194.224625 487.061676,199.148346 
	C457.781311,228.472427 428.475403,257.771057 399.149963,287.050079 
	C394.245697,291.946594 388.383850,292.307434 384.097595,288.163116 
	C379.652313,283.865051 379.957367,277.949036 385.085846,272.799377 
	C400.589508,257.231750 416.149353,241.720016 431.937714,225.936768 
z"/>
<path fill="#F99112" opacity="1.000000" stroke="none" 
	d="
M84.818283,201.698639 
	C82.807625,201.300201 81.151459,201.128357 79.527626,200.797714 
	C74.578125,199.789871 71.366524,196.239120 71.133713,191.610184 
	C70.881126,186.588074 73.643341,182.230255 78.877869,181.533188 
	C86.707779,180.490509 90.678688,176.763855 91.472519,168.793243 
	C91.946930,164.029831 96.473190,161.007217 101.045898,161.168427 
	C106.275879,161.352798 109.878601,164.589828 110.909515,170.030838 
	C112.437263,178.094055 114.132317,179.803192 121.889626,181.102325 
	C127.571854,182.053955 131.152573,186.100235 130.904633,191.289459 
	C130.649475,196.629822 127.113464,200.209412 121.327133,200.985016 
	C114.665939,201.877869 112.127464,204.347397 110.978287,211.052719 
	C109.853180,217.617615 106.573975,220.864777 101.078148,220.856094 
	C95.455421,220.847198 92.449524,217.234238 90.793060,210.706863 
	C89.976341,207.488525 87.120644,204.787628 84.818283,201.698639 
z"/>
<path fill="#F97810" opacity="1.000000" stroke="none" 
	d="
M547.911865,391.618408 
	C555.940979,390.577087 559.861389,393.568024 560.963013,401.154541 
	C561.858948,407.324982 564.647949,410.059967 570.954163,410.952148 
	C577.138916,411.827118 580.805176,415.486359 580.884827,420.863892 
	C580.963379,426.168884 577.394775,429.883698 571.191895,430.953766 
	C564.254700,432.150513 562.053345,434.443207 560.911133,441.660858 
	C560.027405,447.244965 556.474365,450.723267 551.456482,450.916626 
	C546.204956,451.118988 542.171326,447.647186 541.125366,442.024628 
	C539.601990,433.835724 538.111877,432.315094 530.185791,430.860138 
	C524.475159,429.811920 521.007263,425.926544 521.150696,420.737305 
	C521.289673,415.707611 524.751953,412.021606 530.214539,411.087891 
	C537.936890,409.767914 539.874634,407.964996 541.103271,400.499817 
	C541.773987,396.424103 543.515076,393.287567 547.911865,391.618408 
z"/>
<path fill="#6E5A9B" opacity="1.000000" stroke="none" 
	d="
M521.551880,257.902405 
	C523.078003,255.688065 524.263245,253.643646 525.871704,252.017914 
	C536.414673,241.361877 547.031372,230.778564 557.661133,220.208755 
	C562.834473,215.064606 568.693298,214.631622 573.050781,218.959885 
	C577.409119,223.289017 576.994751,229.116226 571.801758,234.341644 
	C560.883362,245.328232 549.938171,256.288605 538.937500,267.192688 
	C534.791260,271.302460 530.528931,272.144928 526.299500,269.706573 
	C521.891418,267.165253 520.222290,263.283691 521.551880,257.902405 
z"/>
<path fill="#FCFAF0" opacity="1.000000" stroke="none" 
	d="
M401.042236,558.008179 
	C400.288635,556.773132 399.679901,555.413818 398.750305,554.329712 
	C396.996674,552.284546 395.186584,550.684082 392.875183,553.997986 
	C392.190094,554.980164 390.084686,556.056763 389.367676,555.681396 
	C388.245361,555.093750 387.750671,553.307373 387.398132,551.548340 
	C389.750641,550.815002 391.753448,550.776245 393.627838,550.265869 
	C397.879944,549.108154 401.018402,545.969055 400.594208,541.844910 
	C400.255676,538.553528 397.991364,534.847046 395.453857,532.596985 
	C393.564270,530.921387 389.870850,531.280090 386.980835,530.732788 
	C388.159546,530.178040 389.299805,529.281555 390.525452,529.143555 
	C392.715942,528.896912 395.011322,528.828918 397.156799,529.239807 
	C398.299530,529.458679 399.220215,530.836792 401.052460,532.370972 
	C401.375763,530.889160 401.774719,529.060730 402.549255,527.036987 
	C409.743134,532.702820 417.525360,531.848572 419.862122,524.449402 
	C422.037140,517.562317 422.956024,506.746735 415.243073,501.594421 
	C417.484467,502.387482 419.725891,503.180542 422.480927,504.155365 
	C422.616760,503.986084 423.258392,503.186340 424.534668,501.595612 
	C425.314789,505.831207 427.568695,510.152161 426.263397,512.460022 
	C422.282227,519.498901 426.552185,524.614075 428.616180,530.929321 
	C422.851532,534.076111 420.381805,537.847107 421.341278,542.516785 
	C422.437012,547.849609 426.476837,550.908386 432.563263,551.044128 
	C434.049286,551.077332 435.533569,551.187866 437.018646,551.262878 
	C437.548798,553.277527 438.078918,555.292175 438.797272,558.022034 
	C435.794250,556.351257 433.153687,555.363708 431.849243,559.825195 
	C430.444763,558.043579 429.682373,557.076477 428.180450,555.171204 
	C426.299133,557.427795 424.026978,559.170349 423.202606,561.439087 
	C422.485962,563.411438 423.190643,566.021790 423.642426,568.274902 
	C425.129486,575.691162 421.994293,580.427795 414.776428,582.312012 
	C411.727539,583.107849 408.962616,584.980896 406.055389,586.335876 
	C404.952179,586.849976 403.811768,587.284302 402.117462,587.024292 
	C403.334076,585.410400 404.550690,583.796448 405.767273,582.182556 
	C405.285126,582.305542 404.802948,582.428589 404.320801,582.551636 
	C403.066772,579.824646 401.812775,577.097656 401.105072,574.379761 
	C405.759094,580.609497 410.221375,582.416626 415.307434,579.688843 
	C421.863159,576.172729 420.963104,569.828308 421.065460,563.890686 
	C421.151062,558.925415 419.905548,554.617065 415.092621,552.215576 
	C409.962280,549.655762 406.344788,551.193115 401.042236,558.008179 
z"/>
<path fill="#6E5A9B" opacity="1.000000" stroke="none" 
	d="
M129.933105,277.924194 
	C131.606705,276.273621 132.948959,274.778809 134.474030,273.502380 
	C138.680588,269.981567 144.240707,270.213287 148.003372,273.962463 
	C151.623550,277.569611 152.220428,283.165924 148.817627,287.082123 
	C145.229691,291.211395 141.319397,295.114288 137.194489,298.708099 
	C133.131104,302.248230 127.374611,301.608337 123.683884,297.756989 
	C120.219002,294.141296 120.014587,288.707367 123.428581,284.607758 
	C125.336266,282.316956 127.588310,280.312897 129.933105,277.924194 
z"/>
<path fill="#6E5B9B" opacity="1.000000" stroke="none" 
	d="
M369.412384,291.128815 
	C374.639801,290.798248 378.236786,292.698792 380.150635,297.222260 
	C382.088257,301.801910 380.608551,305.623566 377.221832,308.940277 
	C374.136688,311.961700 371.195679,315.139313 367.997192,318.033752 
	C363.496613,322.106537 357.651642,321.914215 353.741516,317.795746 
	C349.963623,313.816681 349.787109,308.072113 354.042999,303.950043 
	C358.744110,299.396759 363.999969,295.416199 369.412384,291.128815 
z"/>
<path fill="#FBD579" opacity="1.000000" stroke="none" 
	d="
M328.179810,43.849838 
	C329.309753,46.190575 330.676117,48.199326 330.896057,50.326603 
	C331.288025,54.117664 331.061554,57.982410 330.957733,61.812656 
	C330.809631,67.276283 326.476501,71.127991 320.749237,71.017914 
	C315.281433,70.912819 311.185059,67.060188 311.054413,61.810841 
	C310.971527,58.479622 311.224579,55.126419 310.935669,51.817245 
	C310.536316,47.243290 312.366669,43.942898 316.312042,42.044071 
	C320.356598,40.097507 324.391449,40.378826 328.179810,43.849838 
z"/>
<path fill="#FBD57A" opacity="1.000000" stroke="none" 
	d="
M283.842712,88.170540 
	C280.334869,84.385803 280.131226,80.323341 282.050354,76.299911 
	C283.930695,72.357895 287.249054,70.508560 291.824951,70.937698 
	C294.798340,71.216568 297.818604,70.963463 300.816437,71.021629 
	C306.414856,71.130257 311.688934,75.838791 311.684357,80.668823 
	C311.679169,86.114563 306.752319,91.145973 300.914307,90.894569 
	C295.273163,90.651649 289.162720,92.960693 283.842712,88.170540 
z"/>
<path fill="#FBD579" opacity="1.000000" stroke="none" 
	d="
M328.733307,94.420929 
	C332.599823,101.804855 331.931793,109.222359 329.511597,116.257469 
	C328.037903,120.541313 322.429474,122.266388 317.951324,120.661453 
	C313.826752,119.183235 310.769714,116.527863 310.972504,111.497627 
	C311.099762,108.340561 311.240295,105.154716 310.965637,102.017609 
	C310.550568,97.276657 312.353485,93.861198 316.580048,91.943054 
	C320.933899,89.967125 325.011444,90.641907 328.733307,94.420929 
z"/>
<path fill="#FBD57A" opacity="1.000000" stroke="none" 
	d="
M341.359009,71.014450 
	C344.968994,71.003403 348.123352,70.941841 351.275421,71.002007 
	C357.243774,71.115913 361.033783,75.103401 360.983673,81.128326 
	C360.935669,86.900131 357.177338,90.865028 351.516327,90.996582 
	C348.199005,91.073677 344.877655,91.031960 341.558960,90.984215 
	C335.298981,90.894165 331.241974,87.264595 330.981934,81.576134 
	C330.706055,75.540062 334.411102,71.597160 341.359009,71.014450 
z"/>
<path fill="#F8AB43" opacity="1.000000" stroke="none" 
	d="
M415.140656,501.564453 
	C422.956024,506.746735 422.037140,517.562317 419.862122,524.449402 
	C417.525360,531.848572 409.743134,532.702820 402.615479,526.672668 
	C402.306091,526.503723 402.282562,526.208435 402.189026,525.799316 
	C401.772369,524.910583 401.449219,524.431030 401.126068,523.951477 
	C401.130707,518.957275 401.135376,513.963013 401.383636,508.296356 
	C404.506500,502.251556 409.033691,500.375824 414.910461,501.363525 
	C414.910461,501.363525 415.038239,501.534485 415.140656,501.564453 
z"/>
<path fill="#F8AB43" opacity="1.000000" stroke="none" 
	d="
M437.409363,551.179626 
	C435.533569,551.187866 434.049286,551.077332 432.563263,551.044128 
	C426.476837,550.908386 422.437012,547.849609 421.341278,542.516785 
	C420.381805,537.847107 422.851532,534.076111 428.775330,531.253296 
	C429.446045,530.986328 429.892334,530.974426 431.082214,530.940308 
	C433.555847,530.850647 435.285828,530.783081 437.015808,530.715454 
	C438.076904,530.777344 439.138000,530.839172 440.945312,530.950806 
	C447.981049,533.031372 450.825470,536.197876 450.877716,541.226929 
	C450.927765,546.043640 447.764709,549.250061 440.974945,551.265564 
	C439.916656,551.209167 438.858337,551.152771 437.409363,551.179626 
z"/>
<path fill="#F8AB43" opacity="1.000000" stroke="none" 
	d="
M401.075378,558.473694 
	C406.344788,551.193115 409.962280,549.655762 415.092621,552.215576 
	C419.905548,554.617065 421.151062,558.925415 421.065460,563.890686 
	C420.963104,569.828308 421.863159,576.172729 415.307434,579.688843 
	C410.221375,582.416626 405.759094,580.609497 401.395355,574.180786 
	C401.129059,568.961609 401.118774,563.950378 401.075378,558.473694 
z"/>
<path fill="#F8AA43" opacity="1.000000" stroke="none" 
	d="
M386.616333,530.826904 
	C389.870850,531.280090 393.564270,530.921387 395.453857,532.596985 
	C397.991364,534.847046 400.255676,538.553528 400.594208,541.844910 
	C401.018402,545.969055 397.879944,549.108154 393.627838,550.265869 
	C391.753448,550.776245 389.750641,550.815002 387.393799,551.168823 
	C386.544525,551.222168 386.107605,551.174561 384.936523,551.107117 
	C377.947845,551.414551 373.505463,548.768311 370.956604,543.015015 
	C370.979401,541.937378 371.002197,540.859802 371.245575,539.165283 
	C373.498230,532.485962 378.371338,531.018799 384.011536,530.792358 
	C384.758301,530.835266 385.505035,530.878174 386.616333,530.826904 
z"/>
<path fill="#F7AD4A" opacity="1.000000" stroke="none" 
	d="
M481.697815,100.530380 
	C491.306946,104.294380 494.152649,111.958382 488.372650,117.751404 
	C485.390076,120.740692 481.878143,122.658066 477.603760,120.673294 
	C473.602844,118.815483 471.075897,115.883179 470.962677,111.048546 
	C470.846832,106.104012 473.653931,103.421135 477.480469,101.379677 
	C478.602844,100.780891 480.039520,100.771164 481.697815,100.530380 
z"/>
<path fill="#F9D67C" opacity="1.000000" stroke="none" 
	d="
M90.868439,298.609863 
	C90.052612,302.027618 90.004173,305.763489 88.133820,307.916931 
	C83.469597,313.287018 77.041260,312.516968 72.502731,306.811981 
	C69.422424,302.940002 70.744644,295.753632 75.100555,292.692505 
	C80.004143,289.246490 86.795197,290.912323 90.039635,296.379791 
	C90.373627,296.942596 90.554581,297.596222 90.868439,298.609863 
z"/>
<path fill="#FAD57D" opacity="1.000000" stroke="none" 
	d="
M200.351074,174.949677 
	C197.842316,180.660248 193.197952,182.147141 188.321106,180.682999 
	C185.628937,179.874741 182.853119,176.940079 181.611740,174.268539 
	C179.751190,170.264526 180.710266,165.563690 184.658524,163.279221 
	C187.483734,161.644547 191.826508,160.642242 194.689377,161.646469 
	C197.329758,162.572662 199.230865,166.370407 200.794510,169.261917 
	C201.516235,170.596512 200.657486,172.785782 200.351074,174.949677 
z"/>
<path fill="#F7951F" opacity="1.000000" stroke="none" 
	d="
M100.196075,444.865356 
	C95.893562,451.112183 90.283859,452.599518 85.145012,449.167236 
	C80.844360,446.294769 79.792831,440.133972 82.789795,435.368347 
	C85.260330,431.439819 90.027817,430.000610 94.632217,431.793243 
	C99.678963,433.758118 101.557022,437.929321 100.196075,444.865356 
z"/>
<path fill="#F6951E" opacity="1.000000" stroke="none" 
	d="
M542.593445,190.817993 
	C537.385559,191.155594 533.501831,189.430679 531.784668,184.828476 
	C530.323486,180.912399 530.626038,176.975281 534.092957,173.831406 
	C537.623413,170.629990 541.511108,170.331100 545.663879,172.224243 
	C549.673401,174.052063 551.134338,177.564255 550.842590,181.639786 
	C550.498535,186.446625 547.784668,189.592712 542.593445,190.817993 
z"/>
<path fill="#F5941F" opacity="1.000000" stroke="none" 
	d="
M460.148010,460.837463 
	C454.178589,459.607086 451.157257,456.176422 451.096832,450.994507 
	C451.044617,446.517456 454.011749,442.576935 458.317322,441.405334 
	C462.757355,440.197174 467.607910,442.271301 469.791046,446.311432 
	C471.959747,450.324951 471.163971,455.671844 467.378510,458.448212 
	C465.515167,459.814850 462.850830,460.089478 460.148010,460.837463 
z"/>
<path fill="#F57D1C" opacity="1.000000" stroke="none" 
	d="
M223.426788,71.270111 
	C228.574844,73.099464 231.134216,76.590820 230.901352,81.588715 
	C230.699570,85.919212 228.276199,89.186478 224.050583,90.469498 
	C219.670700,91.799362 215.205032,90.812462 213.185196,86.739502 
	C211.750275,83.846039 211.349091,79.564285 212.368347,76.535439 
	C213.883179,72.033913 218.264282,70.594521 223.426788,71.270111 
z"/>
<path fill="#F69520" opacity="1.000000" stroke="none" 
	d="
M225.093414,552.916504 
	C229.605240,550.170532 233.773224,550.521057 237.483551,553.461731 
	C240.787338,556.080200 242.192261,560.222107 240.412369,563.754395 
	C238.965073,566.626587 235.759277,569.294678 232.716553,570.513672 
	C228.636917,572.147949 224.931198,569.951172 222.547577,566.230469 
	C219.950592,562.176697 220.786667,557.698120 225.093414,552.916504 
z"/>
<path fill="#F9D67C" opacity="1.000000" stroke="none" 
	d="
M584.958984,301.635406 
	C590.450378,305.210175 592.154053,308.757751 590.716125,313.832642 
	C589.522034,318.046600 586.625305,320.538269 582.173767,320.963623 
	C577.358398,321.423706 573.158447,319.694305 571.948425,315.048157 
	C571.133423,311.918640 571.629089,307.737793 573.143799,304.877380 
	C575.435608,300.549561 580.117065,300.475372 584.958984,301.635406 
z"/>
<path fill="#EEA858" opacity="1.000000" stroke="none" 
	d="
M420.092773,175.931244 
	C419.318146,176.845352 418.766449,177.471420 418.168243,178.049347 
	C413.786377,182.282669 408.854401,182.637253 404.306030,179.059021 
	C400.710632,176.230484 399.765900,169.839325 402.272125,165.299667 
	C404.478943,161.302475 410.616333,159.644089 415.573944,161.705399 
	C419.987488,163.540512 422.360870,168.699615 421.096313,173.795715 
	C420.938599,174.431320 420.566742,175.013809 420.092773,175.931244 
M402.962921,171.343018 
	C403.292664,172.448090 403.280853,173.956375 404.017853,174.580612 
	C406.018097,176.274872 408.412292,178.865646 410.508209,178.739578 
	C413.107849,178.583206 416.598572,176.648758 417.875122,174.429947 
	C420.828796,169.295944 418.393829,164.833633 412.617401,162.988632 
	C407.992065,161.511292 404.439758,164.282227 402.962921,171.343018 
z"/>
<path fill="#FCFAF0" opacity="1.000000" stroke="none" 
	d="
M440.989685,551.614380 
	C447.764709,549.250061 450.927765,546.043640 450.877716,541.226929 
	C450.825470,536.197876 447.981049,533.031372 441.338928,530.876892 
	C443.678162,528.662598 449.719055,529.728638 450.875916,532.498413 
	C452.628662,536.694885 452.628693,536.694885 456.198700,537.419678 
	C457.811646,543.464966 454.239990,548.898499 447.290131,550.814148 
	C447.863159,552.643738 448.437225,554.476746 449.011322,556.309753 
	C448.531921,556.708679 448.052521,557.107605 447.573090,557.506531 
	C445.383545,555.658813 443.194000,553.811035 440.989685,551.614380 
z"/>
<path fill="#FCFAF0" opacity="1.000000" stroke="none" 
	d="
M370.693481,543.242615 
	C373.505463,548.768311 377.947845,551.414551 384.615051,551.190186 
	C385.462341,554.270081 385.896881,557.247070 386.497986,561.364868 
	C382.030640,560.085266 377.057037,558.660645 372.083466,557.236023 
	C372.074158,556.652710 372.064850,556.069458 372.055573,555.486145 
	C373.522156,554.739258 374.988770,553.992310 376.455353,553.245422 
	C376.405640,552.827209 376.355927,552.408997 376.306183,551.990845 
	C374.101135,552.211304 371.896057,552.431763 370.430389,552.578247 
	C370.430389,549.406921 370.430389,546.438599 370.693481,543.242615 
z"/>
<path fill="#FCFAF0" opacity="1.000000" stroke="none" 
	d="
M414.939484,500.945709 
	C409.033691,500.375824 404.506500,502.251556 401.367493,507.832031 
	C400.820831,503.877625 401.633392,500.140320 404.741394,497.290802 
	C404.993042,497.832245 405.244659,498.373657 405.496307,498.915100 
	C407.495972,498.626953 409.764740,498.841980 411.439423,497.946198 
	C414.957581,496.064392 415.024841,497.999939 414.939484,500.945709 
z"/>
<path fill="#FCFAF0" opacity="1.000000" stroke="none" 
	d="
M383.920319,530.441772 
	C378.371338,531.018799 373.498230,532.485962 371.202026,538.763123 
	C371.865356,536.308533 372.050842,532.322205 373.896271,531.282715 
	C376.579559,529.771240 380.459473,530.384155 383.920319,530.441772 
z"/>
<path fill="#FCFAF0" opacity="1.000000" stroke="none" 
	d="
M460.994385,532.207092 
	C460.887054,533.857727 460.776886,535.106018 460.666748,536.354248 
	C460.247589,536.367004 459.828430,536.379700 459.409271,536.392456 
	C459.295105,534.171265 459.180939,531.950073 459.066742,529.728943 
	C459.435577,529.659058 459.804413,529.589172 460.173248,529.519287 
	C460.446014,530.281067 460.718781,531.042908 460.994385,532.207092 
z"/>
<path fill="#FCFAF0" opacity="1.000000" stroke="none" 
	d="
M436.926208,530.387329 
	C435.285828,530.783081 433.555847,530.850647 431.400085,530.828613 
	C432.393402,525.899658 434.791931,529.504822 436.926208,530.387329 
z"/>
<path fill="#FCFAF0" opacity="1.000000" stroke="none" 
	d="
M397.469299,560.024963 
	C396.526978,560.493774 395.588409,560.633911 394.649841,560.774048 
	C394.628326,560.312134 394.606812,559.850281 394.585297,559.388428 
	C395.547882,559.491028 396.510498,559.593689 397.469299,560.024963 
z"/>
<path fill="#FCFAF0" opacity="1.000000" stroke="none" 
	d="
M414.863129,584.853394 
	C415.667969,584.871216 416.241730,585.121582 416.815491,585.371948 
	C416.337372,585.851685 415.859222,586.331421 415.381073,586.811096 
	C415.131409,586.236084 414.881714,585.661011 414.863129,584.853394 
z"/>
<path fill="#FCFAF0" opacity="1.000000" stroke="none" 
	d="
M426.202759,498.207306 
	C426.803131,498.570038 427.105042,498.995392 427.406921,499.420715 
	C426.960846,499.535309 426.514771,499.649902 426.068695,499.764496 
	C426.013885,499.266296 425.959045,498.768097 426.202759,498.207306 
z"/>
<path fill="#FCFAF0" opacity="1.000000" stroke="none" 
	d="
M369.954865,530.607422 
	C369.712494,530.210022 369.714294,529.814758 369.744629,529.421631 
	C369.745483,529.410645 370.051819,529.423157 370.215729,529.424744 
	C370.211456,529.819763 370.207214,530.214722 369.954865,530.607422 
z"/>
<path fill="#FCFAF0" opacity="1.000000" stroke="none" 
	d="
M400.873840,524.115112 
	C401.449219,524.431030 401.772369,524.910583 402.088531,525.690491 
	C401.594910,525.420105 401.108276,524.849426 400.873840,524.115112 
z"/>
<path fill="#FCFAF0" opacity="1.000000" stroke="none" 
	d="
M419.536011,498.390015 
	C419.651703,497.941772 419.933990,497.666992 420.234253,497.413452 
	C420.241943,497.406952 420.446350,497.633392 420.559082,497.751160 
	C420.274384,498.022858 419.989685,498.294525 419.536011,498.390015 
z"/>
<path fill="#FCFAF0" opacity="1.000000" stroke="none" 
	d="
M369.535706,560.390137 
	C369.651489,559.941711 369.933899,559.666931 370.234253,559.413269 
	C370.241943,559.406738 370.446411,559.633240 370.559143,559.751038 
	C370.274323,560.022827 369.989532,560.294678 369.535706,560.390137 
z"/>
<path fill="#F98E0C" opacity="1.000000" stroke="none" 
	d="
M402.940369,170.948807 
	C404.439758,164.282227 407.992065,161.511292 412.617401,162.988632 
	C418.393829,164.833633 420.828796,169.295944 417.875122,174.429947 
	C416.598572,176.648758 413.107849,178.583206 410.508209,178.739578 
	C408.412292,178.865646 406.018097,176.274872 404.017853,174.580612 
	C403.280853,173.956375 403.292664,172.448090 402.940369,170.948807 
z"/>
</svg>