<svg id="Layer_1" data-name="Layer 1" xmlns="http://www.w3.org/2000/svg" xmlns:xlink="http://www.w3.org/1999/xlink" viewBox="0 0 419.51 491.35"><defs><style>.cls-1,.cls-10{fill:none;}.cls-2{clip-path:url(#clip-path);}.cls-11,.cls-3{fill:#211e1e;}.cls-4{clip-path:url(#clip-path-2);}.cls-5{fill:#fff;}.cls-6{clip-path:url(#clip-path-3);}.cls-7{fill:#ee2e4f;}.cls-8{clip-path:url(#clip-path-4);}.cls-9{fill:#fddc02;}.cls-10,.cls-11{stroke:#211e1e;stroke-miterlimit:11.34;}.cls-10{stroke-width:0.09px;}.cls-11{stroke-width:0.03px;}</style><clipPath id="clip-path"><rect class="cls-1" width="419.51" height="491.35"/></clipPath><clipPath id="clip-path-2"><rect class="cls-1" y="8.05" width="419.51" height="483.31"/></clipPath><clipPath id="clip-path-3"><rect class="cls-1" y="8.05" width="177.86" height="178.06"/></clipPath><clipPath id="clip-path-4"><rect class="cls-1" y="249.7" width="177.86" height="216.22"/></clipPath></defs><g id="layer1"><g id="g1070"><g class="cls-2"><g id="g133"><path id="path131" class="cls-3" d="M97.08,7.75H321.74L332,7.65h22.86c10.93,0,28.91-.55,54.3-1.59l9.49-.4C417.28,25.34,417,33.09,417,43.52l-.15,30.21-.1,28.61V262.17c0,100.66-22.8,134.84-131.36,188.45-4.82,2.38-60.16,30-65.92,33.08L214,486.63l-5.56,2.89L203,486.63l-5.56-2.93c-22.81-11.92-46-22.45-63.94-31.3C34,403.62,2.14,369,2.14,262.17V102.34l-.3-28.61-.1-30.21C1.64,25.29,1.44,19.38,0,5.66l9.49.4c25,1,43.62,1.59,54.45,1.59H86.65l10.43.1"/></g></g><g class="cls-4"><g id="g137"><path id="path135" class="cls-5" d="M208.47,479.73l42.77-21,1.09-.39-.29-.95V260.68l-.4-1.19,1.34.25H407.74l1.34.39-.4-1.68V175l.4-1.34-1.34.4H253l-1.34.24L252,173V16.49l.29-1.34-1.19.4H166.38l-1.34-.4.4,1.34V173l.3,1.34-1.24-.24H10.93l-1.34-.4L10,175v84.21l-.4.89,1.34-.39H164.5l1.24-.25-.3,1.59V457l-.4,1.59,1.05.3,42.38,20.82"/></g></g><g class="cls-6"><g id="g141"><path id="path139" class="cls-7" d="M11.63,15.55l-2-.4.4,1.49V173.29l-.4,1.19,1.89-.39H164.4l1.29.39-.25-1.34V16.25l.25-1.1-1.29.4H11.63"/></g></g><path id="path143" class="cls-7" d="M253.68,15.55l-1.89-.4.25,1.49V173.29l-.25,1.19,1.74-.39H407.64l1.44.39-.4-1.34V16.25l.4-1.1-1.44.4h-154"/><g class="cls-8"><g id="g147"><path id="path145" class="cls-7" d="M165,259.79H10.53l-.94-.4.4,1v9.34c0,86,28.71,127.83,117.1,170.56L155,453.84l9.74,4.53.79.94-.1-1.34V260.58l.3-1.19-.7.4"/></g></g><path id="path149" class="cls-7" d="M252.83,259.79l-1-.4.25.89V457.42l-.25,1.49,1-1.19,8.84-4c120-56.48,147-90.12,147-183.12v-9.89l.4-1.34-1.34.4-154.91,0"/><path id="path151" class="cls-3" d="M35.13,181.84c.39.44.74.84.94,1,.5.59.84,1,1,1.19s.6.6,1.24,1.24c.2.26.6.6,1,1.05l-.65.54-1.34,1.2-1.09,1.19-.4.45V191c0,10.83,2.83,18.19,8.84,23.05l1.05.9-1.05.69-1.24-.1L41,215.23l-2.24-.4-1.34-.25-1.34,9.64H34.18l-1.34-9.64-1.34.25a15.75,15.75,0,0,1-2.14.4l-2.63.29-1.24.1c-.55,0-1-.21-1-.39s.2-.55.6-.85l2-1.54c1.69-1.29,2.78-2.83,4.72-6.8a11.69,11.69,0,0,0,1.34-4.42c0-2.84.45-5.07.94-5.07l.25-5,.15-1.84-.55-.44-1.09-1.2-1.34-1.19-.5-.55,1-1a21.23,21.23,0,0,0,3.08-3.48"/><path id="path153" class="cls-3" d="M85.8,181.84a18.75,18.75,0,0,0,3.08,3.47c.2.26.6.6,1,1.05l-.54.54L88,188.1,87,189.29l-.64.45.25,1.84.24,5c.4,7,4.33,15.25,8.45,17.48.7.4,1.14.75,1.14.9a.64.64,0,0,1-.64.64l-1.74,0-2.54-.29-2.28-.4-1.29-.25-1.34,9.64H84.86l-1.34-9.64-1.35.25-2.28.4-2.53.29-1.2.1-.2,0c-.54,0-.89-.22-.89-.45a1.18,1.18,0,0,1,.55-.84l2-1.54c1.79-1.34,2.24-2,4.72-6.81a10.94,10.94,0,0,0,1.44-4.42c0-2.83.4-5.06.8-5.06l.3-5,.1-1.84a2.41,2.41,0,0,0-.4-.45l-1.19-1.19L82,186.91l-.5-.54,1-1.05c.64-.64,1-1,1.19-1.24s.59-.59,1.09-1.19c.2-.22.5-.6.94-1"/><path id="path155" class="cls-3" d="M60.51,211.5l1,1.09.94,1.19A6.81,6.81,0,0,0,63.59,215L64.78,216l-.64.54L63,217.81l-1.24,1-.4.55v1.24c0,11.13,2.68,18,8.84,23.05l1,.9-1,.74L69,245.19l-2.58-.26-2.24-.44-1.34-.25-1.34,9.63H59.62l-1.39-9.63-1.34.25-2.24.44-2.53.26-1.25.14h-.1c-.54,0-.94-.21-.94-.45s.25-.49.65-.84l2-1.54c4.28-3.28,7.21-12.22,7.21-21.86V219.4l-.4-.55-1.19-1-1.25-1.24-.64-.55a22.17,22.17,0,0,0,4.27-4.52"/><path id="path157" class="cls-3" d="M111.34,211.5a22.43,22.43,0,0,0,4.27,4.52l-.7.54-1.19,1.25-1.19,1-.4.55,0,1.24c0,7.25,2.14,16,4.57,18.83l2.69,3a8.23,8.23,0,0,0,1.44,1.19l1.24.9-1.1.74-1.19-.14-2.53-.25-2.29-.45-1.34-.25-1.34,9.64h-1.84l-1.34-9.64-1.34.25-2.29.45-2.53.25-1.19.14h-.15c-.5,0-.94-.21-.94-.44s.24-.55.59-.85l1.94-1.54c4.22-3.32,7.35-12.27,7.35-21.86V219.4l-.39-.54-1.2-1.05-1.19-1.24L107,216c.54-.45.94-.8,1.24-1a14.49,14.49,0,0,0,1.19-1.19l.94-1.2,1-1.09"/><path id="path159" class="cls-3" d="M136.72,181.84a20.73,20.73,0,0,0,3,3.47c.24.26.64.6,1.09,1.05l-.55.54L139,188.1l-1,1.19-.55.45.15,1.84.25,5c.39,6.9,4.42,15.35,8.44,17.48.7.4,1.1.75,1.1.9,0,.36-.2.64-.5.64l-1.69,0-2.68-.29a13.61,13.61,0,0,1-2.29-.4L139,214.6l-1.29,9.64h-1.89l-1.34-9.64-1.39.36-2.24.29-2.53.29-1.19.1-.2,0c-.5,0-.9-.22-.9-.45a1.51,1.51,0,0,1,.6-.84l2-1.54c1.73-1.39,2.33-2.23,4.67-6.81a11.34,11.34,0,0,0,1.44-4.42c0-2.83.39-5.06.79-5.06l.3-5,.1-1.84-.4-.45-1.19-1.19-1.19-1.2c-.1-.1-.35-.28-.7-.54.5-.45.85-.8,1.1-1.05.64-.64,1-1,1.19-1.24a10.45,10.45,0,0,0,1.09-1.19c.2-.22.5-.6.95-1"/><path id="path161" class="cls-3" d="M280.9,181.59l1,1.19.94,1c.65.75,1,1.2,1.19,1.34s.65.6,1.19,1.1l-.64.49L283.34,188l-1.25,1-.39.54v1.15c0,10.78,3.62,20.17,8.84,23.05.79.45,1.14.79,1.14,1.14l-.05.22-1.09.25h-1.19a26,26,0,0,1-6.16-1l-1.35,9.59H280l-1.3-9.59a24.8,24.8,0,0,1-6.16,1h-1.19c-.79,0-1.14-.14-1.14-.45s.35-.74,1.14-1.14c5.12-2.68,8.8-12.32,8.8-23.05v-1.14l-.4-.55-1.19-1-1.2-1.24-.69-.5c.55-.5,1-.85,1.19-1.09a12.45,12.45,0,0,0,1.24-1.35l.9-1,.94-1.19"/><path id="path163" class="cls-3" d="M331.83,181.59l.94,1.19,1.09,1,1.19,1.34,1.05,1.1-.65.49L334.26,188,333,189l-.4.54v1.15c0,10.63,3.68,20.22,8.84,23.05.8.45,1.15.79,1.15,1.14l-.05.22-1.1.25h-1.19a26.12,26.12,0,0,1-6.16-1l-1.34,9.59h-1.89l-1.29-9.59a22.92,22.92,0,0,1-6.71,1c-1.44,0-1.74-.11-1.74-.55s.3-.64,1.2-1a13.69,13.69,0,0,0,4.17-4.27c2.09-3.38,3.33-6.31,3.33-8.05,0-2.88.44-5.22.94-5.22l.25-4.92.15-1.73c-.25-.26-.4-.4-.55-.55a22,22,0,0,0-3.08-2.78l1.19-1.1,1.25-1.34,1-1,.79-1.19"/><path id="path165" class="cls-3" d="M306.44,211.25a11,11,0,0,1,.94,1c.5.59.9,1,1.1,1.24s.49.6,1.09,1.24c.25.26.69.5,1.14,1l-.64.55-1.2,1.34-1.24,1-.4.55.15,1.74.25,5c.4,7.31,4.22,15.21,8.45,17.49.79.45,1.14.8,1.14,1.19l-.1.15-1.05.25h-1.19a23.79,23.79,0,0,1-6.16-1l-1.34,9.59h-1.89L304.15,244a21.73,21.73,0,0,1-6.71,1.09c-1.34,0-1.69-.14-1.69-.64s.35-.65,1.2-1a13.69,13.69,0,0,0,4.17-4.27c2.19-3.58,3.48-6.56,3.48-8,0-2.88.34-5.22.79-5.22l.25-5,.15-1.74-.55-.55-1.09-1-1.34-1.34-.5-.55,1-1a19.6,19.6,0,0,0,3.09-3.48"/><path id="path167" class="cls-3" d="M357.76,211.25a11,11,0,0,1,.94,1c.5.59.9,1,1.1,1.24l1.19,1.2a11,11,0,0,1,1,1c-.2.25-.4.45-.49.55-.8.74-1.2,1.19-1.35,1.34-.74.64-1.14,1-1.24,1s-.2.25-.4.55l.15,1.74.25,5c.4,7.31,4.22,15.21,8.45,17.49.79.45,1.14.8,1.14,1.19l-.1.15-1,.25h-1.2a23.79,23.79,0,0,1-6.16-1l-1.34,9.59H357L355.47,244a21.66,21.66,0,0,1-6.66,1.09c-1.39,0-1.73-.14-1.73-.64s.34-.65,1.19-1a13.69,13.69,0,0,0,4.17-4.27c2.14-3.58,3.48-6.56,3.48-8,0-2.88.35-5.22.79-5.22l.25-5,.15-1.74-.55-.55-1.09-1-1.34-1.34-.5-.55,1.05-1a19.89,19.89,0,0,0,3.08-3.48"/><path id="path169" class="cls-3" d="M383.15,181.59l.94,1.19,1.09,1,1.2,1.34,1,1.1-.65.49L385.58,188l-1.24,1-.35.54v1.15c0,10.63,3.63,20.22,8.8,23.05.79.45,1.14.79,1.14,1.14l-.05.22-1.09.25h-1.2a26.12,26.12,0,0,1-6.16-1l-1.34,9.59H382.2l-1.29-9.59a22.86,22.86,0,0,1-6.71,1c-1.44,0-1.73-.11-1.73-.55s.3-.64,1.19-1a13.69,13.69,0,0,0,4.17-4.27c2.09-3.38,3.33-6.31,3.33-8.05,0-2.88.45-5.22.94-5.22l.25-4.92.15-1.73c-.25-.26-.4-.4-.55-.55l-1-1-1.34-1.24-.55-.5,1.05-1.09,1.24-1.34,1-1,.8-1.19"/><path id="path171" class="cls-3" d="M185.36,319.65a21.45,21.45,0,0,0,3.08,3.48c.2.22.6.55,1.05,1l-.5.55-1.39,1.2-1,1.19-.55.54.15,1.74.25,5a29.68,29.68,0,0,0,4.27,13.21c1.49,2.14,3.13,3.83,4.17,4.28s1.19.64,1.19,1.09-.3.5-1.88.5a23.17,23.17,0,0,1-6.56-1L186.31,362h-1.89l-1.34-9.58a26.12,26.12,0,0,1-6.16,1h-1.2c-.79,0-1.09-.15-1.09-.45s.3-.75,1.09-1.14a12.69,12.69,0,0,0,4.13-4.28c2.38-3.92,3.48-6.55,3.48-8,0-2.94.39-5.22.84-5.22l.25-5,.15-1.74-.4-.54-1.24-1.19-1.19-1.2-.65-.55a11,11,0,0,1,1-1,17.08,17.08,0,0,0,1.2-1.24,11.56,11.56,0,0,0,1.09-1.19,12.61,12.61,0,0,1,.94-1"/><path id="path173" class="cls-3" d="M233.06,319.65a23,23,0,0,0,3.08,3.48c.25.22.59.55,1.09,1l-.54.55-1.35,1.2-1.09,1.19-.5.54.1,1.74.3,5a29.2,29.2,0,0,0,4.28,13.21c1.44,2.14,3.08,3.83,4.12,4.28.89.39,1.24.64,1.24,1.09s-.34.5-1.89.5a23.15,23.15,0,0,1-6.55-1L234,362h-1.88l-1.34-9.58a26.24,26.24,0,0,1-6.12,1h-1.24c-.74,0-1.09-.15-1.09-.45s.35-.75,1.09-1.14a12.89,12.89,0,0,0,4.18-4.28c2.33-3.92,3.47-6.55,3.47-8,0-2.94.35-5.22.8-5.22l.25-5,.14-1.74-.39-.54-2.39-2.39-.69-.55c.49-.49.84-.84,1.09-1a16.09,16.09,0,0,0,1.19-1.24c.2-.21.55-.59,1.05-1.19.24-.25.54-.6.94-1"/><path id="path175" class="cls-3" d="M208.76,362.93l.6,1.44,1.24.84,1.24,1.34,1,1.05-.55.54-1.34,1.2c-.1.1-.45.49-1,1.09a5.55,5.55,0,0,0-.55.55l.15,1.69.25,5c.39,7.25,4.47,15.7,8.44,17.48.9.45,1.19.7,1.19,1.1l-.14.25-1,.4-1.19-.11-2.68-.29a12.42,12.42,0,0,1-2.24-.4l-1.24-.25-1.44,9.64h-1.74l-1.34-9.64-1.34.25-2.29.4-2.53.29-1.2.11-.14,0c-.6,0-.95-.25-.95-.64s.3-.7,1.1-1.15a12.82,12.82,0,0,0,4.12-4.22c2.38-4,3.48-6.56,3.48-8.05,0-2.88.39-5.22.79-5.22l.3-5L208,371l-.45-.55-1.19-1.09-1.19-1.2-.7-.55,1.1-1,1.19-1.34,1.09-1.09.94-1.19"/><path id="path177" class="cls-3" d="M185.07,407l.94,1.2,1.09,1.09,1.19,1.34.9,1.24-.5.37-1.19,1.19-1.19,1-.4.55.1,1.74.3,5c.4,7.31,4.17,15.21,8.4,17.49.79.45,1.14.8,1.14,1.2l0,.14-1.09.25h-1.2a36.05,36.05,0,0,1-6.16-.89L186,449.44h-1.84L182.83,440a31.27,31.27,0,0,1-6.71.94c-1.39,0-1.68-.14-1.68-.64s.29-.6,1.14-1c1.09-.44,3.08-2.53,4.17-4.27,2.19-3.58,3.48-6.51,3.48-8,0-2.88.34-5.22.79-5.22l.25-5,.15-1.74c-.25-.22-.4-.4-.55-.55-.59-.54-.94-.94-1-1l-1.34-1.2-.55-.54,1.1-1.05,1.19-1.34,1-1.09.8-1.19"/><path id="path179" class="cls-3" d="M233.06,407l.79,1.2,1.1,1.09,1,1.49,1.29.89-.55.55-1.34,1.19c-.1.11-.49.5-1.09,1.05a2.16,2.16,0,0,1-.5.54l.1,1.74.3,5A29.08,29.08,0,0,0,238.43,435c1.44,2.13,3.08,3.82,4.12,4.27.89.39,1.24.69,1.24,1.09s-.34.55-1.79.55a29.71,29.71,0,0,1-6.65-.95L234,449.42h-1.88l-1.34-9.49a35,35,0,0,1-6.12.9h-1.24c-.74,0-1.09-.11-1.09-.45s.35-.75,1.09-1.14A12.48,12.48,0,0,0,227.6,435c2.33-3.93,3.47-6.51,3.47-8,0-2.88.35-5.22.8-5.22l.25-5,.14-1.74-.39-.54-1.19-1.05-1.2-1.19-.69-.55,1.09-1,1.19-1.34,1.05-1.09.94-1.2"/><path id="path181" class="cls-3" d="M208.76,276.08l.8,1.2,1,1,1.24,1.34,1,1.09-.55.5L211,282.49c-.1.11-.45.45-1,1l-.55.55.15,1.74.25,4.92c.39,7.25,4.57,15.89,8.44,17.53.85.36,1.14.65,1.14,1,0,.5-.3.59-1.69.59A33.36,33.36,0,0,1,211,309l-1.44,9.59h-1.74L206.48,309a42.31,42.31,0,0,1-6.16.89h-1.2c-.79,0-1.14-.14-1.14-.44s.35-.75,1.14-1.15a12.56,12.56,0,0,0,4.13-4.27c2.38-3.92,3.47-6.51,3.47-8.05,0-2.88.4-5.21.8-5.21l.3-4.92.15-1.74-.45-.55-1.19-1-1.19-1.24-.7-.5,1.09-1.09,1.2-1.35,1.09-1,.94-1.19"/><path id="path183" class="cls-3" d="M184.67,32.14c.44.45.74.85.94,1,.5.59.85,1,1.09,1.24l1.2,1.19,1,1-.5.55L187.1,38.4c-.15.11-.49.5-1.19,1.2a4.93,4.93,0,0,0-.4.44l.1,1.84.3,4.82c.25,4.67,2.34,11.13,4.27,13.37l2.64,3.07c.15.15.64.55,1.49,1.2l1.14.89-1.14.7-1.19-.11-2.54-.29-2.28-.4L187,64.88l-1.45,9.19-1.64.45-1.34-9.64-1.29.25-2.28.4-2.59.29L175,66c-.5,0-.84-.21-.84-.44a1.29,1.29,0,0,1,.54-.85c.1-.11.8-.59,2-1.54,1.74-1.29,2.24-2,4.67-6.8a10.65,10.65,0,0,0,1.49-4.43c0-2.88.35-5.21.8-5.21l.25-4.82L184,40l-.54-.45-1-1.19-1.34-1.19-.54-.55a11,11,0,0,0,1-1,19.08,19.08,0,0,0,3.08-3.48"/><path id="path185" class="cls-3" d="M233.06,32.14a20.83,20.83,0,0,0,3.08,3.48c.25.26.59.6,1.09,1.05l-.54.54-1.35,1.2-1.09,1.19-.5.45.1,1.84.3,4.81c.4,7.06,4.38,15.5,8.4,17.64.7.4,1.14.7,1.14.9a.6.6,0,0,1-.54.64l-1.64,0-2.69-.28a12,12,0,0,1-2.28-.4l-1.19-.25L234,74.55h-1.88l-1.34-9.64-1.45-.15-2.13.8-2.54.29-1.24.11-.15,0c-.49,0-.89-.21-.89-.44s.2-.55.6-.85l1.93-1.54c1.79-1.39,2.39-2.23,4.67-6.8a10.72,10.72,0,0,0,1.49-4.43c0-2.88.35-5.21.8-5.21l.25-4.82.15-1.84-.4-.45-1.19-1.19-1.2-1.19c-.14-.11-.34-.29-.69-.55.5-.45.84-.79,1.09-1l1.19-1.2c.2-.25.55-.64,1.05-1.24a12.91,12.91,0,0,0,.94-1"/><path id="path187" class="cls-3" d="M208.47,74l.94,1,1.09,1.24c.65.69,1.05,1.14,1.19,1.29s.6.64,1.05,1.09l-.65.55-1.19,1.19-1.19,1-.4.55.1,1.74.15,4.57c.4,7.3,4.32,15.6,8.54,17.89.8.44,1.15.79,1.15,1.19l-.1.14-1.05.29h-1.19a24,24,0,0,1-6.16-1.09l-1.34,9.64h-1.84l-1.34-9.64a21.69,21.69,0,0,1-6.71,1.09c-1.44,0-1.74-.11-1.74-.55s.3-.69,1.2-1.09c1.09-.44,3-2.43,4.17-4.27,2.08-3.38,3.33-6.31,3.33-8,0-2.88.39-5.22.94-5.22l.25-5,.15-1.74a3.5,3.5,0,0,1-.55-.55c-.6-.59-.94-.94-1-1l-1.34-1.19-.55-.55,1-1.1,1.24-1.29c.6-.69.95-1.09,1-1.24a9.82,9.82,0,0,0,.79-1"/><path id="path189" class="cls-3" d="M184.57,115.66l.89,1.09.95,1.2a14.43,14.43,0,0,0,1.19,1.19l1.24,1.09c-.4.29-.6.45-.69.5L187,122l-1.59,1.59v1.24c0,7.06,2.09,15.9,4.42,18.38l2.94,3.48a16,16,0,0,0,1.49,1.25l1,.84-1,.75-1.25-.15-2.53-.25-2.29-.4-1.34-.28-1.34,9.63h-1.84l-1.34-9.63-1.34.28-2.28.4-2.54.25-1.19.15h-.2c-.5,0-.89-.22-.89-.45a1.47,1.47,0,0,1,.59-.84l2-1.54c4.42-3.53,7.35-12.13,7.35-21.86v-1.25l-.44-.39-1.2-1.2c-.59-.64-1-1-1.19-1.24-.1,0-.34-.25-.69-.5.54-.5.94-.84,1.24-1.09a14.49,14.49,0,0,0,1.19-1.19l.94-1.2.95-1.09"/><path id="path191" class="cls-3" d="M232.81,115.66a13.6,13.6,0,0,0,.94,1.09c.5.6.85,1,1.05,1.2s.59.59,1.19,1.19l1.09,1.09a7.07,7.07,0,0,0-.64.5l-2.84,2.83.15,1.89.25,4.92c.4,7.4,3.28,13.31,8.45,17.53l1,.85-1,.74-1.25-.14-2.53-.25-2.23-.4-1.35-.29-1.34,9.64h-1.89l-1.49-10c-2.38.55-2.48,1-3.32,1.1l-2.69.25-1.19.14H223c-.44,0-.79-.21-.79-.44a1.29,1.29,0,0,1,.54-.85l2-1.54c1.69-1.34,2.24-2,4.67-6.8a11,11,0,0,0,1.44-4.42c0-2.79.4-5.07.8-5.07l.3-4.92.14-1.89-.54-.4-1.1-1.19-1.34-1.24-.49-.5c.44-.49.79-.84,1-1.09a21.23,21.23,0,0,0,3.08-3.48"/><path id="path193" class="cls-3" d="M132.7,94.15l.55,2c.44,1.84.84,3.28,1,4.33,1.69,7.6,3.13,9.63,6.81,9.63a4.44,4.44,0,0,0,4.42-3l.79-2.68a1.33,1.33,0,0,1,1.29-1c1.45,0,2.14,1.54,2.19,4.87.05,1,.35,3.18.94,6.56a34.66,34.66,0,0,1,.55,5.86,10,10,0,0,1-.79,4.18,59.2,59.2,0,0,1,.79,8.19c0,3.29-.6,6.36-1.64,7.95a15.84,15.84,0,0,1,.7,5.07,27.39,27.39,0,0,1-.4,4.42,30,30,0,0,0-.7,4.62,5.42,5.42,0,0,0,.3,1.79,7.21,7.21,0,0,1,.4,1.64c0,.36-.2.65-.4.65l-2.68-1-2.93-1.65a12.09,12.09,0,0,1-3.08-2.38c-2.58,2.34-3.38,2.68-10.19,4.52a10.18,10.18,0,0,0-2.93,1.24,4.3,4.3,0,0,1-1.79,1c-1.14,0-1.68-1.89-1.68-5.67a28.92,28.92,0,0,1,.84-7.45,14.91,14.91,0,0,0-4.82-1.19c-.2,0-.84.11-2,.25l-.49,0c-.4,0-.7-.6-.7-1.29a10.54,10.54,0,0,1,.8-2.88l1.34-3.23a11.68,11.68,0,0,1,3.23-3.88,7.72,7.72,0,0,1,3.48-2l4.76-.94c2.89-.55,4.58-2.09,4.58-4.07s-1.25-3.23-4.13-4.23l-5.76-2a35.79,35.79,0,0,1-5.22-2.54c-3.18-1.89-3.72-2.14-4.47-2.14-1.14,0-1.84.85-1.84,2.34a3.76,3.76,0,0,0,3.78,4.07,3.58,3.58,0,0,0,1.34-.28,4.58,4.58,0,0,1,1.34-.4c.65,0,1,.36,1,1l-.06.55-.24,2.28c-.2,1.94-1.49,4.33-4.28,8.05l-1.19,1.59a18.56,18.56,0,0,1-7.2,10.54,12.67,12.67,0,0,0-1.49,1.09,17.9,17.9,0,0,0-1.1,1.89,20.39,20.39,0,0,1-2.63,3.18,23.89,23.89,0,0,1-3.38,3.08A10.67,10.67,0,0,0,97,159.13l-1.34,2.23a1.25,1.25,0,0,1-1.1.7c-1.19,0-2.28-1.24-2.93-3.38-.49-1.54-.94-2-1.94-2a11,11,0,0,0-2.33.39l-1.89.29H80.68a22.8,22.8,0,0,0-7.35,1.29,3.6,3.6,0,0,1-1.34.45c-.35,0-.55-.15-.9-.84a1.76,1.76,0,0,1-.3-1.05c0-2.43,1.74-7,4-10.68a14,14,0,0,1,3.63-4.32,6.13,6.13,0,0,0-3.78-4.52l-2.24-.65a.7.7,0,0,1-.54-.69c0-.65,1.09-1.64,3.08-2.69a16.88,16.88,0,0,1,7.3-2.13c2.24,0,4.37.89,6.86,2.83,3.62,2.83,4.62,3.33,6.36,3.33a5.72,5.72,0,0,0,5.56-5.32c0-1.84-.94-3.82-3.53-7.1-3.72-4.82-4.81-7.31-4.81-10.88a13.69,13.69,0,0,1,1.49-6.21l1.34-2a2.23,2.23,0,0,0,.44-1.29c0-.89-1-1.49-2.43-1.49-2.09,0-6.16,1.49-9.39,3.48-1.59.94-2.68,2.14-2.68,2.83a1.32,1.32,0,0,0,.54,1l1.49.94a.68.68,0,0,1,.3.55,3,3,0,0,1-.54,1l-2.69,3.48A46.55,46.55,0,0,1,75,122.61,11.44,11.44,0,0,0,73.63,124s-.4.7-1.09,2a20.21,20.21,0,0,1-5.87,6,14.86,14.86,0,0,0-1.88,1.49,11.31,11.31,0,0,0-1.05,1.89c-.34.64-.94,1.59-1.74,2.78a28.18,28.18,0,0,1-3.23,4.13L55.05,146c-1.19,1.14-2.19,3.38-3.73,8.3-1,2.93-1.84,4.67-2.33,4.67-.2,0-.6-.29-1.05-.8-2.63-3-4.92-4.81-6.11-4.81a3.52,3.52,0,0,0-1.49.64,9.42,9.42,0,0,1-3.62,1.34l-4.92,1c-3.73.69-5.22,1.54-7.36,4-.49.6-.94,1-1.14,1-.45,0-.74-.7-.74-1.59l.14-1.25.65-3.62A31.83,31.83,0,0,1,26,146.16L28.32,142A4.6,4.6,0,0,0,29,139.8c0-3.08-3.18-5.86-7-6.21-1-.11-1.39-.36-1.39-.89,0-.7,1.09-2,2.58-3.13,2.68-2,6.16-3.48,8.4-3.48a18.25,18.25,0,0,1,6.06,1.59l2.93,1.19a7.13,7.13,0,0,0,3,.7c3.08,0,6.11-2.84,9.84-9.24,1.69-2.88,2.38-5,2.38-6.86,0-3.38-1.59-5.41-4.22-5.41a8.36,8.36,0,0,0-5.76,2.53,5.88,5.88,0,0,0-2.09,4.12l.05,1.49v.36c0,1.24-.4,1.94-1.14,1.94-1.24,0-3.08-1.79-8.35-8.15-3.92-4.77-4.77-6.8-4.92-11.52-4.57-5.77-5.66-8.25-5.66-12.33l.2-2.78c-3.18-3.77-4.08-5.81-4.08-9.29a6.58,6.58,0,0,1,1-3.53,14,14,0,0,1-2.59-5.21l-.64-2.79a14.75,14.75,0,0,0-2.14-5C14.11,56.2,14,56,14,55.4c0-1.59,1-2.18,5.76-3.33a20.91,20.91,0,0,1-.3-3,17.15,17.15,0,0,1,.4-3.18l.94-5a24.91,24.91,0,0,0,.6-4.27c0-.94-.15-1.59-1-4.27a13.09,13.09,0,0,0-1.2-3.08,4.7,4.7,0,0,1-.79-1.79c0-.5.3-.79.89-.79,1.34,0,4.82,2.13,8.45,5.12,7.7,6.36,9.24,8.89,10.28,16.59.1.59.25,1.49.4,2.68,3.68,2.74,5.61,6,5.61,9.44a16.47,16.47,0,0,1-2.68,8.6l-2.63,4.12a8.13,8.13,0,0,0-1.19,4.42c0,2.54.69,4.87,2.48,8.05,2.09,3.58,3.83,5.07,6,5.07,3.48,0,6.61-6.16,6.61-13.12v-.94l0-2.39a37.1,37.1,0,0,1,.3-4.42c.25-2.09.34-3.38.4-3.88l.14-3.18,0-2.13a4.05,4.05,0,0,0-1.39-2.54L49.18,55c-4.27-4.62-6.61-9-6.61-12.27a6.8,6.8,0,0,1,6.81-7.1,10.67,10.67,0,0,1,2.83.49v-.89c0-5.86,1.25-10.24,2.84-10.24l.64.22,2.44,2.14,2.93,1.89.79.79c0-1.69.1-1.84,1.74-3.72.4-.5,1-1.35,1.89-2.59.69-.94,1.09-1.64,1.34-2l.65-1.19c.34-.7.69-1,1.09-1s.69.49,1.19,1.93c.3.9.5,1.14,2.78,3.18a14.88,14.88,0,0,1,1.64,1.74,26.45,26.45,0,0,1,1,2.68c.1.25.19.6.39,1.09a7.75,7.75,0,0,1,2.69-2.43l2-1.19a4.74,4.74,0,0,1,1.49-.7c.2,0,.45.29.65.8s.6,1.14,1.09,2C85,31.17,85.4,32.36,85.4,33.5v2.94c4.37,1.39,6,3.67,6,8.34,0,3.43-1.79,7.35-5.21,11.43-2.29,2.73-2.59,3.28-2.59,5.22,0,9.88,6.91,15.6,19,15.74l8.94.15a43.43,43.43,0,0,1,14.56,2.39c6.36,2.08,8.2,2.58,10,2.58a3.12,3.12,0,0,0,1.73-.55,1.63,1.63,0,0,0,.8-1.19c0-1.89-3.28-3.38-14.06-6.41-22-6.26-31.4-15.16-31.4-29.76,0-11.28,9.39-20,21.51-20a47.83,47.83,0,0,1,13.42,2.28l5.46,2a8.33,8.33,0,0,0,2.83.55c1.89,0,2.84-1.54,2.89-4.72,0-1.69.44-2.24,1.54-2.24,1.54,0,3.92,1.94,6.11,4.92s3.62,6.51,3.62,8.79c0,3-1.44,5.17-4.72,7-3,4.57-6.65,6.66-11.62,6.66-3.88,0-9.34-2.19-18.43-7.36-3.18-1.79-4.77-2.38-6.46-2.38-2.34,0-3.88,1.39-3.88,3.48,0,1.89,1.49,3.18,5.37,4.52,5.81,2,7.2,2.83,9.49,5.22,6.8,1.19,9.78,2.38,14.06,5.61,11.72,3.73,19,11.73,19,20.92,0,8.89-6,15.3-14.4,15.3a26.57,26.57,0,0,1-6.31-.79"/><path id="path195" class="cls-3" d="M382.1,94.15l.55,2c.45,1.84.8,3.28,1,4.33,1.69,7.6,3.13,9.63,6.81,9.63a4.42,4.42,0,0,0,4.42-3l.8-2.68a1.27,1.27,0,0,1,1.29-.94c1.44,0,2.23,1.59,2.33,4.81a63.33,63.33,0,0,0,.8,6.56,42.06,42.06,0,0,1,.55,6.21,9.91,9.91,0,0,1-.8,3.83l.25,1.59a26.57,26.57,0,0,1,.55,4.92c0,5.71-.25,7.4-1.59,9.63a17.48,17.48,0,0,1,.69,4.82,39,39,0,0,1-.45,4.67l-.54,4,.15,2.38a6.94,6.94,0,0,1,.49,1.64c0,.36-.2.65-.49.65l-2.69-1-2.93-1.64a12.09,12.09,0,0,1-3.08-2.38c-2.58,2.29-2.93,2.49-6,3.33-4.42,1.24-6.06,1.79-7,2.43a4.43,4.43,0,0,1-1.83,1c-1.05,0-1.79-2-1.79-5,0-4.27.25-6.51.94-8.15a16.38,16.38,0,0,0-4.87-1.19,9.41,9.41,0,0,0-1.94.25l-.59,0c-.4,0-.65-.5-.65-1.29a16.12,16.12,0,0,1,2.19-6.12c1.69-3,4.42-5.46,6.56-5.86l4.82-.94c2.83-.55,4.52-2.09,4.52-4.08s-1.25-3.18-4.13-4.22l-5.61-2a33,33,0,0,1-5.37-2.53c-1.44-.89-2.38-1.44-2.93-1.74a2.8,2.8,0,0,0-1.44-.39c-1.24,0-1.94.84-1.94,2.23a4,4,0,0,0,3.88,4.17,3.21,3.21,0,0,0,1.34-.28,4.76,4.76,0,0,1,1.24-.4c.6,0,1.05.59,1.05,1.44a16.87,16.87,0,0,1-3.08,8.45l-1.59,2-1.2,1.59c-.44,3.43-3.82,8.35-7.2,10.54a7.42,7.42,0,0,0-1.49,1.09c-.1.14-.45.75-1.09,1.89a20.21,20.21,0,0,1-2.64,3.18,23.36,23.36,0,0,1-3.38,3.08,12.49,12.49,0,0,0-2.68,2.43l-1.29,2.24a1.21,1.21,0,0,1-1,.69c-1.2,0-2.29-1.24-3-3.38-.5-1.54-.9-2-1.94-2a11.63,11.63,0,0,0-2.34.39l-1.89.29h-4.67a23,23,0,0,0-7.5,1.29,3.55,3.55,0,0,1-1.34.45c-.69,0-1-.7-1-2,0-4.22,3.23-10.68,7.5-14.85-.65-2.44-1.94-4.08-3.63-4.52-1.49-.4-2.33-.65-2.38-.65a.73.73,0,0,1-.45-.64c0-.85,1-1.7,3.08-2.74,3.83-1.79,4.92-2.14,7.06-2.14,2.43,0,4.47.85,7,2.84,3.63,2.83,4.62,3.33,6.36,3.33a5.76,5.76,0,0,0,5.56-5.32c0-1.89-1-3.92-3.52-7.1-3.53-4.58-4.82-7.51-4.82-11.38,0-2.58.54-4,2.83-7.75a3.36,3.36,0,0,0,.55-1.39c0-.75-1.2-1.4-2.54-1.4a14.12,14.12,0,0,0-5.61,1.59c-4,1.84-6.46,3.58-6.46,4.62a1.6,1.6,0,0,0,.7,1.15l1.34.94a.65.65,0,0,1,.25.55,1.82,1.82,0,0,1-.55,1c-.25.29-1.14,1.44-2.63,3.48a31.7,31.7,0,0,1-5.62,5.86,5,5,0,0,0-1.34,1.34l-1.09,2a22.2,22.2,0,0,1-5.72,6,18,18,0,0,0-1.88,1.49,8.89,8.89,0,0,0-1.2,1.89,39,39,0,0,1-5,6.91L304.55,146c-1,1.09-2.44,4.18-3.88,8.3-1.09,3.23-1.78,4.67-2.28,4.67-.2,0-.6-.29-1-.79-2.59-3-4.92-4.82-6.07-4.82a4.67,4.67,0,0,0-1.54.64,10.08,10.08,0,0,1-3.62,1.34l-4.77.95c-4,.8-5.67,1.64-7.5,4-.45.6-.85.95-1.1.95-.44,0-.79-.7-.79-1.64l.15-1.2c0-.1.24-1.34.64-3.62a29.94,29.94,0,0,1,2.68-8.65l2.39-4.17a4.29,4.29,0,0,0,.69-2.14c0-3.08-2.88-5.61-7.2-6.26-.89-.14-1.34-.5-1.34-1s1-1.79,2.68-3c2.83-2.13,6-3.48,8.15-3.48a18.13,18.13,0,0,1,6.11,1.59l3,1.2a7.06,7.06,0,0,0,2.93.69c3.13,0,6.16-2.83,9.89-9.24,1.69-2.88,2.38-5,2.38-6.85,0-3.38-1.54-5.42-4.17-5.42a8.05,8.05,0,0,0-5.71,2.54,6.45,6.45,0,0,0-2.19,4.27l.05,1.34.05.7c0,1.09-.34,1.59-1.14,1.59-1,0-2.19-1-4.52-3.73-.95-1.19-2.19-2.63-3.73-4.42-4.07-4.77-4.92-6.66-5.07-11.53-4.57-5.76-5.66-9-5.66-12.32l.15-2.78c-3.23-3.88-3.88-5.42-3.88-9.24a6,6,0,0,1,.8-3.58,13.88,13.88,0,0,1-2.54-5.22l-.64-2.78a14.52,14.52,0,0,0-2.14-5c-1.19-1.74-1.34-2-1.34-2.48,0-1.39,1.34-2.29,4.67-3.13l1.09-.25a22.41,22.41,0,0,1-.29-3,17.81,17.81,0,0,1,.39-3.18l1-5a28.43,28.43,0,0,0,.54-4.38,12.64,12.64,0,0,0-.79-4.17,15.06,15.06,0,0,0-1.34-3.08,3.86,3.86,0,0,1-.8-1.74,1,1,0,0,1,1.05-.84,3.64,3.64,0,0,1,1.34.45,52.46,52.46,0,0,1,13,10.28c3,3.38,4,6.16,4.67,13.66,4.13,3,5.67,5.82,5.67,10.14a14,14,0,0,1-2.73,7.9c-1.59,2.48-2.49,3.87-2.64,4.12a9,9,0,0,0-1.24,4.57c0,2.39.75,4.67,2.58,7.9,2,3.53,3.78,5.07,5.92,5.07,3.47,0,6.65-6.06,6.65-12.72V73.16l.35-3.23.3-3.87.25-3.18.1-1.79c0-1.34-.25-1.74-4.37-6.11-4.52-4.87-6.66-9-6.66-12.77a6.78,6.78,0,0,1,6.81-6.61,10.87,10.87,0,0,1,2.78.5V34.51l.15-2.78.79-3.48c.65-2.79.94-3.28,1.89-3.28l.64.21,2.44,2.14,2.93,1.89.79.79c.2-1.69.35-2,1.74-3.72.7-.9,1.34-1.74,1.89-2.59l1.34-2,.8-1.19c.49-.79.74-1,1.09-1s.6.5,1,2a3.76,3.76,0,0,0,1.2,1.73l1.73,1.45A9.89,9.89,0,0,1,325,30.15a7.45,7.45,0,0,1,2.68-2.43l2.14-1.2a6.34,6.34,0,0,1,1.39-.69c.14,0,.39.29.59.79a12.79,12.79,0,0,0,1.1,2c1.73,2.79,1.88,3.13,1.88,5l-.05,1.14v1.59c4.38,1.2,6.06,3.53,6.06,8.3,0,3.63-1.64,7.35-5.11,11.48-2.29,2.73-2.69,3.62-2.69,5.66,0,9.44,7.16,15.15,19.13,15.3l8.85.15a44.44,44.44,0,0,1,14.55,2.38c6.21,2,8.2,2.58,10.09,2.58,1.34,0,2.48-.74,2.48-1.68,0-1.94-3.23-3.43-14-6.46C352,67.86,342.65,59,342.65,44.41c0-11.33,9.44-20,21.61-20a46.46,46.46,0,0,1,13.27,2.23l5.51,2a8.39,8.39,0,0,0,2.84.55c1.88,0,2.63-1.15,2.88-4.72.15-1.54.64-2.24,1.64-2.24,1.39,0,4.12,2.19,6.11,4.92s3.48,6.56,3.48,9c0,2.83-1.49,5-4.67,6.81-3,4.57-6.66,6.66-11.63,6.66-3.83,0-10.28-2.59-18.43-7.36-3.23-1.84-4.62-2.38-6.41-2.38-2.39,0-4,1.34-4,3.48,0,1.94,1.44,3.13,5.42,4.52,6.36,2.29,7.7,3,9.49,5.22,6.81,1.19,9.79,2.38,14.06,5.61,12.17,3.93,19,11.48,19,21.12,0,8.79-6,15.1-14.26,15.1a26.82,26.82,0,0,1-6.46-.79"/><path id="path197" class="cls-3" d="M135.23,346.48a19.45,19.45,0,0,1,1.74,6.31l.25,5.62c.25,5.61,2.09,8.39,5.62,8.39a4.37,4.37,0,0,0,3-.94l1.44-1.44.59-.22c1,0,1.44.64,1.44,1.74l-.14,2.18a29.61,29.61,0,0,0,.54,6.16,39.4,39.4,0,0,1,.4,5.37,13.69,13.69,0,0,1-1.24,6.51,25.29,25.29,0,0,1,1.49,8.09,11.18,11.18,0,0,1-1.59,6.51,19.19,19.19,0,0,1,.65,4.52,26.49,26.49,0,0,1-.55,5.07,27.27,27.27,0,0,0-.5,6.41v.36c0,.84-.25,1.29-.79,1.29a2.39,2.39,0,0,1-1.64-1.09c-.8-1-1.34-1.44-1.94-1.44-.94,0-1.24.49-2.58,4.52a18.45,18.45,0,0,1-3.23,5,12.29,12.29,0,0,0-2.39,3.82c-.44,1.64-.69,2.59-.79,2.84a1,1,0,0,1-.8.64l-.2,0c-2.18,0-4.72-4.72-7.3-13.67-.74-2.53-1.69-3.62-3-3.62a2.71,2.71,0,0,0-2.33,1.49l-.8,1.89a.89.89,0,0,1-.7.54c-1,0-2.68-2-3.72-4.42a17.67,17.67,0,0,1-1.29-6.16c0-4.17,3.08-7.3,12.42-12.57,4-2.28,5.61-5.17,5.61-10.43,0-4.13-1.24-6.51-4.82-9.24-2.83-2.09-4.47-2.93-6-2.93a2.06,2.06,0,0,0-2.24,1.94c0,1.24.7,2,2.44,2.63,2.09.69,3,1.44,3,2.38s-.89,2.64-2.29,4.82a12.25,12.25,0,0,1-4.32,4.43c-.59,3.67-2.33,6-6.41,8.69a13.07,13.07,0,0,1-2.68,4.92L106.77,407a11.93,11.93,0,0,0-2,4.13c-.3,2-.5,2.43-1.29,2.43-1,0-3.23-1.89-5.42-4.67a6.64,6.64,0,0,1-1.74-4.42c-1.39,1.09-1.83,1.24-4.52,1.59a12.6,12.6,0,0,0-3.62.94c-2,1.1-2.74,1.4-3.08,1.4-.55,0-.75-.29-.8-1.24l-.15-3a20.66,20.66,0,0,1,4-11.87c-2.34-2-4.67-3.28-6.56-3.48-.8-.11-1-.21-1-.5a5.21,5.21,0,0,1,1.29-2.43,18.43,18.43,0,0,1,2.38-2.68,13.11,13.11,0,0,1,7.75-2.84,24.27,24.27,0,0,1,7.6,1.89,9.48,9.48,0,0,0,3.23.7c1.44,0,2.29-1,2.29-2.63,0-2.44-1.19-6.26-3.88-12.37-1.83-4.13-2.68-6.91-2.68-8.8,0-4.67,2.19-9.44,4.92-10.83a5.43,5.43,0,0,0-3-.79,7.67,7.67,0,0,0-4.08,1.34c-2,1.14-3.08,2.13-3.08,2.83,0,.25.4.7,1.1,1.14,1,.75,1.19,1,1.19,2,0,3.28-2.73,7.75-6.56,10.58-.84,4.72-3,7.5-7.2,9.49-.6,2.59-1,3.28-2.93,6.16-3.53,4.92-4.38,6.46-5,9.24-.35,1.44-.65,2-1.09,2-.6,0-1.74-.89-3.08-2.34a27.33,27.33,0,0,1-2.14-2.53,13.18,13.18,0,0,1-1.44-4.27,5.58,5.58,0,0,1-1.89.36l-2-.11H61.06c-2.93,0-6.06.64-7.6,1.64a2.9,2.9,0,0,1-1.19.5c-.85,0-1.54-1.79-1.54-4a21.28,21.28,0,0,1,4.47-13.16A23.42,23.42,0,0,1,52.67,366a5.25,5.25,0,0,0-1.1-.94l-1.49-.79c-.5-.26-.79-.6-.79-.9,0-.69,1.93-2.53,4.27-4.07,2.58-1.64,4.62-2.39,6.51-2.39,2.18,0,3.33.55,6.06,2.93,1.89,1.64,3.18,2.44,4.12,2.44a2.54,2.54,0,0,0,1.89-1.2,3.56,3.56,0,0,0,.7-2c0-2.54-3-6.86-6.41-9.1a14.9,14.9,0,0,0-8-2.53,9,9,0,0,0-8.35,4.82l-1.44,3.08c-.35.69-.79,1.09-1.29,1.09-.85,0-1.29-.4-4.32-3.93l-3.48-4A10.48,10.48,0,0,1,37.41,345a6.13,6.13,0,0,0-.69-1.74,5.22,5.22,0,0,0-1.34-1.09c-2.69-1.89-4.62-5.66-5.72-11.08-.1-.39-.25-1-.39-1.74-3.28-4-5.27-9-5.27-13.26a6.19,6.19,0,0,1,.3-1.84c-1.89-1.94-2.14-2.38-3.58-7.5-1.09-3.63-1.79-5.22-3.08-7a2,2,0,0,1-.55-1c0-.69,1.1-1.29,3.08-1.59a15.58,15.58,0,0,1,2.69-.36l2.63.22-.15-3.68a25.45,25.45,0,0,1,.7-6.11,16.32,16.32,0,0,0,.4-2.78c0-.22-.11-1-.25-2.29a16.84,16.84,0,0,0-.4-2,3.41,3.41,0,0,1-.3-1.14c0-.45.3-.64.8-.64A4.67,4.67,0,0,1,28,279a34.43,34.43,0,0,1,5.77,3.43c4.62,3.63,8.24,9.19,8.24,12.62l-.1,1c-.14,1.19-.25,1.89-.25,2a4.08,4.08,0,0,0,1,2.14l1.44,2a10,10,0,0,1,2.19,5.22c0,1.24-.3,1.79-2.44,4.92-1.64,2.33-2.28,4.07-2.28,6a18,18,0,0,0,2.68,8.45c1.59,2.78,3.38,4.27,5.17,4.27,3,0,4.27-2.63,4.71-9.74.25-3.73.6-7.1,1.1-10.18l.1-1.84c0-.8-.25-1.29-1.34-2.59l-4-4.67c-3.82-4.47-5-6.76-5-9.93,0-3.68,2.44-6.26,6-6.26l1.59.14v-1a14.07,14.07,0,0,1,.64-3.63c.85-2.88,1.89-5.07,2.49-5.07a4.62,4.62,0,0,1,1.29.65,12.09,12.09,0,0,0,2.38.94A15.67,15.67,0,0,1,62,279.24a11.42,11.42,0,0,1,2.13-4.67c1.74-2.23,3.68-4,4.37-4,.4,0,1.2.59,2.19,1.59l2.53,2.68a13,13,0,0,1,1.49,2.54l.5,1.24a17.75,17.75,0,0,1,1.64-1A16.06,16.06,0,0,1,79,276.46c1.59-.79,2.43-1.19,2.48-1.24a4.68,4.68,0,0,1,1.39-.7c.45,0,.7.85,1.69,5.27a27.76,27.76,0,0,1,.94,5.86c4.28.6,6.31,3,6.31,7.65,0,4.33-2.13,8.6-6.7,13.47-1.24,1.34-1.54,2-1.54,3.23,0,11.82,4.12,15.55,18.93,17.09,9.09.94,11.77,1.54,22.7,4.82,5.76,1.73,9,2.43,11.18,2.43,2.53,0,3.92-.89,3.92-2.53,0-2.49-1.78-3.29-12.42-5.52-24.74-5.22-34.48-13.66-34.48-30a19.87,19.87,0,0,1,20.32-20.37c5.12,0,9.74,1.54,17,5.72,6.7,3.92,8.09,4.57,9.63,4.57,1.79,0,2.49-1.14,2.49-4,0-1.89.59-2.78,1.74-2.78s2.68,1.09,4.17,2.78c2.19,2.64,3.08,4,3.08,7.61,0,4.81-2.58,8-7.65,9.39-.5.59-.94,1-1.19,1.34-2.74,3.08-5.17,4.12-9.54,4.12a21.88,21.88,0,0,1-11.83-3.88l-6.41-4.52c-2.78-2-4.81-2.83-6.75-2.83a4,4,0,0,0-4.37,4.37c0,2.69,1.78,4.87,4.67,5.82l6,1.84a30.61,30.61,0,0,1,5.76,2.43,16,16,0,0,1,3-.29,25,25,0,0,1,11.33,2.84,17.3,17.3,0,0,0,2.38,1l3.38.94c7.55,2.14,13.76,10.63,13.76,18.93,0,9.44-6.11,15.3-16,15.3l-3.08-.14"/><path id="path199" class="cls-3" d="M367.8,344.49c2.33,3.08,5.61,5.07,8.29,5.07a16.56,16.56,0,0,0,3.58-.55,10.89,10.89,0,0,1,1.79-.25c.64,0,.94.25.94.85a10,10,0,0,1-.69,2.48,11.13,11.13,0,0,0-.8,2.43l-.55,2.79L379,359.74l-1.88,1.74-.5.5v1.83a7.19,7.19,0,0,1-3.63,6.86l-.94.7-.25,1a31.33,31.33,0,0,1-1.34,4.67,26.86,26.86,0,0,1-2.54,3.77,23.88,23.88,0,0,0-3.37,5.47c-.55,1.34-.95,1.69-1.84,1.69-1.29,0-2.59-1.59-2.83-3.58a4.61,4.61,0,0,1-.65.8l-1.59,1.09-2.58,1.74a17.91,17.91,0,0,0-2.14,1.59l-1.44,1.49a1.21,1.21,0,0,1-.8.39c-.64,0-1.34-1.14-2-3.38l-1.34-4.37a15.54,15.54,0,0,1-.5-4.32,9.82,9.82,0,0,1,.89-4.77,17.14,17.14,0,0,0-4.77.94,4.6,4.6,0,0,1-1.19.26c-.45,0-.69-.29-.69-.8a8.07,8.07,0,0,1,.54-2l1.74-4.57c1.34-3.53,5.67-6.71,9.14-6.71a12.81,12.81,0,0,1,3.43.7,7.24,7.24,0,0,0,2,.44,2.64,2.64,0,0,0,2.78-2.58,2,2,0,0,0-1-1.74c-.25-.11-1.84-.6-4.82-1.49-2.24-.64-3.38-1.49-5.86-4.37-1.84-2.14-2.59-2.73-3.23-2.73s-.8.36-.8.94l.1,1.79,0,.79c0,3.73-1.09,7.25-3.77,12.17l-3.73,6.81c-1.79,3.23-2.53,5.66-2.53,8.15,0,2.68,1.14,5.07,2.68,5.46l2,.55a1.48,1.48,0,0,1,.69.4,1.32,1.32,0,0,1,.4.79,2.31,2.31,0,0,1-.7,1.19c-.19.29-1,1.35-2.38,3.08-2.34,3-3.78,4.13-6.56,5-1.64,3.93-4.27,6.21-8.94,7.75l-.55,1c-1.59,2.78-5.12,5.31-7.4,5.31h-.5a10.37,10.37,0,0,1-4.67,6.86,31.93,31.93,0,0,0-3.08,2.23,6,6,0,0,0-.64,1.2c-.6,1.34-1.2,1.89-1.94,1.89-1.39,0-2.58-1.35-3.43-3.88-.55.36-.94.65-1.19.8-1.54,1.09-2.39,1.64-2.54,1.74a35,35,0,0,1-4.71,1.34c-3.23.79-6.07,2.18-6.81,3.32l-1.19,2-.55.22c-.65,0-1.39-.9-1.74-2.09a35.71,35.71,0,0,1-1.19-7.5c0-4.77,1.59-7.85,6.41-12.67v-1.14c0-7.41,5.61-12.42,13.91-12.42l1.34,0,4.52.29h.45c2.48,0,4.72-.94,7.2-3,3.28-2.63,4.23-4.32,4.23-7.3,0-.95-.3-2-1.3-5.37a22.7,22.7,0,0,1-1-6.31c0-5.51,4.07-12.37,9.54-16.15,1.44-1,2.48-2.28,2.48-3,0-.29-.14-.55-.34-.55a3.39,3.39,0,0,0-1.74,1,14.46,14.46,0,0,1-3.18,2l-2.14,1-2.43.95c-.75.29-1.1.69-1.1,1.19a3.89,3.89,0,0,0,.3,1.24,2.56,2.56,0,0,1,.25,1,3.8,3.8,0,0,1-.64,1.54L315,364.8c-1.89,3-3.18,4.27-5.52,5.31-1.49,4.42-3.67,6.66-6.8,7.11-2.54,5.06-4.77,6.85-9.24,7.35-.6,1.94-1.69,3.58-4,6.16a16,16,0,0,0-1.69,2.14c-1,1.89-1.14,2-1.64,2a6.56,6.56,0,0,1-3.08-2,10.43,10.43,0,0,1-1.19-1.64l-1.19-2.14c-.4-.64-.8-1-1.29-1l-.85,0-2.93.45a9.24,9.24,0,0,0-5.36,3.08l-1.59,2.39a.77.77,0,0,1-.65.39c-1.19,0-1.94-2.63-1.94-7,0-3.83.6-6.41,1.89-8.25l3.78-5.17a4.09,4.09,0,0,0,.79-2,2.79,2.79,0,0,0-.69-1.74,4,4,0,0,0-2.14-1.59l-2.78-.4c-.5-.11-.7-.21-.7-.44a1.82,1.82,0,0,1,.4-.9A12,12,0,0,1,270,364c3.28-2,5.46-2.83,7.7-2.83a13.05,13.05,0,0,1,7,2.29l3.88,2.53a3.36,3.36,0,0,0,1.84.55c1.79,0,3.13-1,4.42-3.48a12.85,12.85,0,0,0,1.79-6.21,8.35,8.35,0,0,0-8.6-8.65,11.55,11.55,0,0,0-6.95,2.69,4.16,4.16,0,0,0-1.34,1.49l-1.05,2.38c-.25.59-.64.94-1,.94-.65,0-2.19-1.94-3.43-4.42a28.52,28.52,0,0,1-1.89-4.82,21.89,21.89,0,0,1-1.14-6.65l.2-3.63a13.58,13.58,0,0,1-2.39-8.25,14,14,0,0,1,1-4.72,9.65,9.65,0,0,1-1.49-6l.14-1.64.4-1.89.25-1.59c-1.29-1.69-1.64-2.83-2.93-8.69-.7-3.33-1.14-4.77-1.74-5.62a2.21,2.21,0,0,1-.4-.79c0-.8,1.89-1.49,4-1.49l1.89.14a6.41,6.41,0,0,1-.55-2.68,16.05,16.05,0,0,1,1-5.32,10.36,10.36,0,0,0,.85-3.27,12.38,12.38,0,0,0-.6-4.08l-1.09-2.68a5,5,0,0,1-.35-1.39c0-.25.2-.36.7-.36,2.63,0,7.6,2.83,11.57,6.56s5.17,6.65,5.17,12.17l-.25,2.93c3.68,3.18,5.27,5.81,5.27,8.69,0,2.09-.7,3.48-2.68,5.47-3.63,3.58-4.48,5.42-4.48,10,0,7.1,2.14,10.93,6.06,10.93,3.43,0,6.12-3.73,6.56-9.25l.4-5.06a46.65,46.65,0,0,1,.65-4.82,30.11,30.11,0,0,0,.39-3.48c0-1.79-1.14-4.07-4.67-8.15-3.77-4.37-5-6.75-5-10.18,0-4.08,2.83-7.11,6.7-7.11a4.71,4.71,0,0,1,2.59.75c.05-2.34.14-2.78,1.49-6,1-2.59,2.13-4.42,2.63-4.42a1.36,1.36,0,0,1,.79.54,16,16,0,0,0,1.79,1.45c.8.59,1.24.89,1.29.94a10,10,0,0,1,1.25,1.24c.79-3,1.69-4.42,4.12-6.86,1.89-1.83,2.58-2.38,2.93-2.38a1.37,1.37,0,0,1,1,.65l1.64,2.13,2.23,2.54c.9,1,1.19,1.84,1.59,4.17l1.34-.79,2.14-1.25a14.57,14.57,0,0,0,1.64-1,1.68,1.68,0,0,1,.84-.39c.2,0,.45.36.6.94l.79,3.08,1.74,3.43a6.45,6.45,0,0,1,.7,3.48v.84l.89,0c2.64,0,4.87,3.12,4.87,6.7,0,4.77-3.77,10.93-8.69,14.16a10.09,10.09,0,0,0-.6,3.58c0,10.63,2.83,12.87,19.18,15.3a89.66,89.66,0,0,1,10.93,2.23c.54.15,4.07,1.3,10.58,3.48a25.09,25.09,0,0,0,7.9,1.74c2,0,3.08-.55,3.08-1.59,0-1.84-2.68-3.48-10.88-6.71L356.42,322C344.6,317.39,339,310.19,339,299.56A21.16,21.16,0,0,1,360.7,277.9c4.67,0,9.24.94,15.8,3.37,8.44,3,8.84,3.18,9.78,3.18,1.64,0,2.54-1.09,2.79-3.48.19-2,.74-2.78,1.83-2.78,1.64,0,3.43,1.49,4.72,4a16,16,0,0,1,1.74,6.95c0,4.42-2.33,7.3-6.56,8.15A12.88,12.88,0,0,1,380,302.78c-5.31,0-7.95-1-17-6.7-3.23-2-4.62-2.54-7-2.54-3.18,0-5.57,2-5.57,4.67,0,2.44,2,4,6.41,5.22,2.68.69,3,.89,4.42,2.28a9.2,9.2,0,0,1,2.24-.36c4.32,0,9.69,2.34,14.21,6.21,8.25,2.59,15.55,11.43,15.55,18.88,0,8.25-7.11,15.65-15.1,15.65a54,54,0,0,1-10.34-1.64"/><path id="path201" class="cls-9" d="M145.92,152.67a15.29,15.29,0,0,1-.5-3.23l.1-1,.4-2.13.14-1.69c0-1.89-.29-3.24-.94-4l-1.59-2.13a9.73,9.73,0,0,1-1.34-2.59,2.91,2.91,0,0,1-.25-1.09.88.88,0,0,1,.94-1c.35,0,.5,0,1.69.8a3.16,3.16,0,0,0,1.35.45c.79,0,1.24-1.29,1.24-3.58,0-2.58-.25-4-.85-4.62l-2-2.28L142.59,123a1.64,1.64,0,0,1-.7-1.15,1,1,0,0,1,1.09-1,10.87,10.87,0,0,1,2.94.69l.64.15c.55,0,.75-.36.75-1.14l-.05-.5-.4-2.84-.8-2.93c-.25-.94-.39-1.09-1-1.09l-.35,0-3.33.64-.54,0c-4.37,0-9-3.68-10.43-8.35L127.73,97c-.79-2.68-2.78-5.27-6.41-8.2a6.09,6.09,0,0,0-2.63-1.44L116.26,87a.68.68,0,0,1-.75-.65c0-.54.55-.79,1.69-.79l4.42.4a34.22,34.22,0,0,1,7.21,1.89c4,1.34,6.7,1.93,8.94,1.93,6.71,0,10.68-3.62,10.68-9.64A16.74,16.74,0,0,0,143,68.34c-1.89-1.69-3.73-3-4.43-3a.72.72,0,0,0-.64.74l.15,1.7v.14c0,.7-.4,1.19-.95,1.19s-1.44-.89-2.28-2.68c-2.54-5.27-6.56-8.4-10.69-8.4-.69,0-1.24.29-1.24.75a7.49,7.49,0,0,0,.7,1.94l1,2.38a4.24,4.24,0,0,1,.45,1.24c0,.15-.25.29-.55.29a3.92,3.92,0,0,1-2.28-1.24l-2-2.18-1.74-2.69c-1.39-2.13-2.53-3.07-5.51-4.67-1.64-.84-2.74-1.44-3.18-1.73a3.45,3.45,0,0,0-1.69-.55c-.45,0-.7.25-.7.75a3.35,3.35,0,0,0,.5,1.44,7.51,7.51,0,0,1,1.39,2.63.78.78,0,0,1-.7.84c-1,0-3.18-2.14-5.11-5a13.77,13.77,0,0,1-2.39-7.5,9.63,9.63,0,0,1,9.89-10,20.3,20.3,0,0,1,10,3.32L127.33,42a16.85,16.85,0,0,0,7.31,2.39,18.58,18.58,0,0,0,3.92-.65,5.6,5.6,0,0,0,1.64-.7c.35-.21.6-.49.6-.74a.56.56,0,0,0-.35-.55l-.79-.29-2.93-.55a13.17,13.17,0,0,1-3.63-1.34,52.72,52.72,0,0,1-6.66-3.32A26.46,26.46,0,0,0,122,33.71c-1.09-.36-1.79-.84-1.79-1.24a.52.52,0,0,1,.6-.59,2.74,2.74,0,0,1,1.44.49,10,10,0,0,0,5,1.89l5.71,2a36,36,0,0,0,8.89,1.89,4.44,4.44,0,0,0,4.43-4.42,11.57,11.57,0,0,0-2.34-5.87c-.3-.44-.64-.69-.89-.69-.55,0-.85.39-.85,1.09l.15,1,.2,1.59A2.92,2.92,0,0,1,139.86,34a6.5,6.5,0,0,1-2.09-.45l-8.7-2.78c-7.25-2.34-10.63-3.08-14.25-3.08-10.44,0-18.34,7.16-18.34,16.55,0,10.63,7.45,17.48,25.94,23.79,18.13,6.26,20.71,7.8,20.71,12.47,0,2.69-2.73,5.07-5.76,5.07a21.54,21.54,0,0,1-3.23-.25c-.59-.15-3.63-.85-9-2.14a66.83,66.83,0,0,0-16.64-1.89c-13.12,0-20.42,2.29-26.68,8.4-1.59,1.54-2.09,1.79-3.93,1.79l-.89,0-1.84-.11-.3,0c-1.54,0-2.68.74-3.73,2.43-1.44,2.28-2.18,3.48-2.28,3.63a2,2,0,0,1-1.54.79c-1.19,0-1.94-.94-3.28-4.17a11,11,0,0,0-2.78-4l-2.69-2.43c-.44-.4-.69-.75-.69-1a2.57,2.57,0,0,1,.55-1.19,10.14,10.14,0,0,0,1.88-3.53c.35-1.74.4-1.84,1.15-1.84s1,.8,1.14,3.88a9.61,9.61,0,0,0,1,3.62l1.49,3.18a1.2,1.2,0,0,0,1.2.7c1.39,0,3.13-3.28,3.62-6.71.35-2.88.65-3.72,1.24-3.72a.75.75,0,0,1,.6.25,22,22,0,0,1,1.19,2.43,5.92,5.92,0,0,0,1.74,2,5,5,0,0,0,1.64.94h.15c1.09,0,1.44-.69,1.69-3.23L78.3,82,78,80.13l-.15-1.29c0-.89.3-1.39.79-1.39a1.66,1.66,0,0,1,1,.55L81,79.34a4,4,0,0,0,2.63,1.29c1.09,0,1.79-.45,1.79-1.14s-.25-1.29-1.24-3.13l-.9-1.74c-1.09-2-1.93-2.78-2.93-2.78L78.94,72l-1.59.65a3,3,0,0,1-1,.29.52.52,0,0,1-.45-.55c0-1.2.8-3.08,2.29-5.42,1.09-1.69,1.79-5.31,2.13-10.53.45-7,1.39-11.48,2.39-11.48.64,0,.89.55.89,2l0,1.84-.05,1.29c0,1.24.25,2.23.6,2.23,1.14,0,2.48-1.69,3.57-4.47a8.28,8.28,0,0,0,.7-2.73l-.15-.59-2.68-5-2.68-.8a1.46,1.46,0,0,1-.9-.59V34.9l-.3-1.58L81.08,32l-.65-1.44c-2.93,1.59-4.32,2.59-5.31,4s-1.69,1.94-2.19,1.94a.67.67,0,0,1-.65-.7,14.42,14.42,0,0,1,.4-2.18l.1-.75a9.1,9.1,0,0,0-4.62-7.5l-.84,1-.95,1.34-1.59,1.89a8.51,8.51,0,0,0-1.34,2.68,5.79,5.79,0,0,0-.25,1.49v.7c0,1.14-.1,1.39-.59,1.39l-.35-.15-.94-1.29-1.44-1.64-2.29-1.44-1.19-.94c-.25.54-.45.94-.55,1.19a6.31,6.31,0,0,0-.64,2.14l-.15,2.14-.15,2.28v.4c0,1.14-.25,1.64-.94,1.64a4.42,4.42,0,0,1-1.59-.7,3.83,3.83,0,0,0-1.94-.55c-2.09,0-3.38,1.45-3.38,3.68a11.54,11.54,0,0,0,2.14,7l1.69,2.28c.49.6,1.39,1.14,1.44.79l.3-2.78-.4-2.28,0-1.05c0-.84.3-1.39.79-1.39.75,0,1.2.85,1.69,3.08l1.05,5,1.09,6.26a23.75,23.75,0,0,0,1.59,5.36,25.78,25.78,0,0,0,2.29,4.68c1.44,1.88,1.63,2.18,1.63,2.58a.6.6,0,0,1-.54.65,2.65,2.65,0,0,1-1.24-.45,5.94,5.94,0,0,0-1.59-.5l-1-.14c-2.13,0-2.58,1.84-2.58,10.73,0,5.46,1.14,12.87,2.53,16.39l2.84,7.11a8.91,8.91,0,0,1,.64,3.33c0,9.73-12.92,25-27.13,32.09-5.26,2.63-6.95,5.12-7.35,10.93L26.68,154a21,21,0,0,1,4.57-1.84c4-1,4.77-1.54,5.37-3.48l.5-1.74c.25-.64.54-.89,3.62-2.53a6.34,6.34,0,0,0,2.14-1.74c.7-1.14,1.24-1.74,1.59-1.74s.5.15.5.45l-.1.5-1.35,3.77-.14.95c0,2.83,1.59,5.11,4.42,6.6.49-3.07.84-4.17,1.79-5.61L52,143.86c.9-1.39,1.29-3.07,1.29-5.71a25.57,25.57,0,0,0-.34-4.17l-.1-1.09c0-.65.34-1,.94-1s.84.15.89.4l.55,2.53a1.26,1.26,0,0,0,1.29.95c1.29,0,2.93-1.69,4.72-4.67a7.14,7.14,0,0,0,1-3.53l-.2-1.84-.4-2,0-.4c0-.89.5-1.49,1.19-1.49.3,0,.55.11.6.25l.79,3.08a2,2,0,0,0,1.74,1.74c.9,0,2.44-1.54,3.33-3.33a11.87,11.87,0,0,0,1.19-5.46c0-2.88.3-3.68,1.34-3.68a.8.8,0,0,1,.7.29l.5,1.74c.19.64.59,1.09,1,1.09s2-1.64,3-3.33a2.22,2.22,0,0,0,.4-1.24c0-.6-.35-1.14-1.19-1.84-1.4-1.19-1.5-1.34-1.5-3.08s.3-2.58,1.5-4.67c.64-1.14,1.24-2.23,1.73-3.23C79.59,96.86,80.19,96,80.84,96a1.1,1.1,0,0,1,.94,1.14,2.79,2.79,0,0,1-.25,1.09A4.13,4.13,0,0,0,81,99.84a1,1,0,0,0,1,1,5.43,5.43,0,0,0,2.33-.8A23.15,23.15,0,0,1,88,98.56L92.46,97a7.45,7.45,0,0,1,2.68-.4,9,9,0,0,1,2.39.25,19.51,19.51,0,0,0,3.08.55,2.3,2.3,0,0,0,2.28-2.24,8.25,8.25,0,0,0-2.13-4.07,2.35,2.35,0,0,1-.7-1.19l.15-.55a1,1,0,0,1,.75-.55c.89,0,3,2.29,4.86,5.22,11.53,18.13,15.65,22.55,23.4,24.89s9.94,4.22,9.94,8.89c0,2.54-1.34,5.52-4.17,9.54-5.82,8.15-7.26,11.43-7.26,16.79v1a12.28,12.28,0,0,0,1.49-.7,9.5,9.5,0,0,1,2.14-.89l3.33-.7a2.88,2.88,0,0,0,1.89-2.73v-.36l-.4-2.93-.05-.4a3.87,3.87,0,0,1,1.24-2.78.9.9,0,0,1,.7-.29,1.32,1.32,0,0,1,1,.79l2.14,4.57c.89,1.84,1.88,2.74,4.67,4"/><path id="path203" class="cls-9" d="M38.16,55.79c-.95,0-1.44.85-1.54,2.69L36.32,61a21.66,21.66,0,0,0-.3,3.23c0,1.89.54,3.33,1.34,3.33s2.18-1.64,2.83-3.48a9.33,9.33,0,0,0,.6-3.13,9,9,0,0,0-.6-3c-.45-1.34-1.24-2.14-2-2.14"/><path id="path205" class="cls-9" d="M25.88,34.93l.05,1.19c0,1.64-.39,3.63-1.78,8.74a10.26,10.26,0,0,0-.4,2.39,6,6,0,0,0,1.09,3.08A3.51,3.51,0,0,0,26,51.62l1.59.84.3,1.89a7.71,7.71,0,0,0,.4,2.93,15.29,15.29,0,0,1,.55,4c0,1.14-.1,1.59-.35,1.59-.5,0-1.39-1.39-2.23-3.43C25,56.19,23.85,55,22.06,55a8.36,8.36,0,0,0-4.17,1c.4.55.69.89.79,1.09s.5.95,1.2,2.29L21.76,63c1.3,2.54,2,3.93,2.29,4.28a5.52,5.52,0,0,0,1.84,1.88L28,70.35c.65.36,1.1.89,1.1,1.24a1,1,0,0,1-1.14,1h-.06l-1.73-.25-1-.14c-.49,0-.74.49-.74,1.49,0,3.62,2.88,7.8,7.85,11.47a2.44,2.44,0,0,1,1.09,1.44,1,1,0,0,1-1,.85,5.29,5.29,0,0,1-1.69-.55,1.82,1.82,0,0,0-.95-.29c-.64,0-1.09.55-1.09,1.39s.8,2.83,2.43,6a9.66,9.66,0,0,0,4.58,4.42l6,2.53a.86.86,0,0,1,.54.79.92.92,0,0,1-.84,1l-1.19.14-1.05.15-1.74-.15h-.3c-.79,0-1.14.15-1.14.6a12.54,12.54,0,0,0,2,4.32c1.39,2.43,2.63,3.78,3.43,3.78a1,1,0,0,0,.84-.7l1.44-3.08c.25-.5,1.44-1.44,3.48-2.63a10.52,10.52,0,0,1,3.73-1.49l2.43-.4c.65-.1.94-.54.94-1.29v-.28l-.39-2.54-.3-2.83-.25-2.54L53,90.83c0-.74-.2-1.09-.65-1.09-.3,0-.84.45-1.19.94C49.09,93.91,47.59,95,45.36,95c-7.11,0-12.52-12.52-12.52-29.12,0-1.44.1-3.27.3-5.46.34-4.27.4-5.32.4-6.91,0-7.2-1.5-12.27-4.58-15.3l-1.88-1.89-1.2-1.34"/><path id="path207" class="cls-9" d="M43.12,132.65a16.94,16.94,0,0,1-3.87-.94c-.3-.11-1.14-.5-2.54-1.05a12.8,12.8,0,0,0-5.11-1.34A8.29,8.29,0,0,0,26,131.56l1.2.94,2.68,1.89,2.53,2a3.41,3.41,0,0,0,2.24.79c2.58,0,4.87-1.19,8.44-4.52"/><path id="path209" class="cls-9" d="M94.59,157a7.52,7.52,0,0,1,2.69-3.47c3.72-3.23,5.46-5.62,5.46-7.51v-2.93c0-1.73.3-2.28,1.19-2.28a.93.93,0,0,1,.85.39l.64,1.59a1.16,1.16,0,0,0,1.15.65c.49,0,1.24-.65,1.93-1.59l1.35-1.84a4.53,4.53,0,0,0,.94-2.63,4.22,4.22,0,0,0-.3-1.54c-.1-.25-.4-1-.89-2.14a5.37,5.37,0,0,1-.55-2.09c0-.84.4-1.39,1.19-1.39a1.1,1.1,0,0,1,1,.45l1,1.29a1.44,1.44,0,0,0,1,.5,2,2,0,0,0,1.39-1.15l1-2.13a2.93,2.93,0,0,0,.44-1.2c0-.44-.44-.84-1.24-1.19l-1.74-.84c-2.28-1-4-4.72-4-8.55a3.54,3.54,0,0,1,.3-1.44l.94-2.29a6,6,0,0,0,.4-2.13,7.69,7.69,0,0,0-1.34-4.17,23.39,23.39,0,0,1-1.74-2.79c-.8-2.14-1.19-2.68-1.84-2.68l-.69.14-1,.55-1.49.8L101,105.52l-1.84.89c-1.14.6-2.18,3-2.18,4.92,0,3.48.4,4.47,5,12.37,1.78,3,2.73,5.66,2.73,7.6,0,5.52-4.92,9.39-14.76,11.78l-6.16,1.44c-4.52,1.09-7.2,4.22-8.15,9.49,1.89-.95,2.64-1.09,5.92-1.09l2,0h.3c1.79,0,2-.14,3.18-1.74a9.81,9.81,0,0,1,4.42-3.72l2.14-1,1.74-.94.5-.15c.49,0,.74.22.74.55a4.52,4.52,0,0,1-1.24,2.29,7,7,0,0,0-2.14,5.16c0,1.3.3,2,1.44,3.53"/><path id="path211" class="cls-9" d="M77.75,136.23a16.94,16.94,0,0,1,4,3.62c1.29,1.74,1.44,1.89,2.73,1.89a8.92,8.92,0,0,0,1.94-.28l1.19-.26c2.18-.39,3-.74,3-1.29a1.64,1.64,0,0,0-.7-1.09l-1.49-1.34L87,136.14a7,7,0,0,0-4.42-1.49c-1.59,0-2.53.29-4.82,1.59"/><path id="path213" class="cls-9" d="M121.07,143.48l.8-.14,1.19-.15,1.19.15.6,0c3,0,5.86-2.53,5.86-5.16,0-1-.89-1.45-2.38-1.45-3.58,0-5.86,2.09-7.26,6.71"/><path id="path215" class="cls-9" d="M395.32,152.67a9.51,9.51,0,0,1-.4-2.43l.15-1.84a41.28,41.28,0,0,0,.45-5.17,4.09,4.09,0,0,0-1-2.68l-1.59-2.13a6.15,6.15,0,0,1-1.49-3.68c0-.75.2-1,.75-1l.59.14c.1,0,.45.25,1.2.7a3.08,3.08,0,0,0,1.34.45c.79,0,1.19-1.25,1.19-3.78,0-3.48-.65-5.12-2.68-6.71L392,123a1.38,1.38,0,0,1-.55-1.09,1,1,0,0,1,1-1,6.69,6.69,0,0,1,1.54.29l1.49.39.54.11c.45,0,.7-.36.7-1.14l0-.45-.4-2.83c-.4-2.88-.89-4-1.74-4l-.25,0-3.47.65-.6,0c-4.17,0-9.09-3.92-10.38-8.34L377.28,97c-.74-2.63-3-5.46-6.41-8.2A6.88,6.88,0,0,0,368,87.31L365.66,87a.68.68,0,0,1-.75-.64c0-.55.5-.8,1.49-.8a37.41,37.41,0,0,1,11.83,2.29c4.37,1.39,6.8,1.94,8.94,1.94,6.66,0,10.68-3.48,10.68-9.24a18.16,18.16,0,0,0-2.53-8.9,21.38,21.38,0,0,0-6.26-5.86,2.21,2.21,0,0,0-1.1-.45.71.71,0,0,0-.64.7l.1,1.74.05.14c0,.65-.4,1.19-.89,1.19-.75,0-1.5-.84-2.34-2.68-2.48-5.21-6.46-8.34-10.53-8.34-.9,0-1.39.28-1.39.84a4.21,4.21,0,0,0,.69,1.79,12.54,12.54,0,0,1,1.19,2.38,3.91,3.91,0,0,1,.35,1.14c0,.26-.25.4-.65.4a3.81,3.81,0,0,1-2.23-1.24c-1.34-1.44-2-2.14-2-2.19l-1.74-2.68a13.16,13.16,0,0,0-5.36-4.67l-3.33-1.74a4.07,4.07,0,0,0-1.74-.54.56.56,0,0,0-.6.64,3,3,0,0,0,.6,1.54,7.2,7.2,0,0,1,1.24,2.63.79.79,0,0,1-.69.85c-.95,0-2.59-1.69-5-5a12.65,12.65,0,0,1-2.54-7.5,9.81,9.81,0,0,1,9.89-10c2.88,0,6.46,1.19,10,3.33L376.89,42a16.52,16.52,0,0,0,7.3,2.39,11.93,11.93,0,0,0,3.77-.65,7.23,7.23,0,0,0,1.74-.69.88.88,0,0,0,.5-.75c0-.55-.3-.79-1.14-.84-3-.22-9.19-2.64-13.27-5.22a34.56,34.56,0,0,0-4.37-2.54c-1.14-.39-1.84-.94-1.84-1.44,0-.14.2-.29.55-.29l.79.15,5.82,2.14,5.61,2a34.9,34.9,0,0,0,9,1.89,4.07,4.07,0,0,0,4.28-4.27,8.23,8.23,0,0,0-.85-3.73c-.79-1.59-1.89-3-2.28-3-.55,0-.85.55-.85,1.44l.05.7.2,1.74c0,1.78-1,3-2.53,3a6.77,6.77,0,0,1-2.19-.45l-8.69-2.78c-7.56-2.44-10.49-3.08-14.16-3.08-10.54,0-18.44,7.1-18.44,16.54,0,10.63,7.31,17.34,26,23.8,18.23,6.31,20.62,7.8,20.62,12.57,0,2.78-2.59,5-5.82,5a20.84,20.84,0,0,1-3.18-.25c-.74-.22-3.77-.9-9-2.14a64.26,64.26,0,0,0-16.64-1.89c-13.27,0-19.63,2-26.58,8.39-1.59,1.49-2.24,1.79-4,1.79l-.89,0-2.09-.15a4.15,4.15,0,0,0-3.77,2.44l-2.14,3.62a1.77,1.77,0,0,1-1.54.8c-1.39,0-2.14-1-3.43-4.18a9.92,9.92,0,0,0-2.68-4l-2.78-2.43c-.45-.37-.7-.7-.7-1a2.59,2.59,0,0,1,.7-1.24,20.78,20.78,0,0,0,1.19-1.89,4.44,4.44,0,0,0,.65-1.64l.14-1.19a.93.93,0,0,1,.95-.65c.89,0,1,.6,1.09,3.88a9.86,9.86,0,0,0,1,3.62l1.49,3.18a1.2,1.2,0,0,0,1.2.7c1.39,0,3.13-3.28,3.62-6.71.35-2.83.65-3.72,1.25-3.72s.79.29,1.93,2.68a6.64,6.64,0,0,0,1.59,2,3.89,3.89,0,0,0,1.64.94h.1c1.15,0,1.49-.7,1.74-3.23L327.7,82l-.25-1.84-.2-1.29c0-.89.3-1.39.8-1.39a1.59,1.59,0,0,1,1,.55l1.34,1.34a4.11,4.11,0,0,0,2.69,1.34c1.14,0,1.83-.55,1.83-1.34s-.14-1-1.34-3c-.1-.15-.39-.75-.94-1.74-1.14-2.24-1.69-2.79-2.73-2.79l-1.4.15-1.73.64a3.11,3.11,0,0,1-1.05.29.5.5,0,0,1-.44-.55c0-1.19.79-3.07,2.28-5.41.94-1.44,1.69-5.07,2.29-10.53l.64-6.26c.45-3.88.85-5.22,1.64-5.22.3,0,.5.11.5.25l.45,2v1.59c0,1.94.19,3.53.44,3.53.55,0,1.39-.65,2.19-1.79A8.48,8.48,0,0,0,337,47.86a12.09,12.09,0,0,0,.7-3.47c0-3.08-1.3-4.43-5.52-5.62a1.58,1.58,0,0,1-.79-.39l-.15-1.2V34.9L331,33.31,330.48,32l-.64-1.45-1,.65c-2.73,1.69-3.42,2.23-4.32,3.33-1.19,1.54-1.64,1.93-2.13,1.93a.62.62,0,0,1-.65-.59l.55-2.29v-.36c0-2.93-1.64-5.76-4.57-7.9l-.95,1-.94,1.34-1.59,1.89a6.23,6.23,0,0,0-1.49,3.93l.05.45v.44c0,1.09-.15,1.44-.65,1.44l-.3-.14-1.09-1.29-1.34-1.64L307,31.31l-1.19-.95c-1.29,2.79-1.34,3.08-1.34,6.71v1.09c0,1.19-.4,1.94-1,1.94a3.91,3.91,0,0,1-1.64-.65,3.87,3.87,0,0,0-2-.55c-1.94,0-3.38,1.64-3.38,3.93a11.48,11.48,0,0,0,2.19,6.76c1,1.73,2.38,3.18,3,3.18a13.36,13.36,0,0,0,.4-2.88l-.4-2.29-.1-1c0-.85.34-1.39.84-1.39.75,0,1.19.84,1.69,3.08l1,5,1.1,6.26a26.92,26.92,0,0,0,1.59,5.37,26.91,26.91,0,0,0,2.28,4.67c1.49,1.89,1.64,2.18,1.64,2.58a.61.61,0,0,1-.59.65,2.76,2.76,0,0,1-1.2-.45,5.71,5.71,0,0,0-1.59-.5l-1-.14c-2.19,0-2.63,1.79-2.63,10.63,0,5.56,1.14,12.92,2.53,16.49l2.83,7.11a8.73,8.73,0,0,1,.65,3.33c0,9.78-13.22,25.38-27.13,32.09-5.41,2.59-7,5.32-7.5,12.67a26.14,26.14,0,0,1,4.72-1.84c3.92-1.14,4.77-1.69,5.32-3.48l.54-1.74c.25-.74.75-1.14,3.48-2.53a5.72,5.72,0,0,0,2.14-1.74c.69-1.14,1.24-1.74,1.59-1.74s.59.26.59.7l0,.25-1.49,3.78-.15.94c0,2.79,1.59,5.12,4.42,6.61l.45-1.59a15.18,15.18,0,0,1,1.29-4l2.59-3.73c.89-1.34,1.09-2.24,1.09-5.71l-.2-4.18-.05-1.09c0-.7.3-1,.95-1,.44,0,.84.14.84.4l.4,2.53a1.27,1.27,0,0,0,1.34.94c1.29,0,2.93-1.64,4.67-4.67a6.1,6.1,0,0,0,1-3.23,32.33,32.33,0,0,0-.44-4.12l-.06-.8a1,1,0,0,1,1.05-1.09c.3,0,.59.11.64.25l.9,3.08c.34,1,1,1.74,1.79,1.74,2,0,4.17-4.17,4.37-8.69.15-2.79.5-3.78,1.34-3.78a.76.76,0,0,1,.7.29l.49,1.74c.2.64.6,1.09.95,1.09s1-.6,1.88-1.59a18.1,18.1,0,0,0,1.2-1.74,3.12,3.12,0,0,0,.39-1.44c0-.65-.14-.84-1.19-1.64a3.42,3.42,0,0,1-1.49-2.83c0-1.94.85-4,3.23-8.15,2.19-3.73,2.48-4.17,3-4.17s.9.49.9,1.14a3.11,3.11,0,0,1-.25,1.14,4.27,4.27,0,0,0-.55,1.64,1,1,0,0,0,1,1,5.8,5.8,0,0,0,2.44-.8,21.71,21.71,0,0,1,3.57-1.48c2.49-.9,4-1.45,4.58-1.59a8.23,8.23,0,0,1,2.73-.45,10.32,10.32,0,0,1,2.33.29,17.92,17.92,0,0,0,3.08.55,2.12,2.12,0,0,0,2.14-2.14,5.83,5.83,0,0,0-.79-2.29A16.87,16.87,0,0,0,350.25,91c-.54-.59-.79-.94-.79-1.19l.15-.55a.92.92,0,0,1,.74-.55c1,0,3.13,2.19,5,5.22,10.48,17.14,15.55,22.56,23.25,24.89,8,2.43,9.89,4.12,9.89,8.89,0,2.54-1.34,5.62-4.13,9.54-5.36,7.41-7.25,11.78-7.25,16.7v1.09c.65-.29,1.14-.5,1.49-.7a9.32,9.32,0,0,1,2.14-.89l3.33-.7A2.78,2.78,0,0,0,386,150v-.29l-.3-2.93v-.45c0-1.68.8-3,1.79-3a1.32,1.32,0,0,1,1.05.79l2.13,4.57c.9,1.84,1.89,2.74,4.67,4"/><path id="path217" class="cls-9" d="M285.72,61l-.15,2.14v1.29c0,2.18.35,3.13,1.15,3.13s2.28-1.69,2.88-3.48a13.46,13.46,0,0,0,.69-3.63,6.31,6.31,0,0,0-.69-2.53c-.6-1.45-1.2-2.14-1.94-2.14-1.14,0-1.69,1.49-1.94,5.22"/><path id="path219" class="cls-9" d="M275.29,34.93l0,1.19a28.51,28.51,0,0,1-.95,5.66c-.54,1.89-.79,2.88-.84,3.08a12.5,12.5,0,0,0-.25,2.39,4.85,4.85,0,0,0,2.29,4.37l1.44.84.3,1.89a9.09,9.09,0,0,0,.39,2.93,16,16,0,0,1,.55,4c0,1.09-.1,1.54-.35,1.54-.49,0-1.39-1.39-2.18-3.43-1.34-3.23-2.49-4.42-4.27-4.42a8.37,8.37,0,0,0-4.18,1,31.84,31.84,0,0,1,3.88,7c2.13,4.77,2.93,5.72,6.26,7.36.74.39,1.24.84,1.24,1.24a1.06,1.06,0,0,1-1.19,1,13.49,13.49,0,0,1-1.89-.25l-1-.11c-.5,0-.75.45-.75,1.49,0,3.58,3,7.85,8,11.43.69.5,1.09,1,1.09,1.34a.77.77,0,0,1-.45.64.87.87,0,0,1-.69.29,5.89,5.89,0,0,1-1.54-.54,2.12,2.12,0,0,0-1-.29c-.65,0-1,.59-1,1.54,0,1.24.9,3.37,2.44,5.81,1.44,2.28,3,3.82,4.42,4.42l6,2.54a.91.91,0,0,1,.55.79,1,1,0,0,1-.85.94l-1,.15-1.19.14-1.64-.14h-.25c-.85,0-1.15.14-1.15.59,0,.65.6,2,1.94,4.32,1.49,2.59,2.54,3.78,3.33,3.78.3,0,.6-.25.85-.7l1.44-3.07c.19-.4,1.39-1.3,3.47-2.64a8.78,8.78,0,0,1,3.73-1.49c3.23-.39,3.53-.59,3.53-1.88a13.32,13.32,0,0,0-.45-2.64c-.1-.69-.25-1.64-.4-2.83l-.25-2.53-.29-2.94c0-.74-.2-1.09-.65-1.09-.3,0-.75.4-1,1-1.59,2.58-3.93,4.27-5.77,4.27-7.5,0-12.57-11.87-12.57-29.36l.1-5.22.45-6.31L283,51.8c0-5.37-1.89-10.93-4.62-13.67l-1.84-1.89-1.24-1.34"/><path id="path221" class="cls-9" d="M292.53,132.65a20.3,20.3,0,0,1-6.41-2,11.9,11.9,0,0,0-5-1.39,8.37,8.37,0,0,0-5.66,2.29l1.19.94,2.68,1.89,2.54,2a3.43,3.43,0,0,0,2.28.79c2.58,0,4.82-1.19,8.4-4.52"/><path id="path223" class="cls-9" d="M344,157a7.43,7.43,0,0,1,2.68-3.47c3.73-3.23,5.47-5.62,5.47-7.51v-2.93c0-1.73.29-2.28,1.19-2.28a.86.86,0,0,1,.84.39l.65,1.59a1.12,1.12,0,0,0,1.14.6c.94,0,1.64-.7,3.28-3.38a5.08,5.08,0,0,0,1-2.63,4.47,4.47,0,0,0-.34-1.54c-.1-.25-.4-1-.95-2.14a6.39,6.39,0,0,1-.54-2.09c0-.84.44-1.39,1.24-1.39a1.16,1.16,0,0,1,.94.45l1.05,1.29c.24.29.3.5.69.5a2.42,2.42,0,0,0,1.74-1.15l1-2.13a2.69,2.69,0,0,0,.4-1.25,1.48,1.48,0,0,0-1-1.14l-1.89-.84c-2.19-1-4-4.67-4-8.3A6.16,6.16,0,0,1,359,116l.85-2.29a7,7,0,0,0,.39-2.23,8,8,0,0,0-1.34-4.08,30.8,30.8,0,0,1-1.64-2.78c-.74-2-1.19-2.63-1.88-2.63a3.07,3.07,0,0,0-1.69.64l-1.34.8-1.89,2.14-1.84.89c-1.14.59-2.19,3-2.19,5,0,2.88.6,4.47,5,12.27,1.84,3.28,2.73,5.71,2.73,7.6,0,5.42-5.56,9.94-14.6,11.77-10.83,2.19-13.22,4-14.46,10.93,1.89-.94,2.63-1.09,5.91-1.09l2,0h.3c1.79,0,2-.15,3.18-1.74a9.74,9.74,0,0,1,4.37-3.73l2.19-.94,1.68-.95.55-.14c.5,0,.75.22.75.55a4.27,4.27,0,0,1-1.3,2.28,7.84,7.84,0,0,0-2,4.38A6.42,6.42,0,0,0,344,157"/><path id="path225" class="cls-9" d="M327.16,136.23a16.7,16.7,0,0,1,4,3.62c1.29,1.74,1.44,1.89,2.73,1.89a8.92,8.92,0,0,0,1.94-.28l1.19-.26c2.29-.44,3-.74,3-1.39a1.35,1.35,0,0,0-.54-1l-1.64-1.35-1.44-1.34a7.07,7.07,0,0,0-4.23-1.49,9.34,9.34,0,0,0-5,1.59"/><path id="path227" class="cls-9" d="M370.48,143.48l.79-.14,1.34-.15,1.1.15.69,0a4.06,4.06,0,0,0,2.64-.59,12,12,0,0,0,2.53-3,3.42,3.42,0,0,0,.55-1.54c0-.9-.85-1.45-2.34-1.45-3.67,0-5.91,2-7.3,6.71"/><path id="path229" class="cls-9" d="M133,425.87l.79-1.59,1.89-2a10.07,10.07,0,0,0,2.44-7,14.65,14.65,0,0,0-.7-4.27,10.23,10.23,0,0,1-.55-2.39,1.6,1.6,0,0,1,1.3-1.64,1.7,1.7,0,0,1,1,.65l2,2.28a4.61,4.61,0,0,0,3.23,2l.14-1.84.1-2.18a15.38,15.38,0,0,0-2.93-9.05c-1-1.39-1.54-2.18-1.54-2.68a.88.88,0,0,1,.75-.94,1.29,1.29,0,0,1,.54.29c1.3.94,1.94,1.34,2.29,1.34.65,0,1.24-1.59,1.24-3.38a12.7,12.7,0,0,0-2.73-7.5c-.84-1-1.39-1.69-1.59-2a1.2,1.2,0,0,1-.3-.75,1.06,1.06,0,0,1,1.19-1c.5,0,.8.14,1.64.7a2.13,2.13,0,0,0,1,.39c1,0,1.44-1.49,1.44-5.46l0-1.64-.15-2.39c-.15-2.83-.4-3.32-1.59-3.32h-1c-6.51,0-9.59-4.18-11.23-15.26-1.24-8.05-4.23-13.76-7.9-15-2.19-.7-3-1.19-3-1.79,0-.36.59-.75,1.29-.75a7.91,7.91,0,0,1,2.48.7c5.37,2.14,9.84,3.23,13.76,3.23,6.41,0,11.43-4.72,11.43-10.73,0-4.57-2.18-9.19-6.06-13a7.7,7.7,0,0,0-3.38-2l-.2,0-.69.25.25,1.94.54,1.34.15.55a.58.58,0,0,1-.64.5,1.37,1.37,0,0,1-1-.5l-2.38-3.63c-1.89-2.83-6.11-5.26-9.19-5.26-1.1,0-1.79.49-1.79,1.29A2.68,2.68,0,0,0,126,314a5.12,5.12,0,0,1,1.19,2.13l-.14.55a1,1,0,0,1-.55.55h-.15c-.64,0-.94-.29-3.82-3.58-2.39-2.73-7.26-5.36-9.89-5.36a1.32,1.32,0,0,0-.94.39.7.7,0,0,0-.3.5,2.39,2.39,0,0,0,.94,1.49,4.75,4.75,0,0,1,1.49,2c0,.29-.34.55-.74.55-.8,0-2.49-1.15-5.67-3.63-5-3.93-7.25-7.6-7.25-11.92,0-5.17,3.73-9.25,8.44-9.25a16.76,16.76,0,0,1,8.95,3.23l6.56,5a17.43,17.43,0,0,0,10.48,3.48,5.3,5.3,0,0,0,2.33-.55c.6-.28.95-.64.95-.89s-.5-.4-1.2-.6a15.11,15.11,0,0,1-5.61-2.38l-6.71-5.07a43.5,43.5,0,0,0-5.21-3.62c-3.53-1.84-4.23-2.29-4.23-2.69,0-.21.35-.39.8-.39a2.87,2.87,0,0,1,1.14.29l3.48,1.44A43.77,43.77,0,0,1,126,289c7.11,4.82,10.78,6.36,15,6.36a6.65,6.65,0,0,0,6.95-6.71,5.45,5.45,0,0,0-.54-2.29l-.7-1.34c-.2-.5-.64-.84-.79-.69l-.4.54-.4,2.83a5.16,5.16,0,0,1-.4,1,4.82,4.82,0,0,1-.94,1.29,2.85,2.85,0,0,1-2.43.94c-2.09,0-4.43-1.09-10.69-5.06s-12-6.16-16.54-6.16A17.33,17.33,0,0,0,96.73,297c0,13.42,8.2,19.43,33.83,25,9.74,2.14,14,5,14,9.29,0,4-3.18,6.46-8.25,6.46a16.53,16.53,0,0,1-3.63-.25c-.84-.14-5.46-1.44-13.76-3.73a69.58,69.58,0,0,0-17.84-2.53c-10.08,0-16.84,3-21.46,9.44-.55.8-1.09,1.24-1.44,1.24a2.29,2.29,0,0,1-1.09-.54l-1.89-1.49a9.08,9.08,0,0,0-4.77-1.79,4.22,4.22,0,0,0-2.83,1.14,4,4,0,0,1-1.39,1c-.75,0-2.09-1.69-3.18-3.88a21.56,21.56,0,0,1-2.29-9.09c0-1.34.45-2.29,1.05-2.29.44,0,.79.36,1,1.1l1,3.87c.6,2.14,1.84,3.88,2.73,3.88.45,0,1.15-.6,2-1.64a5.88,5.88,0,0,0,1-1.84c.84-2.49,1-2.83,1.68-2.83.8,0,1.2.49,1.74,2.93a8.28,8.28,0,0,0,.85,2.28,13.23,13.23,0,0,0,1.59,2.44,2.07,2.07,0,0,0,1.39.69c1.19,0,2.28-2,2.28-4.12l0-.6L79,328.65c0-.94.14-1.24.69-1.24.3,0,.55.14,1,.64a6.9,6.9,0,0,0,2.23,1.89,5.39,5.39,0,0,0,1.94.65,2.17,2.17,0,0,0,1.29-.65,1.68,1.68,0,0,0,.55-1.09c0-.36-.45-1-1.89-2.39A17.49,17.49,0,0,1,82,321.1c-.35-1.05-.85-1.74-1.25-1.74a5.44,5.44,0,0,0-.89.29l-1.74.64-1.19.55-.45.11a1,1,0,0,1-1-.95c0-.49,1.24-1.93,2.68-3.18a4.79,4.79,0,0,0,1.74-3.62c.1-2.24.5-4,.94-4l.4-4.67a44.62,44.62,0,0,1,2-9.24c.15-.5.34-.79.49-.79.4,0,.7,1,.7,2.09v.69l-.1,1.34c0,1.74.3,2.58.79,2.58s1.25-.84,1.84-2.33l1.19-3a7.52,7.52,0,0,0,.55-2.54c0-2.58-1.59-4.47-3.73-4.47l-.94.14a3.59,3.59,0,0,1-.94.29,1.56,1.56,0,0,1-1.34-1.69l.14-1.93L81.78,283l-.55-2.78-.15-1.34-1.19.64-1.44,1.25-2.14,1.74-1.74,1.44a1.66,1.66,0,0,1-1,.39c-1,0-1.19-.25-1.19-2.33l0-.55c0-1.64-.75-3-3.48-6.21-.15-.14-.4-.45-.7-.79l-.49.94-1.49,2.38-1.49,3.78-.25,2.39c-.1.69-.35,1.24-.65,1.24s-.69-.36-1.24-1a10.32,10.32,0,0,0-5.71-3.87l-.3.94c-.45,1.54-.75,2.49-.8,2.79l-.14,2.53v1.94c0,.69-.25,1.14-.7,1.14h-.1a7.12,7.12,0,0,1-.8-.7,2.63,2.63,0,0,0-1.59-.39c-2.53,0-4.12,1.34-4.12,3.47,0,1.59.6,2.79,3,6.56,1.09,1.69,2.34,3,2.88,3,.3,0,.6-.89.6-1.93l-.25-1.59a6.66,6.66,0,0,1-.4-2c0-.74.25-1.14.65-1.14,1.19,0,2.43,3.48,2.93,8.3l.55,4.91A16.63,16.63,0,0,0,60,313.48c1.24,2.48,2.43,4.17,3.52,4.92,1.25.89,2,1.79,2,2.28a.77.77,0,0,1-.69.8c-.06,0-1-.29-2.74-.94L61,320.39c-2.68,0-3.58,1.54-3.58,6.11,0,5.57,3.73,13.57,7.9,16.89l6.16,5C74.62,350.85,77,355,77,358c0,3.88-4.28,7.75-11.63,10.38L60.91,370c-3.43,1.24-4.77,3.42-6.16,9.88a11,11,0,0,1,3.73-.69h.59l2,0c1.79,0,3.08-1,3.08-2.58v-1.2c0-.36.5-.84,1.19-1.19,1.19-.59,1.84-.89,1.89-.94l1.44-1.2a1.13,1.13,0,0,1,.75-.29.75.75,0,0,1,.74.8,4.13,4.13,0,0,1-.25,1.24,12.35,12.35,0,0,0-.74,4.57,11.32,11.32,0,0,0,2.18,7.45,10.24,10.24,0,0,1,.4-1.73A23.3,23.3,0,0,1,74,380.55c2-2.83,3.52-6.26,3.52-8.1l0-.59-.39-3.08a2,2,0,0,1,.64-1.44,1.51,1.51,0,0,1,.94-.4c.55,0,.9.36,1.35,1.34.3.75.69,1.19.94,1.19.5,0,1.39-1.24,2-2.68a7.69,7.69,0,0,0,.69-2.83,4.82,4.82,0,0,0-.4-1.69,4.6,4.6,0,0,1-.44-1.54c0-.36.1-.5.54-.9a1.42,1.42,0,0,1,.7-.25,1.7,1.7,0,0,1,.79.25l1.2.8a2,2,0,0,0,1,.45A2.82,2.82,0,0,0,89,359.59a10.87,10.87,0,0,0,1.89-3.83c0-.36-.2-.59-1-1.14-2.68-1.84-4.42-4.72-4.42-7.11a6.32,6.32,0,0,1,.4-2L87.24,342c.69-1.84,1-2.78,1.09-2.83l.4-.15c.45,0,.7.4.7,1a5.25,5.25,0,0,1-.3,1.54,7.72,7.72,0,0,0-.55,2.53A1.27,1.27,0,0,0,90,345.53a5.72,5.72,0,0,0,2.24-.5c4-1.73,7.25-2.68,9.14-2.68a7.36,7.36,0,0,1,4.87,1.74,2.41,2.41,0,0,0,1.24.55,1.15,1.15,0,0,0,.79-.55,1.49,1.49,0,0,0,.25-.7,3,3,0,0,0-.79-1.68,3.22,3.22,0,0,1-.95-1.94c0-.4.25-.65.75-.65,2.09,0,5.36,6.61,8.49,17.14,2.44,8.3,3.13,9.09,11.08,13.62,6.71,3.77,9.24,7.55,9.24,13.66s-1.64,13.66-5.11,23.75a22.59,22.59,0,0,0-1.54,7.15c0,1.39.25,2.78,1.29,6.36.5,1.74.79,2.73.94,3.08a16.63,16.63,0,0,0,1,2"/><path id="path231" class="cls-9" d="M102,407.19a22.88,22.88,0,0,1,2.53-4.57c2.19-3.28,2.93-5,2.93-6.56v-2.13c0-2,.4-2.93,1.19-2.93a.79.79,0,0,1,.7.39l.7,1.09a1,1,0,0,0,.94.55,2.54,2.54,0,0,0,1.49-1.14,9.51,9.51,0,0,0,1.54-4.77l-.15-1.44-.1-1.54c0-.8.35-1.14,1.09-1.14.5,0,.75.21,1.2,1.19.3.64.64,1.09,1,1.09a1.77,1.77,0,0,0,1.14-.84l1-1.59.79-1.2.2-.64c0-.4-.25-.75-1-1.24-2.49-1.79-3.53-4.53-3.73-9.49a37.93,37.93,0,0,0-.7-7.36c-.05-.25-.84-2.18-2.38-5.76a31.32,31.32,0,0,1-1.59-4.77c-.35-1.24-.75-1.64-1.69-1.64-3.63,0-6.36,3.13-6.36,7.2,0,2.44,1,6.21,2.83,10.88,2.59,6.46,3.23,8.8,3.23,11.08,0,4.92-1.94,7.06-8.74,9.49-7.65,2.74-11.23,6.66-12.52,13.76.59-.25,1-.39,1.29-.54a14.76,14.76,0,0,1,1.89-.65l2.13-.55c1.84-.44,3.33-1.49,3.63-2.53L97,397a1.27,1.27,0,0,1,.79-.95l1.19-.49,1.2-.55.3.55-.55,1.69a11.12,11.12,0,0,0-.3,3.13,9.59,9.59,0,0,0,2.29,6.8"/><path id="path233" class="cls-9" d="M30.16,283.54a7.34,7.34,0,0,1,.3,1.48,30.86,30.86,0,0,1-.55,3.48l-.25,2.74a22,22,0,0,0,1.19,7,9.87,9.87,0,0,1,.85,3.08l-.05.55c-.1.55-.35.94-.5.94a3.11,3.11,0,0,1-1.39-.84,7.27,7.27,0,0,0-4.92-2,16.47,16.47,0,0,0-2.28.26l.69,1.48,2,5L28,311l3,2a4.64,4.64,0,0,1,.8.8,2.13,2.13,0,0,1,.39.89.5.5,0,0,1-.54.45l-2.69.14a.64.64,0,0,0-.69.55,19.81,19.81,0,0,0,1.09,4l1.34,3.87L33,325.77l2.38,1.74a2.17,2.17,0,0,1,1.15,1.54.73.73,0,0,1-.45.74l-1.34.15c-.45,0-.7.39-.7,1,0,1,.95,2.83,2.69,5.22,2.08,2.83,3.52,3.72,5.91,3.72h2c.94,0,1.54.5,1.54,1.24s-.4,1-1.3,1.19c-1.83.4-2.38.75-2.38,1.59a2.9,2.9,0,0,0,.69,1.49l1,1.45c.89,1.24,1.89,2,2.53,2a3.24,3.24,0,0,0,1.94-1.24A8.88,8.88,0,0,1,53,344.74c4.67-1.14,5.61-1.64,5.61-2.73a3.41,3.41,0,0,0-.49-1.54,12.36,12.36,0,0,1-2-6.56c0-1.64-.4-2.79-1-2.79-.25,0-.65.4-1.1,1.05A5.9,5.9,0,0,1,49.28,335c-4.62,0-10.18-7.2-13-16.84a26.43,26.43,0,0,1-1-7.21,37.7,37.7,0,0,1,1-8.19c.89-3.88,1.39-6.06,1.49-6.51l.15-1.84c0-3.33-3-7.55-7.8-10.88"/><path id="path235" class="cls-9" d="M39.8,302.12a23.41,23.41,0,0,0-1.89,8.69c0,1.59.54,2.78,1.19,2.78.2,0,.5-.25.7-.64l1.49-2.68c.24-.45.49-.9.94-1.64a4.55,4.55,0,0,0,.94-2c0-1.54-1.49-3.53-3.38-4.52"/><path id="path237" class="cls-9" d="M54.5,362.38a7.42,7.42,0,0,0,.7.7c.54.54.89.94,1,1,2.63,2.73,3,3,4.27,3a14.75,14.75,0,0,0,5-1.34c.55-.29.89-.65.89-.95a5.1,5.1,0,0,0-1.29-1.48L63.59,362a7.65,7.65,0,0,0-3.52-1.93c-1.54,0-3.14.69-5.57,2.33"/><path id="path239" class="cls-9" d="M85.5,386.58a12.94,12.94,0,0,1,2.69,1.34,22.26,22.26,0,0,0,2.13,1.34,5.24,5.24,0,0,0,2.14.29,4.33,4.33,0,0,0,1.59-.29l2.83-1,2.68-1c.7-.25,1.19-.64,1.19-1,0-.22-.59-.5-1.49-.7a14.36,14.36,0,0,1-2-.69c-3.28-1.29-3.78-1.49-4.92-1.49a9.13,9.13,0,0,0-6.86,3.23"/><path id="path241" class="cls-9" d="M119.34,413.45c.89-2.13,1.49-2.48,4.52-2.68,3.42-.22,6.7-6.31,6.7-10.48,0-.4-.14-.75-.3-.75a2.15,2.15,0,0,0-.89.4c-1,.64-1.64,1-2,1.24l-3.87,1.74a9,9,0,0,0-4.82,7.3,9.08,9.08,0,0,0,.69,3.23"/><path id="path243" class="cls-9" d="M363,381.51l.54-1.44.55-1.89a10.61,10.61,0,0,1,1.44-2.29,10.84,10.84,0,0,0,2-6.66,5.25,5.25,0,0,0-.7-2.53,3.67,3.67,0,0,1-.4-1.29,1.28,1.28,0,0,1,.25-.6.86.86,0,0,1,.55-.39l.1,0a2.38,2.38,0,0,1,1.39.95c.55.69,1,1.09,1.34,1.09.6,0,1.24-1,1.59-2.54a7.49,7.49,0,0,0,.25-1.34,11.57,11.57,0,0,0-1.19-3.72,3.54,3.54,0,0,1-.4-1.4.82.82,0,0,1,.75-.84,3.36,3.36,0,0,1,1.79,1.14,1.59,1.59,0,0,0,1,.55c.84,0,1.44-.84,2.09-2.93a12.45,12.45,0,0,0,.54-2.09c0-.39-.2-.64-.49-.64l-.45,0-1.59.15a11.44,11.44,0,0,1-7.5-3.63l-3.73-4.52a47.45,47.45,0,0,1-3.33-4.42l-3.08-2a1.6,1.6,0,0,1-.84-1.14c0-.5.54-.79,1.29-.79s2.88.74,6.9,2.43a41.25,41.25,0,0,0,13.52,3,11.61,11.61,0,0,0,11.67-11.43c0-3.47-1.54-6.65-5.31-11.07a4.82,4.82,0,0,0-2.44-1.59.69.69,0,0,0-.74.74,4.59,4.59,0,0,0,.4,1.54,3.89,3.89,0,0,1,.24,1.24c0,.6-.19.95-.64.95-.85,0-1.69-1.39-2.44-3.78-.84-3-2.58-4.77-6.65-6.85a15.83,15.83,0,0,0-4.23-1.49c-.3,0-.44.25-.44.59a3,3,0,0,0,.54,1.59,7,7,0,0,1,1.05,2.54v.14a.7.7,0,0,1-.75.8c-.84,0-1-.22-3-3.24a15.38,15.38,0,0,0-6-4.52,6.17,6.17,0,0,0-2.29-.54h-.1c-.44,0-.84.21-.84.49a4.73,4.73,0,0,0,.59,1.25l.2.74a.68.68,0,0,1-.59.75c-.85,0-3.33-2-5.27-4.27a13.38,13.38,0,0,1-3.48-8.05c0-5.07,4.87-9.64,10.34-9.64a7.55,7.55,0,0,1,3.42.7l4.67,2.38,5.47,3.63c3.18,2.08,7.5,3.62,10.13,3.62a14.58,14.58,0,0,0,4.18-.84c1.34-.36,2.13-.84,2.13-1.34l0-.11-.44-.29-3-.25c-1.59-.14-5.32-1.84-8.25-3.73l-6.16-4-5.47-2.29c-.44-.14-.69-.44-.69-.69a.6.6,0,0,1,.59-.5c.05,0,.55.11,1.54.25l5.12,1.49a35.88,35.88,0,0,1,6.11,2.83c5.62,2.93,9.19,4.27,11.88,4.27a5.05,5.05,0,0,0,5.36-5,16.7,16.7,0,0,0-.55-3.83,4.85,4.85,0,0,0-.79-1.74,1,1,0,0,0-.65-.54c-.39,0-.59.44-.59,1.09l.05.94.05.75c0,2.48-1,3.33-3.68,3.33-2.23,0-5.21-.85-12-3.58-6.36-2.48-10.33-3.48-14.31-3.48-10,0-18.88,8.25-18.88,17.59,0,8.1,5.37,14.26,16.35,18.78l11.37,4.72c9.39,3.82,12.82,6.61,12.82,10.23,0,3.08-2.78,5-7.2,5-1.94,0-4.32-.55-8.7-1.94-10.63-3.37-17.53-4.77-23.6-4.77-9.93,0-17,2.69-22.65,8.65-.75.79-1.14,1-1.84,1a3.58,3.58,0,0,1-1.89-.75,6.64,6.64,0,0,0-2.93-1,5,5,0,0,0-3.23,1.79l-1.34,1.74c-.4.49-.79.79-1.14.79-1,0-2.68-1.64-3.78-3.63a10.72,10.72,0,0,1-1.34-3.43,23,23,0,0,1-.3-3.67l.15-2.49.4-2.68c.2-1.29.34-2,.4-2.28a.74.74,0,0,1,.64-.5c.7,0,1,.59,1,2.09v.84l-.05.59c0,3.78,1.49,7.26,3.18,7.26,1.3,0,2.44-2.29,3.43-7,.15-.89.55-1.44,1-1.44s.84.64,1.24,2.68a11.3,11.3,0,0,0,2,4.27,2.1,2.1,0,0,0,1.49,1.05c1.1,0,1.84-1.64,2.39-5.47.2-1.49.65-2.43,1.14-2.43a.67.67,0,0,1,.55.29,6.47,6.47,0,0,1,.94,1.49,3.56,3.56,0,0,0,1.49,1.29,3.27,3.27,0,0,0,1.54.54,1.87,1.87,0,0,0,1.25-.54c.59-.5.94-.9.94-1.1s-.3-.59-.8-1.14a13.35,13.35,0,0,1-2.38-4.42c-.55-1.49-1-2.48-1.19-3.08a2.16,2.16,0,0,0-.7-.94l-.4-.11-.79.11c-.15,0-1.09.36-2.83.79l-.85.14a.6.6,0,0,1-.64-.64,2.77,2.77,0,0,1,1.09-1.49c3.38-2.68,5.42-7.2,6.16-13.76.45-4,.94-5.52,2.68-7.9.35-.5.65-.8.85-.8.49,0,.79.4.79,1.2a5.3,5.3,0,0,1-.44,1.89,4.32,4.32,0,0,0-.3,1.64l.05.5.25.79,1.49-.55,1.59-1.84a10.09,10.09,0,0,0,1.74-5.46,4.18,4.18,0,0,0-1.1-3.08c-.84-1-1.39-1.44-2-1.44l-.94.1-.94,0c-.85,0-1.29-.25-1.29-.79l.24-1,.15-1.49-.84-3.33-.65-1.64-.4-1.29-.94.65-2,1.19a8.16,8.16,0,0,0-1.64,1.49c-1.88,2.29-2,2.38-2.78,2.38-.45,0-.74-.14-.74-.49l0-.55a13.24,13.24,0,0,0,.44-2.78c0-2.34-1.69-5.87-3.77-7.8-2.78,2.68-4.28,5.61-4.28,8.44v1.59c0,.65-.19.95-.59.95h-.05a1.32,1.32,0,0,1-.94-.7l-1.59-2.14c-.15-.14-.85-.69-2.14-1.74a11.1,11.1,0,0,1-1.09-.89l-.55,1a14.08,14.08,0,0,0-1.89,6.41c-.05,1.79-.2,2.34-.59,2.34a3.14,3.14,0,0,1-.85-.29c-2-1.15-2.23-1.24-3.08-1.24a4,4,0,0,0-4.07,4.27,10.08,10.08,0,0,0,1.69,4.42c1.19,2.19,3,4.17,3.82,4.17.25,0,.3-.14.3-.79V300l-.15-2.29-.25-1.73v-.22c0-.55.2-.75.6-.75q1.78,0,3.13,10.59c.8,6.21,2.53,10.48,5.22,13,.69.65,1.09,1.15,1.09,1.44a.5.5,0,0,1-.55.45,4.12,4.12,0,0,1-1.74-.69,2.81,2.81,0,0,0-1.44-.4c-1.34,0-2.83,1.54-3.13,3.23l-1.19,7.6-.94,10.68a28.58,28.58,0,0,0,.84,8.05,34.75,34.75,0,0,1,.9,6.31c0,8-5,14.36-13.22,16.79l-8.54,2.54c-5.37,1.59-7.95,5.11-8.7,11.62a6.32,6.32,0,0,1,3.88-1.59l2.53-.39a7.06,7.06,0,0,0,2.29-.7,10.87,10.87,0,0,0,1.49-1.44l2.23-2.54c.9-1,1.64-1.54,2.14-1.54.3,0,.55.4.55.8a4.38,4.38,0,0,1-.95,2.18,6.83,6.83,0,0,0-.94,3.48c0,1.69.44,2.79,2.13,5.22.25-.79.45-1.34.55-1.59a21.58,21.58,0,0,1,2-2.78c1.84-2.44,3.18-4.92,3.18-6.07.05-2,.2-2.73.74-2.73s.55.11.75,1.29a1.87,1.87,0,0,0,.39.8,1.27,1.27,0,0,0,.8.54,3.18,3.18,0,0,0,1.09-.54,9.23,9.23,0,0,0,2.14-1.89,7.86,7.86,0,0,0,1.29-2.39,8.79,8.79,0,0,0,.7-2.53V370c0-.45.19-.84.44-.84s1,.74,1.39,1.49c.35.54.5.69.9.69h0a2,2,0,0,0,1.24-.54c1.59-1.59,2.63-3.53,2.63-5l-.1-2.48-.54-2-.05-.22a.75.75,0,0,1,.64-.74c.65,0,1.29.84,2.19,2.78.45.94.84,1.39,1.24,1.39.65,0,1.14-.5,2.38-2.28l1.2-1.74a2.13,2.13,0,0,0,.39-1.34,2.16,2.16,0,0,0-.39-1.34l-1.05-1.59a2.52,2.52,0,0,1-.3-1.35,13.52,13.52,0,0,1,2-6.31,32.21,32.21,0,0,0,1.74-3.32c.2-.55.45-.8.75-.8s.44.29.44.65l-.15,1.48v2.14a1.07,1.07,0,0,0,1.15.7,4.12,4.12,0,0,0,1.39-.29l3.38-1.19a23.33,23.33,0,0,0,3-1.49c5.26-2.88,6.85-3.48,9.44-3.48,1.59,0,3.52.59,6.36,1.89a3.89,3.89,0,0,0,1.39.39,1.74,1.74,0,0,0,1.14-.64,1.86,1.86,0,0,0,.4-1,3.35,3.35,0,0,0-.55-1.64,7.18,7.18,0,0,1-.79-2,.54.54,0,0,1,.59-.59,1.78,1.78,0,0,1,1.05.69c.34.65,1.39,2.43,3,5.37,2.53,4.42,5.76,7.5,8.59,8.14l5.86,1.35c1.79.39,2.29,1.09,2.29,3.37a11.67,11.67,0,0,1-5.37,10l-4.82,3.08c-1.74,1.09-3.18,4.17-3.18,6.76a34.77,34.77,0,0,0,.95,6.85l.89-.94,2.29-1.34,2-2,1.1-2.93,1-2.68c.55-1.29,1.14-2.14,1.59-2.14s.7.74.7,2v.84c0,1.94.25,2.78,1.74,5.66"/><path id="path245" class="cls-9" d="M284,422c1.64-1.49,1.89-1.59,6.46-2.54,3.63-.74,5.32-2.38,6.11-6,.6-2.63.95-3.13,3.33-4.52a5.82,5.82,0,0,0,1.74-1.34c.3-.36.55-.55.69-.55s.45.25.45.6a5.7,5.7,0,0,1-.84,2.18,4.75,4.75,0,0,0-.55,2.59,8.73,8.73,0,0,0,1.59,5.31c.85-1.79,1.29-2.28,3.38-3.72,2.63-1.89,3.63-4,4.12-8.85.2-2,.6-3.08,1.15-3.08a.7.7,0,0,1,.59.4l.94,2a.92.92,0,0,0,.85.44,3.22,3.22,0,0,0,1.69-1l1.89-1.74c.74-.74,1.29-2.58,1.59-5.61.1-1.09.49-1.84.94-1.84a.78.78,0,0,1,.65.64l.79,2.69c.2.59.6,1,.94,1s.55-.22,1.1-.65a12.07,12.07,0,0,0,1.84-2,4.36,4.36,0,0,0,.94-2.69v-2.23a2.49,2.49,0,0,1,.55-1.49c.25-.36.44-.55.59-.55.3,0,.6.29.75.7l.49,1.49a1.54,1.54,0,0,0,1.3,1c.69,0,1.39-.6,2.48-2.14a6.91,6.91,0,0,1,.8-1,3.58,3.58,0,0,0,.94-1.74,2.42,2.42,0,0,0-.55-.94,14.73,14.73,0,0,1-2.93-9.1c0-4.42,1.69-8.19,6.81-15.1,3.08-4.17,4.82-8.05,4.82-10.73,0-.75-.35-1.14-1.05-1.14a3.39,3.39,0,0,0-1.64.49,3.09,3.09,0,0,1-1,.4,1.45,1.45,0,0,1-.89-.55l-.95-1-.64-1.09a1.37,1.37,0,0,0-1.1-.65c-.1,0-.44.11-1,.26l-1.19.14c-1.39,0-1.94.55-1.94,1.89l0,.8.05.59a7,7,0,0,1-2.43,4.22l-2.54,2.24c-3.13,2.83-5.56,7.3-5.56,10.23a23.1,23.1,0,0,0,1.14,5.82c1.19,4,1.64,5.91,1.64,7.2,0,6.41-9.84,14.86-28,24.1-9.19,4.67-11.53,7.45-11.53,13.76L284,422"/><path id="path247" class="cls-9" d="M275.19,281.8v3.32a7.77,7.77,0,0,1-.3,2.19,15.57,15.57,0,0,0-.5,3,11.08,11.08,0,0,0,1.84,6.51,9.63,9.63,0,0,1,1.39,4.47c0,.55-.25.84-.59.84a.84.84,0,0,1-.65-.39l-1.09-1.49c-.85-1.14-1.64-1.44-3.83-1.44l-2.28.14a35.93,35.93,0,0,1,1.59,4.67c1.09,4.37,1.24,4.67,3.62,6.81s2.59,2.43,2.59,3.18a1,1,0,0,1-1,1.09l-.84-.15-.55,0c-.74,0-1.39,1.34-1.39,2.83a10.08,10.08,0,0,0,.84,3.38,4.74,4.74,0,0,0,1,1.59l1.34,1.34a2,2,0,0,1,.55,1.39c0,.64-.4,1.19-.85,1.19a2.91,2.91,0,0,1-1.19-.44,2.26,2.26,0,0,0-.94-.26c-.6,0-.9.36-.9,1.1l.25,2,.8,3.48a6.43,6.43,0,0,0,1.49,2.54,6.11,6.11,0,0,0,2,1.58l2.69,1.2a1.42,1.42,0,0,1,.39,1.09.92.92,0,0,1-.89.94,11.75,11.75,0,0,1-1.39-.28L277,339c-1.34,0-1.44,0-1.44,1.09a7.85,7.85,0,0,0,.24,2.09l.55,2.13c.55,2.29,1.29,3.48,2.09,3.48a2.43,2.43,0,0,0,1-.55,16.86,16.86,0,0,1,8.25-2.78,27.41,27.41,0,0,1,6.46.65,5.62,5.62,0,0,0,1.24.36c.35,0,.45-.36.5-1.54l.25-2.39.54-4.17.4-3.08v-1.74c-.5.45-.85.75-1.09,1-2.29,2.14-3.68,2.83-6.07,2.83-6.11,0-9.63-6.91-9.63-19a126.36,126.36,0,0,1,2.08-20.07,23.35,23.35,0,0,0,.45-3.68c0-4.42-2.83-8.69-7.65-11.82"/><path id="path249" class="cls-9" d="M284.28,311.75l1.19-1.19,1.19-1.09a6.25,6.25,0,0,0,1.79-4.12,4.65,4.65,0,0,0-.44-1.89c-.45-1-1.35-1.89-1.89-1.89s-.9,1.09-1.05,2.83l-.29,2-.4,2-.1,2v1.34"/><path id="path251" class="cls-9" d="M272.51,366.4c1.34.5,1.64.75,3.08,2.39,1.83,2.19,2.88,2.68,5.31,2.68a5.43,5.43,0,0,0,1.89-.25l1.74-.54,1.34-.4c.65-.22,1-.45,1-.7s-1-1.14-2.63-2.23a27.07,27.07,0,0,0-3.23-1.89,7.05,7.05,0,0,0-3.08-.8,9.7,9.7,0,0,0-5.46,1.74"/><path id="path253" class="cls-9" d="M290.69,405.55a49.09,49.09,0,0,0,5.86-2.93c2.34-1.29,3.63-2,3.88-2.14,2.48-1.29,3.62-2.23,3.62-2.93s-1.49-1.39-4.07-1.39c-5.22,0-9.44,3.53-9.44,7.9l.15,1.49"/><path id="path255" class="cls-9" d="M344.94,371.62c1.89-.4,2.54-.89,3.48-.94l2.38.14a7.05,7.05,0,0,0,1.59-1c.45-.36,1.1-.79,1.89-1.39,2.68-1.79,2.83-1.94,2.83-2.49,0-.74-1.09-1.14-3.33-1.14-4.22,0-6.8,2-8.84,6.86"/><path id="path257" class="cls-3" d="M71,49.53l-.65-1.89-.2-1.09c0-1.09.55-1.69,2-2.23,2.63-1,3.48-1.45,4.57-2.44l1.44-1.34.15,0c.4,0,.69.44.69,1,0,1.69-1.83,4.82-3.72,8-1.39,2.38-2,3.87-2.59,3.87s-1.34-1-1.49-2.28l-.25-1.59"/><path id="path259" class="cls-3" d="M63.05,44.17l2.28,1.19a1.6,1.6,0,0,1,1,1.29l-.15.84a9.81,9.81,0,0,0-.1,2.89c-.1,2.38-1.89,2.33-2.64,2.33-.44,0-.19-.25-1.29-1.44l-2.93-3.38c-.89-1-1.69-3.38-2-6v-.36c0-.7.2-1,.8-1a3,3,0,0,1,1.49.7l3.58,2.93"/><path id="path261" class="cls-3" d="M71.09,58.08l2.14-1.34,1.24.29c1.49,0,1.84.39,1.84,2,0,2.39-1.49,3.38-4.17,10.09-1.19,3-1.39,4.67-3.18,4.67s-3.43-1.59-5-5.37l-1.74-4.27c-1.24-3-1.74-4.82-1.74-5.91s.8-1.69,2-1.69a3.86,3.86,0,0,1,1.89.55c1,.59,1.59.94,1.64.94l1.54.14.69,0,2.84-.11"/><path id="path263" class="cls-3" d="M320.8,49.93l-1.1-2.29-.2-1.09c0-1.14.5-1.64,2.19-2.23a16.36,16.36,0,0,0,4.42-2.44l1.44-1.34.15,0c.4,0,.65.44.65,1,0,1.74-1.54,4.42-3.43,7.65-1.39,2.34-2.29,4.28-2.83,4.28-.7,0-1.34-1-1.49-2.29l.19-1.19"/><path id="path265" class="cls-3" d="M312.45,44.17l2.29,1.19a1.82,1.82,0,0,1,1,1.59l-.05.55-.7,2.43-.39,2.63a.66.66,0,0,1-.7.55h-.1a6.15,6.15,0,0,1-2.88-1.84l-2-3.38a11.76,11.76,0,0,1-1.74-3.72,13.56,13.56,0,0,1-.55-2.29l-.05-.36c0-.69.25-1,.85-1a3,3,0,0,1,1.49.69l3.58,2.93"/><path id="path267" class="cls-3" d="M320.6,58.08l2-1.34.75-.15a3.37,3.37,0,0,1,3.18,3c0,1.35-1.74,2.09-2.48,4l-1.45,6c-1.09,2.88-2.48,4.27-4.22,4.27-2,0-3.53-1.59-5-5.36-.69-1.69-1.24-3.13-1.74-4.27A18,18,0,0,1,310,58.63a1.83,1.83,0,0,1,1.93-2,3.93,3.93,0,0,1,1.89.55c1,.6,1.54.9,1.59,1l1.59.14.7,0,2.93-.1"/><path id="path269" class="cls-3" d="M59.72,294l-.65-2-.15-.59c0-.22.25-.4.55-.4a3.89,3.89,0,0,1,1.59.84,3.84,3.84,0,0,0,1.89.65c3.63.94,4.37,1.64,4.37,3.38l-.1,2.23-.55,2c-.25.84-.44,1.14-.84,1.14A10.77,10.77,0,0,1,63,299.18l-1.34-1.88L59.72,294"/><path id="path271" class="cls-3" d="M75.91,297.3l-1.78,3.08c-.4.49-.65.74-.65.74h-.1c-.75,0-1.44-1.59-1.49-3.28l-.25-2.68c.2-1.09.84-1.59,2.48-1.84a8.32,8.32,0,0,0,2.74-.84A16,16,0,0,1,79,291l.2,0a.59.59,0,0,1,.6.64v.22l-1,2.29-2.93,3.18"/><path id="path273" class="cls-3" d="M72.44,306.39l2.13-1a1.86,1.86,0,0,1,1-.29c1,0,1.78.74,1.78,2.18s-1.19,3.58-2.78,6.51c-1.79,3.18-3.13,5.37-4.47,5.37-1.94,0-4.67-3-7.3-8.15a9,9,0,0,1-1-3.73c0-1.69.7-2.58,2.14-2.58a3.06,3.06,0,0,1,1.54.39l1.19.8a5.91,5.91,0,0,0,3.43,1.09,5.66,5.66,0,0,0,2.34-.55"/><path id="path275" class="cls-3" d="M304.55,290.24l1.89,1.2a19.69,19.69,0,0,0,2.68,1.44c2.09.89,2.78,1.19,2.78,2a4.73,4.73,0,0,1-.25,1.49,8.46,8.46,0,0,0-.39,1.89c-.2,1.84-1.29,2.29-2,2.29s-1.84-1.39-3.33-4a36.58,36.58,0,0,1-2.13-5.31l-.06-.55a.49.49,0,0,1,.55-.5l.3.11"/><path id="path277" class="cls-3" d="M322.63,294.91,319.55,298a11.5,11.5,0,0,0-1.34,2.93,1.46,1.46,0,0,1-.94.4h-.2a1.35,1.35,0,0,1-1.39-1.34l-.15-2.29-.15-2.23v-.15a1.4,1.4,0,0,1,1.2-1.49l2.83-.79,2.93-1.49a4.84,4.84,0,0,1,1.29-.5.69.69,0,0,1,.6.75,2.32,2.32,0,0,1-.25.84l-1.34,2.29"/><path id="path279" class="cls-3" d="M309.12,304l2,1.45a3.71,3.71,0,0,0,1.79.44,8,8,0,0,0,3.18-.84l1.73-.79a3.2,3.2,0,0,1,1.05-.26c1,0,1.89,1.1,1.89,2.54,0,1.93-1.39,4-3.48,6.95l-1.44,3.08c-1.19,1.64-2,2.29-2.93,2.29-1.59,0-2.34-.95-4.72-5.67-1.69-3.37-2.39-5.41-2.39-7.05,0-1.44.7-2.43,1.79-2.43a2.38,2.38,0,0,1,1.54.28"/><path id="path281" class="cls-9" d="M68.16,62H66.42a.79.79,0,0,0-.69.4l-.25.65.65,3.23L66.67,69c.3,1.54.85,2.18,2,2.18,1.34,0,2.14-.94,2.29-2.58l.29-2.93c.15-1.94.25-3,.25-3a1.24,1.24,0,0,0-.39-.85.94.94,0,0,0-.7-.29l-.1,0-2.14.4"/><path id="path283" class="cls-9" d="M317.52,62h-1.59a.78.78,0,0,0-.65.4,3.28,3.28,0,0,0-.4.65l.65,3.23.55,2.78c.3,1.54.54,2.18,1.69,2.18a2.62,2.62,0,0,0,2.58-2.58l.25-2.93c.2-1.94.3-3,.3-3a1.25,1.25,0,0,0-.4-.85.94.94,0,0,0-.7-.29l-.14,0-2.14.4"/><path id="path285" class="cls-9" d="M69.36,309.62l-1.49-.29h-.2c-.85,0-1.29.5-1.29,1.44a12.53,12.53,0,0,0,2.43,5.81,1.23,1.23,0,0,0,1,.55c.9,0,1.49-1.64,1.94-4.32l.4-2,0-.39c0-.8-.25-1.1-1-1.1H71l-1.59.29"/><path id="path287" class="cls-9" d="M310.86,311.36l.15,2.53a2.37,2.37,0,0,0,1.94,2.29c1.24,0,2.08-1.84,2.58-4.67a10.52,10.52,0,0,0,.3-1.89c0-1-.35-1.25-1.59-1.25l-.7,0h-.94l-.6,0c-.84,0-1.14.65-1.14,2.34v.65"/><path id="path289" class="cls-3" d="M160.37,181.84h14.16c1.59-3.38,3.78-4.87,7.16-4.87s5.46,1.44,7.4,4.87h11.58a8,8,0,0,1,7.6-4.87,7.88,7.88,0,0,1,7.25,4.87h10.73c1.64-3.13,4.17-4.87,7.11-4.87a8.31,8.31,0,0,1,7.2,4l.55.85h14.95v69.25H243v26.58h-15.4V251.09h-38.8v26.58H173.44V250.84H160.37v-69"/><path id="path291" class="cls-7" d="M165.94,245.78h85V187.5h-85Z"/><path id="path293" class="cls-9" d="M174.78,200.81a4.05,4.05,0,0,0-4,4.08,4,4,0,0,0,8.05,0,4.05,4.05,0,0,0-4-4.08"/><path id="path295" class="cls-10" d="M174.78,200.81a4.05,4.05,0,0,0-4,4.08,4,4,0,0,0,8.05,0A4.05,4.05,0,0,0,174.78,200.81Z"/><path id="path297" class="cls-9" d="M241.5,200.81a4.05,4.05,0,0,0-4,4.08,4,4,0,0,0,8.05,0,4.05,4.05,0,0,0-4-4.08"/><path id="path299" class="cls-10" d="M241.5,200.81a4.05,4.05,0,0,0-4,4.08,4,4,0,0,0,8.05,0A4.05,4.05,0,0,0,241.5,200.81Z"/><path id="path301" class="cls-9" d="M174.78,232.51a4,4,0,0,0-4,4,4.12,4.12,0,0,0,4.17,4.07,4,4,0,0,0,3.88-4.07,4,4,0,0,0-4-4"/><path id="path303" class="cls-10" d="M174.78,232.51a4,4,0,0,0-4,4,4.12,4.12,0,0,0,4.17,4.07,4,4,0,0,0,3.88-4.07,4,4,0,0,0-4-4Z"/><path id="path305" class="cls-9" d="M241.5,232.51a4.05,4.05,0,1,0,4,4,4,4,0,0,0-4-4"/><path id="path307" class="cls-10" d="M241.5,232.51a4.05,4.05,0,1,0,4,4A4,4,0,0,0,241.5,232.51Z"/><path id="path309" class="cls-9" d="M187.45,220.24a25.54,25.54,0,0,0,21,10.23c7.9,0,13.36-2.83,19.72-10.23C221.78,213.68,215.82,211,208,211a26.39,26.39,0,0,0-20.57,9.29"/><path id="path311" class="cls-3" d="M191.52,220.24c5.62-4.37,10.39-6.21,16.3-6.21s10.38,1.74,16.15,6.36c-5,5-9.44,6.86-16.25,6.86a22.56,22.56,0,0,1-16.2-7"/><path id="path313" class="cls-9" d="M198.38,218.9a16.18,16.18,0,0,0,9.19,3,16.49,16.49,0,0,0,9.79-3,22.49,22.49,0,0,0-9.64-2.29,19.25,19.25,0,0,0-9.34,2.29"/><path id="path315" class="cls-11" d="M164.75,193.46h87.39v-3H164.75Z"/><path id="path317" class="cls-9" d="M178.16,186.7v8.35a3.45,3.45,0,0,0,3.58,3.48c2.38,0,3.67-1.24,3.67-3.48V186.8c0-3.18-1.24-5.11-3.33-5.11a4.37,4.37,0,0,0-1.64.39c-.44.26-.74.4-.94.55a3.44,3.44,0,0,0-.79,1.09,5,5,0,0,0-.55,1.49v1.49"/><path id="path319" class="cls-9" d="M204.44,193.56v1.49a3.45,3.45,0,0,0,3.58,3.48c2.38,0,3.72-1.24,3.72-3.48V186.8c0-3.13-1.34-5.11-3.37-5.11-2.39,0-3.93,1.93-3.93,5v6.86"/><path id="path321" class="cls-9" d="M229.93,186.7v8.35a3.45,3.45,0,0,0,3.58,3.48c2.33,0,3.67-1.24,3.67-3.48V186.8c0-3.18-1.29-5.11-3.33-5.11a4.37,4.37,0,0,0-1.64.39,7.35,7.35,0,0,0-.94.55,3.75,3.75,0,0,0-.85,1.09,6.4,6.4,0,0,0-.49,1.49v1.49"/><path id="path323" class="cls-9" d="M176.27,267.44h7.95V257.2h-7.95Z"/><path id="path325" class="cls-9" d="M176.27,273h7.95v-3.23h-7.95Z"/><path id="path327" class="cls-9" d="M230.47,267.44h7.95V257.2h-7.95Z"/><path id="path329" class="cls-9" d="M230.47,273h7.95v-3.23h-7.95Z"/></g></g></svg>