<?xml version="1.0" encoding="UTF-8"?>
<!DOCTYPE svg PUBLIC "-//W3C//DTD SVG 1.1//EN" "http://www.w3.org/Graphics/SVG/1.1/DTD/svg11.dtd">
<svg xmlns="http://www.w3.org/2000/svg" version="1.1" width="726px" height="726px" style="shape-rendering:geometricPrecision; text-rendering:geometricPrecision; image-rendering:optimizeQuality; fill-rule:evenodd; clip-rule:evenodd" xmlns:xlink="http://www.w3.org/1999/xlink">
<g><path style="opacity:0.946" fill="#4faffe" d="M 599.5,406.5 C 598.833,406.5 598.5,406.167 598.5,405.5C 598.739,403.533 598.406,401.699 597.5,400C 570.502,399.5 543.502,399.333 516.5,399.5C 477.833,399.5 439.167,399.5 400.5,399.5C 395.167,399.5 389.833,399.5 384.5,399.5C 383.508,399.672 382.842,399.338 382.5,398.5C 427.833,398.5 473.167,398.5 518.5,398.5C 544.339,398.831 570.005,398.498 595.5,397.5C 596.656,390.011 596.822,382.345 596,374.5C 594.343,365.929 593.343,357.262 593,348.5C 591.046,343.017 590.046,337.351 590,331.5C 587.042,321.677 583.876,312.011 580.5,302.5C 578.681,294.524 576.181,286.858 573,279.5C 570.108,278.158 568.775,275.825 569,272.5C 567.637,270.316 566.137,268.316 564.5,266.5C 564.66,264.801 564.494,263.134 564,261.5C 562.439,257.536 560.439,253.869 558,250.5C 557.506,248.866 557.34,247.199 557.5,245.5C 556.5,245.5 555.5,245.5 554.5,245.5C 554.007,243.194 553.674,240.861 553.5,238.5C 552.167,238.5 550.833,238.5 549.5,238.5C 547.486,235.806 545.986,232.806 545,229.5C 543.89,227.963 542.39,227.297 540.5,227.5C 540.657,226.127 540.49,224.793 540,223.5C 536.437,219.896 533.437,215.896 531,211.5C 527.394,208.976 524.728,205.643 523,201.5C 516.291,194.289 509.124,187.622 501.5,181.5C 496.856,174.16 490.523,168.66 482.5,165C 480.294,162.963 478.294,160.797 476.5,158.5C 475.788,154.567 473.454,152.4 469.5,152C 466.885,149.745 464.219,147.579 461.5,145.5C 456.632,143.987 452.632,141.153 449.5,137C 447.527,136.505 445.527,136.338 443.5,136.5C 443.5,135.167 443.5,133.833 443.5,132.5C 440.202,132.984 437.536,131.984 435.5,129.5C 433.577,128.692 431.577,128.192 429.5,128C 428.833,127 428.167,126 427.5,125C 424.749,124.484 422.416,123.317 420.5,121.5C 417.893,120.682 415.226,120.182 412.5,120C 411.833,119 411.167,118 410.5,117C 407.833,116.333 405.167,115.667 402.5,115C 401.833,114 401.167,113 400.5,112C 397.183,111.502 393.85,111.335 390.5,111.5C 376.593,107.438 362.593,103.605 348.5,100C 346.275,99.4389 344.275,98.4389 342.5,97C 329.681,96.9777 317.014,95.6443 304.5,93C 296.507,92.5003 288.507,92.3336 280.5,92.5C 280.5,66.8333 280.5,41.1667 280.5,15.5C 306.54,15.1593 332.54,15.9926 358.5,18C 357.542,19.1475 357.875,20.1475 359.5,21C 365.833,21.3333 372.167,21.6667 378.5,22C 377.167,23 377.167,24 378.5,25C 383.5,25.3333 388.5,25.6667 393.5,26C 392.167,27 392.167,28 393.5,29C 397.821,29.499 402.154,29.6657 406.5,29.5C 406.5,30.8333 406.5,32.1667 406.5,33.5C 410.846,33.3343 415.179,33.501 419.5,34C 418.663,35.0113 418.33,36.1779 418.5,37.5C 422.514,37.3345 426.514,37.5012 430.5,38C 429.167,39 429.167,40 430.5,41C 433.482,41.498 436.482,41.6646 439.5,41.5C 439.238,42.9778 439.571,44.3112 440.5,45.5C 443.109,46.2305 445.776,46.7305 448.5,47C 447.655,48.5581 448.321,49.5581 450.5,50C 452.81,50.4966 455.143,50.6633 457.5,50.5C 457.281,51.675 457.614,52.675 458.5,53.5C 460.747,54.3742 463.08,54.7076 465.5,54.5C 465.281,55.675 465.614,56.675 466.5,57.5C 468.747,58.3742 471.08,58.7076 473.5,58.5C 473.33,59.8221 473.663,60.9887 474.5,62C 476.833,62.3333 479.167,62.6667 481.5,63C 480.167,64 480.167,65 481.5,66C 483.833,66.3333 486.167,66.6667 488.5,67C 487.167,68 487.167,69 488.5,70C 490.5,70.3333 492.5,70.6667 494.5,71C 493.359,71.7412 493.359,72.5745 494.5,73.5C 496.766,74.3142 499.1,74.8142 501.5,75C 500.167,76 500.167,77 501.5,78C 503.5,78.3333 505.5,78.6667 507.5,79C 506.167,80 506.167,81 507.5,82C 509.5,82.3333 511.5,82.6667 513.5,83C 512.167,84 512.167,85 513.5,86C 515.5,86.3333 517.5,86.6667 519.5,87C 518.167,88 518.167,89 519.5,90C 521.134,90.4935 522.801,90.6602 524.5,90.5C 523.833,94.5 525.5,96.1667 529.5,95.5C 529.384,98.9103 531.05,100.244 534.5,99.5C 534.5,100.5 534.5,101.5 534.5,102.5C 536.564,102.687 538.564,103.187 540.5,104C 539.289,104.893 539.289,105.726 540.5,106.5C 542.115,107.154 543.782,107.654 545.5,108C 544.167,109 544.167,110 545.5,111C 546.793,111.49 548.127,111.657 549.5,111.5C 549.5,112.833 549.5,114.167 549.5,115.5C 550.833,115.5 552.167,115.5 553.5,115.5C 553.5,116.833 553.5,118.167 553.5,119.5C 555.167,119.5 556.833,119.5 558.5,119.5C 558.5,120.833 558.5,122.167 558.5,123.5C 559.833,123.5 561.167,123.5 562.5,123.5C 562.5,124.833 562.5,126.167 562.5,127.5C 563.833,127.5 565.167,127.5 566.5,127.5C 566.5,128.833 566.5,130.167 566.5,131.5C 567.833,131.5 569.167,131.5 570.5,131.5C 570.5,132.833 570.5,134.167 570.5,135.5C 571.833,135.5 573.167,135.5 574.5,135.5C 574.5,136.833 574.5,138.167 574.5,139.5C 575.552,139.351 576.552,139.517 577.5,140C 577.665,141.117 577.998,142.284 578.5,143.5C 579.689,144.429 581.022,144.762 582.5,144.5C 582.5,145.833 582.5,147.167 582.5,148.5C 583.833,148.5 585.167,148.5 586.5,148.5C 586.5,149.833 586.5,151.167 586.5,152.5C 587.5,152.5 588.5,152.5 589.5,152.5C 590.31,154.798 591.144,157.132 592,159.5C 593.067,160.191 594.234,160.691 595.5,161C 594.306,163.658 595.306,164.824 598.5,164.5C 598.167,167.5 599.5,168.833 602.5,168.5C 602.137,170.911 603.137,172.411 605.5,173C 604.391,174.813 605.058,175.646 607.5,175.5C 607.5,177.167 607.5,178.833 607.5,180.5C 608.833,180.5 610.167,180.5 611.5,180.5C 611.227,182.958 612.227,184.625 614.5,185.5C 615.314,187.766 615.814,190.1 616,192.5C 617.011,193.337 618.178,193.67 619.5,193.5C 619.227,195.451 619.893,196.951 621.5,198C 620.346,198.914 620.513,199.747 622,200.5C 622.333,200.167 622.667,199.833 623,199.5C 623.495,201.473 623.662,203.473 623.5,205.5C 624.833,205.5 626.167,205.5 627.5,205.5C 627.337,207.857 627.503,210.19 628,212.5C 629.011,213.337 630.178,213.67 631.5,213.5C 631.833,216.167 632.167,218.833 632.5,221.5C 633.822,221.67 634.989,221.337 636,220.5C 635.917,223.362 636.084,226.362 636.5,229.5C 637.833,229.5 639.167,229.5 640.5,229.5C 640.5,232.167 640.5,234.833 640.5,237.5C 641.833,237.5 643.167,237.5 644.5,237.5C 644.336,240.187 644.503,242.854 645,245.5C 646,246.833 647,246.833 648,245.5C 648.498,248.482 648.665,251.482 648.5,254.5C 649.833,254.5 651.167,254.5 652.5,254.5C 652.335,258.182 652.501,261.848 653,265.5C 654.011,266.337 655.178,266.67 656.5,266.5C 656.263,270.273 656.763,273.94 658,277.5C 658.667,278.833 659.333,278.833 660,277.5C 660.333,280.833 660.667,284.167 661,287.5C 661.442,289.679 662.442,290.345 664,289.5C 664.333,293.833 664.667,298.167 665,302.5C 666.011,303.337 667.178,303.67 668.5,303.5C 668.5,308.833 668.5,314.167 668.5,319.5C 669.822,319.33 670.989,319.663 672,320.5C 674.088,348.792 674.922,377.125 674.5,405.5C 649.328,405.169 624.328,405.502 599.5,406.5 Z"/></g>
<g><path style="opacity:0.994" fill="#1a8dfe" d="M 280.5,94.5 C 298.134,95.5501 315.801,96.7168 333.5,98C 336.341,99.0624 339.008,100.396 341.5,102C 345.833,102.333 350.167,102.667 354.5,103C 356.618,103.26 358.284,104.26 359.5,106C 363.918,106.208 368.251,106.874 372.5,108C 373.167,108.667 373.833,109.333 374.5,110C 381.009,109.321 386.676,110.987 391.5,115C 395.446,116.468 399.446,117.634 403.5,118.5C 410.319,121.494 417.486,123.828 425,125.5C 427.392,128.57 430.559,130.403 434.5,131C 437.522,132.513 440.189,134.513 442.5,137C 449.881,139.7 456.215,144.033 461.5,150C 464.403,150.569 466.403,152.235 467.5,155C 470.53,156.284 473.53,157.451 476.5,158.5C 478.294,160.797 480.294,162.963 482.5,165C 490.523,168.66 496.856,174.16 501.5,181.5C 510.282,192.672 519.782,203.338 530,213.5C 533.025,220.569 537.692,226.236 544,230.5C 544.825,234.156 546.658,237.156 549.5,239.5C 554.81,246.132 558.643,253.465 561,261.5C 562.189,263.233 563.356,264.9 564.5,266.5C 567.175,273.498 570.008,280.498 573,287.5C 574.385,288.551 575.385,289.884 576,291.5C 575.853,295.988 577.353,299.655 580.5,302.5C 582.24,310.691 583.407,319.024 584,327.5C 585.252,329.001 586.252,330.668 587,332.5C 587.333,337.167 587.667,341.833 588,346.5C 588.561,348.725 589.561,350.725 591,352.5C 590.9,367.725 592.4,382.725 595.5,397.5C 570.005,398.498 544.339,398.831 518.5,398.5C 518.918,397.778 519.584,397.278 520.5,397C 545.173,396.833 569.84,396.333 594.5,395.5C 570.798,394.177 547.131,394.177 523.5,395.5C 522.205,394.902 520.872,394.402 519.5,394C 518.079,384.138 517.245,373.971 517,363.5C 516.861,360.175 515.861,357.175 514,354.5C 513.333,349.833 512.667,345.167 512,340.5C 510.307,336.059 508.307,331.726 506,327.5C 505.118,324.211 504.452,320.877 504,317.5C 502.97,315.654 501.804,313.987 500.5,312.5C 499.648,309.317 497.982,306.65 495.5,304.5C 493.404,297.532 490.737,290.866 487.5,284.5C 486.167,283.5 484.833,282.5 483.5,281.5C 481.508,278.408 480.008,275.075 479,271.5C 478,270.833 477,270.167 476,269.5C 474.25,267.266 472.75,264.932 471.5,262.5C 467.656,257.802 464.156,252.802 461,247.5C 455.767,241.968 449.934,237.301 443.5,233.5C 442.286,231.851 440.953,230.185 439.5,228.5C 435.235,226.235 431.235,223.568 427.5,220.5C 427.5,220.167 427.5,219.833 427.5,219.5C 425.59,217.438 423.257,215.938 420.5,215C 419.833,213.667 419.167,212.333 418.5,211C 413.465,207.421 407.965,204.588 402,202.5C 399.687,199.346 396.52,197.68 392.5,197.5C 388.834,196.03 385.501,193.863 382.5,191C 380.134,190.56 377.801,190.06 375.5,189.5C 375.047,188.542 374.381,187.708 373.5,187C 365.539,184.857 357.873,181.857 350.5,178C 346.514,177.501 342.514,177.334 338.5,177.5C 331.976,175.382 325.309,174.049 318.5,173.5C 316.525,171.91 314.192,170.743 311.5,170C 301.172,169.5 290.839,169.334 280.5,169.5C 280.5,144.5 280.5,119.5 280.5,94.5 Z"/></g>
<g><path style="opacity:0.977" fill="#2d99ff" d="M 280.5,92.5 C 288.507,92.3336 296.507,92.5003 304.5,93C 317.014,95.6443 329.681,96.9777 342.5,97C 344.275,98.4389 346.275,99.4389 348.5,100C 362.593,103.605 376.593,107.438 390.5,111.5C 394.068,112.941 397.734,114.441 401.5,116C 402.381,116.708 403.047,117.542 403.5,118.5C 399.446,117.634 395.446,116.468 391.5,115C 386.676,110.987 381.009,109.321 374.5,110C 373.833,109.333 373.167,108.667 372.5,108C 368.251,106.874 363.918,106.208 359.5,106C 358.284,104.26 356.618,103.26 354.5,103C 350.167,102.667 345.833,102.333 341.5,102C 339.008,100.396 336.341,99.0624 333.5,98C 315.801,96.7168 298.134,95.5501 280.5,94.5C 280.5,93.8333 280.5,93.1667 280.5,92.5 Z"/></g>
<g><path style="opacity:0.98" fill="#40a5ff" d="M 390.5,111.5 C 393.85,111.335 397.183,111.502 400.5,112C 401.167,113 401.833,114 402.5,115C 405.167,115.667 407.833,116.333 410.5,117C 411.167,118 411.833,119 412.5,120C 415.226,120.182 417.893,120.682 420.5,121.5C 422.416,123.317 424.749,124.484 427.5,125C 428.167,126 428.833,127 429.5,128C 431.577,128.192 433.577,128.692 435.5,129.5C 437.536,131.984 440.202,132.984 443.5,132.5C 443.5,133.833 443.5,135.167 443.5,136.5C 445.527,136.338 447.527,136.505 449.5,137C 452.632,141.153 456.632,143.987 461.5,145.5C 464.219,147.579 466.885,149.745 469.5,152C 473.454,152.4 475.788,154.567 476.5,158.5C 473.53,157.451 470.53,156.284 467.5,155C 466.403,152.235 464.403,150.569 461.5,150C 456.215,144.033 449.881,139.7 442.5,137C 440.189,134.513 437.522,132.513 434.5,131C 430.559,130.403 427.392,128.57 425,125.5C 417.486,123.828 410.319,121.494 403.5,118.5C 403.047,117.542 402.381,116.708 401.5,116C 397.734,114.441 394.068,112.941 390.5,111.5 Z"/></g>
<g><path style="opacity:0.97" fill="#1383ff" d="M 280.5,170.5 C 280.5,170.167 280.5,169.833 280.5,169.5C 290.839,169.334 301.172,169.5 311.5,170C 314.192,170.743 316.525,171.91 318.5,173.5C 305.979,171.302 293.312,170.302 280.5,170.5 Z"/></g>
<g><path style="opacity:0.992" fill="#0067fe" d="M 280.5,172.5 C 296.297,172.535 311.964,173.701 327.5,176C 332.836,178.705 338.502,180.038 344.5,180C 348.282,183.883 352.948,185.55 358.5,185C 359.5,186 360.5,187 361.5,188C 368.167,189.667 374.833,191.333 381.5,193C 386.212,195.405 390.878,197.905 395.5,200.5C 397.18,203.575 399.846,205.075 403.5,205C 406.067,207.341 408.733,209.675 411.5,212C 416.754,214.776 422.087,217.276 427.5,219.5C 427.5,219.833 427.5,220.167 427.5,220.5C 441.083,234.584 454.916,248.584 469,262.5C 469.333,263.833 469.667,265.167 470,266.5C 471.882,269.623 474.215,272.289 477,274.5C 477.202,276.256 477.702,277.922 478.5,279.5C 482.396,283.866 485.896,288.533 489,293.5C 488.78,297.248 490.113,300.248 493,302.5C 492.871,306.582 494.538,309.582 498,311.5C 498.004,314.792 499.17,317.458 501.5,319.5C 500.453,325.128 501.953,329.795 506,333.5C 509.013,345.184 511.846,356.851 514.5,368.5C 515.865,377.969 516.532,387.635 516.5,397.5C 491.167,397.5 465.833,397.5 440.5,397.5C 440.5,397.167 440.5,396.833 440.5,396.5C 537.833,395.833 537.833,395.167 440.5,394.5C 439.317,384.3 438.317,373.967 437.5,363.5C 434.949,355.63 431.949,347.964 428.5,340.5C 427.833,338.833 427.167,337.167 426.5,335.5C 427.029,332.396 426.029,330.063 423.5,328.5C 416.187,313.399 406.521,299.899 394.5,288C 390.104,287.27 387.27,284.77 386,280.5C 383.307,280.047 381.473,278.547 380.5,276C 374.075,272.725 368.075,268.891 362.5,264.5C 360.167,263.833 357.833,263.167 355.5,262.5C 355.167,261.833 354.833,261.167 354.5,260.5C 350.712,259.581 347.379,257.915 344.5,255.5C 341.885,254.731 339.219,254.397 336.5,254.5C 319.453,249.827 302.12,246.827 284.5,245.5C 284.5,243.5 284.5,241.5 284.5,239.5C 283.5,239.5 282.5,239.5 281.5,239.5C 280.503,217.34 280.169,195.006 280.5,172.5 Z"/></g>
<g><path style="opacity:0.945" fill="#117fff" d="M 338.5,177.5 C 342.514,177.334 346.514,177.501 350.5,178C 357.873,181.857 365.539,184.857 373.5,187C 374.381,187.708 375.047,188.542 375.5,189.5C 371.343,187.979 367.01,187.146 362.5,187C 359.379,183.408 355.379,181.575 350.5,181.5C 349.614,180.675 349.281,179.675 349.5,178.5C 345.629,178.815 341.962,178.482 338.5,177.5 Z"/></g>
<g><path style="opacity:0.98" fill="#0b76ff" d="M 280.5,170.5 C 293.312,170.302 305.979,171.302 318.5,173.5C 325.309,174.049 331.976,175.382 338.5,177.5C 341.962,178.482 345.629,178.815 349.5,178.5C 349.281,179.675 349.614,180.675 350.5,181.5C 355.379,181.575 359.379,183.408 362.5,187C 367.01,187.146 371.343,187.979 375.5,189.5C 377.801,190.06 380.134,190.56 382.5,191C 385.501,193.863 388.834,196.03 392.5,197.5C 396.52,197.68 399.687,199.346 402,202.5C 407.965,204.588 413.465,207.421 418.5,211C 419.167,212.333 419.833,213.667 420.5,215C 423.257,215.938 425.59,217.438 427.5,219.5C 422.087,217.276 416.754,214.776 411.5,212C 408.733,209.675 406.067,207.341 403.5,205C 399.846,205.075 397.18,203.575 395.5,200.5C 390.878,197.905 386.212,195.405 381.5,193C 374.833,191.333 368.167,189.667 361.5,188C 360.5,187 359.5,186 358.5,185C 352.948,185.55 348.282,183.883 344.5,180C 338.502,180.038 332.836,178.705 327.5,176C 311.964,173.701 296.297,172.535 280.5,172.5C 280.5,171.833 280.5,171.167 280.5,170.5 Z"/></g>
<g><path style="opacity:0.973" fill="#2c98ff" d="M 501.5,181.5 C 509.124,187.622 516.291,194.289 523,201.5C 524.728,205.643 527.394,208.976 531,211.5C 533.437,215.896 536.437,219.896 540,223.5C 540.49,224.793 540.657,226.127 540.5,227.5C 542.39,227.297 543.89,227.963 545,229.5C 545.986,232.806 547.486,235.806 549.5,238.5C 549.5,238.833 549.5,239.167 549.5,239.5C 546.658,237.156 544.825,234.156 544,230.5C 537.692,226.236 533.025,220.569 530,213.5C 519.782,203.338 510.282,192.672 501.5,181.5 Z"/></g>
<g><path style="opacity:0.976" fill="#0972ff" d="M 427.5,220.5 C 431.235,223.568 435.235,226.235 439.5,228.5C 440.953,230.185 442.286,231.851 443.5,233.5C 453.488,242.489 462.821,252.155 471.5,262.5C 472.75,264.932 474.25,267.266 476,269.5C 477,270.167 478,270.833 479,271.5C 480.008,275.075 481.508,278.408 483.5,281.5C 484.833,282.5 486.167,283.5 487.5,284.5C 490.737,290.866 493.404,297.532 495.5,304.5C 497.982,306.65 499.648,309.317 500.5,312.5C 500.448,314.903 500.781,317.236 501.5,319.5C 499.17,317.458 498.004,314.792 498,311.5C 494.538,309.582 492.871,306.582 493,302.5C 490.113,300.248 488.78,297.248 489,293.5C 485.896,288.533 482.396,283.866 478.5,279.5C 477.702,277.922 477.202,276.256 477,274.5C 474.215,272.289 471.882,269.623 470,266.5C 469.667,265.167 469.333,263.833 469,262.5C 454.916,248.584 441.083,234.584 427.5,220.5 Z"/></g>
<g><path style="opacity:0.922" fill="#4fb0fe" d="M 277.5,242.5 C 277.5,266.833 277.5,291.167 277.5,315.5C 276.527,317.948 276.194,320.615 276.5,323.5C 275.167,323.5 273.833,323.5 272.5,323.5C 272.5,326.167 272.5,328.833 272.5,331.5C 271.167,331.5 269.833,331.5 268.5,331.5C 268.662,333.527 268.495,335.527 268,337.5C 267.29,338.973 266.124,339.64 264.5,339.5C 265.244,342.95 263.91,344.616 260.5,344.5C 260.978,347.278 259.978,349.278 257.5,350.5C 258.609,352.214 257.942,352.881 255.5,352.5C 255.5,353.833 255.5,355.167 255.5,356.5C 254.167,356.5 252.833,356.5 251.5,356.5C 251.5,357.833 251.5,359.167 251.5,360.5C 250.167,360.5 248.833,360.5 247.5,360.5C 247.5,361.833 247.5,363.167 247.5,364.5C 246.167,364.5 244.833,364.5 243.5,364.5C 243.5,365.833 243.5,367.167 243.5,368.5C 240.05,367.756 238.384,369.09 238.5,372.5C 236.5,372.833 234.5,373.167 232.5,373.5C 232.5,374.5 232.5,375.5 232.5,376.5C 229.05,375.756 227.384,377.09 227.5,380.5C 224.031,379.887 222.031,381.221 221.5,384.5C 217.393,383.887 214.393,385.387 212.5,389C 210.527,389.495 208.527,389.662 206.5,389.5C 206.5,390.833 206.5,392.167 206.5,393.5C 203.061,393.253 199.728,393.586 196.5,394.5C 172.833,394.5 149.167,394.5 125.5,394.5C 125.5,395.5 125.5,396.5 125.5,397.5C 124.5,396.833 123.5,396.167 122.5,395.5C 121.385,390.25 121.219,384.917 122,379.5C 122.998,382.028 123.831,382.028 124.5,379.5C 125.258,372.862 125.758,366.196 126,359.5C 127,360.833 128,360.833 129,359.5C 129.333,355.5 129.667,351.5 130,347.5C 131,348.833 132,348.833 133,347.5C 133.499,343.848 133.665,340.182 133.5,336.5C 134.873,336.657 136.207,336.49 137.5,336C 137.752,333.532 138.086,331.032 138.5,328.5C 139.689,327.571 141.022,327.238 142.5,327.5C 142.5,324.833 142.5,322.167 142.5,319.5C 143.833,319.5 145.167,319.5 146.5,319.5C 146.5,318.167 146.5,316.833 146.5,315.5C 147.822,315.67 148.989,315.337 150,314.5C 149.914,312.359 150.081,310.026 150.5,307.5C 151.833,307.5 153.167,307.5 154.5,307.5C 154.5,306.167 154.5,304.833 154.5,303.5C 155.833,303.5 157.167,303.5 158.5,303.5C 158.5,302.167 158.5,300.833 158.5,299.5C 159.833,299.5 161.167,299.5 162.5,299.5C 162.5,297.833 162.5,296.167 162.5,294.5C 163.552,294.649 164.552,294.483 165.5,294C 166.833,293.333 166.833,292.667 165.5,292C 166.891,290.98 168.391,290.147 170,289.5C 170.483,288.552 170.649,287.552 170.5,286.5C 173.694,286.824 174.694,285.658 173.5,283C 175.167,282.667 176.833,282.333 178.5,282C 179.833,281 179.833,280 178.5,279C 180.167,278.667 181.833,278.333 183.5,278C 184.833,277 184.833,276 183.5,275C 185.167,274.667 186.833,274.333 188.5,274C 189.833,273 189.833,272 188.5,271C 190.81,270.503 193.143,270.337 195.5,270.5C 195.5,269.167 195.5,267.833 195.5,266.5C 197.591,266.682 199.591,266.348 201.5,265.5C 202.711,264.726 202.711,263.893 201.5,263C 204.224,262.73 206.891,262.23 209.5,261.5C 210.711,260.726 210.711,259.893 209.5,259C 212.224,258.73 214.891,258.23 217.5,257.5C 218.711,256.726 218.711,255.893 217.5,255C 220.833,254.667 224.167,254.333 227.5,254C 229.125,253.147 229.458,252.147 228.5,251C 232.5,250.667 236.5,250.333 240.5,250C 241.973,249.29 242.64,248.124 242.5,246.5C 248.509,246.666 254.509,246.499 260.5,246C 262.679,245.558 263.345,244.558 262.5,243C 267.489,242.501 272.489,242.334 277.5,242.5 Z"/></g>
<g><path style="opacity:0.732" fill="#55b6fe" d="M 281.5,241.5 C 281.5,260.833 281.5,280.167 281.5,299.5C 280.725,304.797 280.392,310.13 280.5,315.5C 279.5,315.5 278.5,315.5 277.5,315.5C 277.5,291.167 277.5,266.833 277.5,242.5C 278.959,242.567 280.292,242.234 281.5,241.5 Z"/></g>
<g><path style="opacity:0.981" fill="#1382ff" d="M 443.5,233.5 C 449.934,237.301 455.767,241.968 461,247.5C 464.156,252.802 467.656,257.802 471.5,262.5C 462.821,252.155 453.488,242.489 443.5,233.5 Z"/></g>
<g><path style="opacity:0.8" fill="#2d87eb" d="M 281.5,240.5 C 282.117,240.611 282.617,240.944 283,241.5C 283.5,260.83 283.667,280.164 283.5,299.5C 282.833,299.5 282.167,299.5 281.5,299.5C 281.5,280.167 281.5,260.833 281.5,241.5C 281.5,241.167 281.5,240.833 281.5,240.5 Z"/></g>
<g><path style="opacity:0.969" fill="#0051d0" d="M 284.5,245.5 C 302.12,246.827 319.453,249.827 336.5,254.5C 342.782,256.063 348.449,259.063 353.5,263.5C 359.627,264.485 364.627,267.318 368.5,272C 372.048,272.441 375.048,273.941 377.5,276.5C 387.463,284.963 396.629,294.297 405,304.5C 407.48,308.928 410.147,313.262 413,317.5C 414.333,318.167 415.667,318.833 417,319.5C 419.876,325.135 423.043,330.469 426.5,335.5C 427.167,337.167 427.833,338.833 428.5,340.5C 427.756,345.702 428.923,350.369 432,354.5C 431.751,359.68 433.085,364.347 436,368.5C 436.583,377.166 437.083,385.833 437.5,394.5C 414.833,394.5 392.167,394.5 369.5,394.5C 366.253,393.748 362.919,393.248 359.5,393C 360.337,391.989 360.67,390.822 360.5,389.5C 356.433,390.341 353.433,389.007 351.5,385.5C 347.311,383.45 342.977,381.783 338.5,380.5C 338.616,377.09 336.95,375.756 333.5,376.5C 333.5,375.5 333.5,374.5 333.5,373.5C 330.778,371.221 327.112,369.388 322.5,368C 323.451,367.282 323.617,366.449 323,365.5C 321.601,364.773 320.101,364.273 318.5,364C 319.833,363 319.833,362 318.5,361C 317.207,360.51 315.873,360.343 314.5,360.5C 314.5,359.167 314.5,357.833 314.5,356.5C 312.058,356.881 311.391,356.214 312.5,354.5C 310.441,353.049 309.441,351.049 309.5,348.5C 308.167,348.5 306.833,348.5 305.5,348.5C 305.5,347.167 305.5,345.833 305.5,344.5C 304.178,344.67 303.011,344.337 302,343.5C 301.667,341.167 301.333,338.833 301,336.5C 299.989,335.663 298.822,335.33 297.5,335.5C 297.5,334.167 297.5,332.833 297.5,331.5C 296.167,331.5 294.833,331.5 293.5,331.5C 293.5,328.833 293.5,326.167 293.5,323.5C 292.167,323.5 290.833,323.5 289.5,323.5C 289.322,320.121 289.322,316.955 289.5,314C 288.405,312.325 286.905,311.158 285,310.5C 284.812,306.622 284.646,302.956 284.5,299.5C 284.5,281.5 284.5,263.5 284.5,245.5 Z"/></g>
<g><path style="opacity:0.969" fill="#3da3ff" d="M 549.5,238.5 C 550.833,238.5 552.167,238.5 553.5,238.5C 553.674,240.861 554.007,243.194 554.5,245.5C 555.5,245.5 556.5,245.5 557.5,245.5C 557.34,247.199 557.506,248.866 558,250.5C 560.439,253.869 562.439,257.536 564,261.5C 564.494,263.134 564.66,264.801 564.5,266.5C 563.356,264.9 562.189,263.233 561,261.5C 558.643,253.465 554.81,246.132 549.5,239.5C 549.5,239.167 549.5,238.833 549.5,238.5 Z"/></g>
<g><path style="opacity:0.769" fill="#1065dc" d="M 281.5,240.5 C 281.5,240.167 281.5,239.833 281.5,239.5C 282.5,239.5 283.5,239.5 284.5,239.5C 284.5,241.5 284.5,243.5 284.5,245.5C 284.5,263.5 284.5,281.5 284.5,299.5C 284.167,299.5 283.833,299.5 283.5,299.5C 283.667,280.164 283.5,260.83 283,241.5C 282.617,240.944 282.117,240.611 281.5,240.5 Z"/></g>
<g><path style="opacity:0.908" fill="#359eff" d="M 564.5,266.5 C 566.137,268.316 567.637,270.316 569,272.5C 568.775,275.825 570.108,278.158 573,279.5C 576.181,286.858 578.681,294.524 580.5,302.5C 577.353,299.655 575.853,295.988 576,291.5C 575.385,289.884 574.385,288.551 573,287.5C 570.008,280.498 567.175,273.498 564.5,266.5 Z"/></g>
<g><path style="opacity:0.941" fill="#005ce6" d="M 336.5,254.5 C 339.219,254.397 341.885,254.731 344.5,255.5C 347.379,257.915 350.712,259.581 354.5,260.5C 354.833,261.167 355.167,261.833 355.5,262.5C 357.833,263.167 360.167,263.833 362.5,264.5C 368.075,268.891 374.075,272.725 380.5,276C 381.473,278.547 383.307,280.047 386,280.5C 387.27,284.77 390.104,287.27 394.5,288C 406.521,299.899 416.187,313.399 423.5,328.5C 426.029,330.063 427.029,332.396 426.5,335.5C 423.043,330.469 419.876,325.135 417,319.5C 415.667,318.833 414.333,318.167 413,317.5C 410.147,313.262 407.48,308.928 405,304.5C 396.629,294.297 387.463,284.963 377.5,276.5C 375.048,273.941 372.048,272.441 368.5,272C 364.627,267.318 359.627,264.485 353.5,263.5C 348.449,259.063 342.782,256.063 336.5,254.5 Z"/></g>
<g><path style="opacity:0.999" fill="#0059e0" d="M 428.5,340.5 C 431.949,347.964 434.949,355.63 437.5,363.5C 438.317,373.967 439.317,384.3 440.5,394.5C 439.5,394.5 438.5,394.5 437.5,394.5C 437.083,385.833 436.583,377.166 436,368.5C 433.085,364.347 431.751,359.68 432,354.5C 428.923,350.369 427.756,345.702 428.5,340.5 Z"/></g>
<g><path style="opacity:0.973" fill="#0975ff" d="M 501.5,319.5 C 502.117,319.611 502.617,319.944 503,320.5C 503.333,322.833 503.667,325.167 504,327.5C 506.632,332.676 508.965,338.009 511,343.5C 511.849,351.904 513.016,360.238 514.5,368.5C 511.846,356.851 509.013,345.184 506,333.5C 501.953,329.795 500.453,325.128 501.5,319.5 Z"/></g>
<g><path style="opacity:0.934" fill="#2b97ff" d="M 580.5,302.5 C 583.876,312.011 587.042,321.677 590,331.5C 590.046,337.351 591.046,343.017 593,348.5C 593.343,357.262 594.343,365.929 596,374.5C 596.822,382.345 596.656,390.011 595.5,397.5C 592.4,382.725 590.9,367.725 591,352.5C 589.561,350.725 588.561,348.725 588,346.5C 587.667,341.833 587.333,337.167 587,332.5C 586.252,330.668 585.252,329.001 584,327.5C 583.407,319.024 582.24,310.691 580.5,302.5 Z"/></g>
<g><path style="opacity:0.741" fill="#0049d4" d="M 369.5,394.5 C 392.167,394.5 414.833,394.5 437.5,394.5C 438.5,394.5 439.5,394.5 440.5,394.5C 440.5,395.167 440.5,395.833 440.5,396.5C 440.5,396.833 440.5,397.167 440.5,397.5C 420.833,397.5 401.167,397.5 381.5,397.5C 377.154,397.666 372.821,397.499 368.5,397C 369.252,396.329 369.586,395.496 369.5,394.5 Z"/></g>
<g><path style="opacity:1" fill="#005dfe" d="M 440.5,394.5 C 537.833,395.167 537.833,395.833 440.5,396.5C 440.5,395.833 440.5,395.167 440.5,394.5 Z"/></g>
<g><path style="opacity:0.998" fill="#1380f7" d="M 500.5,312.5 C 501.804,313.987 502.97,315.654 504,317.5C 504.452,320.877 505.118,324.211 506,327.5C 508.307,331.726 510.307,336.059 512,340.5C 512.667,345.167 513.333,349.833 514,354.5C 515.861,357.175 516.861,360.175 517,363.5C 517.245,373.971 518.079,384.138 519.5,394C 520.872,394.402 522.205,394.902 523.5,395.5C 547.131,394.177 570.798,394.177 594.5,395.5C 569.84,396.333 545.173,396.833 520.5,397C 519.584,397.278 518.918,397.778 518.5,398.5C 473.167,398.5 427.833,398.5 382.5,398.5C 381.833,398.5 381.5,398.167 381.5,397.5C 401.167,397.5 420.833,397.5 440.5,397.5C 465.833,397.5 491.167,397.5 516.5,397.5C 516.532,387.635 515.865,377.969 514.5,368.5C 513.016,360.238 511.849,351.904 511,343.5C 508.965,338.009 506.632,332.676 504,327.5C 503.667,325.167 503.333,322.833 503,320.5C 502.617,319.944 502.117,319.611 501.5,319.5C 500.781,317.236 500.448,314.903 500.5,312.5 Z"/></g>
<g><path style="opacity:0.598" fill="#4cb6fc" d="M 196.5,394.5 C 196.414,395.496 196.748,396.329 197.5,397C 192.785,397.281 188.118,397.781 183.5,398.5C 163.993,398.83 144.659,398.497 125.5,397.5C 125.5,396.5 125.5,395.5 125.5,394.5C 149.167,394.5 172.833,394.5 196.5,394.5 Z"/></g>
<g><path style="opacity:0.943" fill="#fe1ebf" d="M 122.5,396.5 C 122.833,397.167 123.167,397.833 123.5,398.5C 123.557,399.609 123.89,400.609 124.5,401.5C 126.134,413.069 126.967,424.736 127,436.5C 129.344,444.657 132.01,452.657 135,460.5C 135.417,461.756 136.25,462.423 137.5,462.5C 138.857,463.59 139.857,464.924 140.5,466.5C 142.016,470.542 144.182,474.209 147,477.5C 147.333,479.833 147.667,482.167 148,484.5C 149,485.167 150,485.833 151,486.5C 152.773,490.825 155.44,494.492 159,497.5C 162.012,501.644 165.179,505.811 168.5,510C 169.745,510.791 171.078,511.291 172.5,511.5C 177.324,516.481 182.657,520.981 188.5,525C 189.833,525.333 191.167,525.667 192.5,526C 198.271,531.206 204.605,535.372 211.5,538.5C 212.778,539.749 213.778,541.249 214.5,543C 221.409,545.789 228.409,548.456 235.5,551C 240.962,550.821 245.962,552.154 250.5,555C 261.085,554.892 271.419,555.725 281.5,557.5C 281.5,583.167 281.5,608.833 281.5,634.5C 272.833,634.5 264.167,634.5 255.5,634.5C 255.863,632.089 254.863,630.589 252.5,630C 245.476,629.831 238.476,629.331 231.5,628.5C 230.91,627.201 229.91,626.368 228.5,626C 224.179,625.501 219.846,625.334 215.5,625.5C 215.5,624.5 215.5,623.5 215.5,622.5C 211.548,621.728 207.548,621.395 203.5,621.5C 203.64,619.876 202.973,618.71 201.5,618C 198.167,617.667 194.833,617.333 191.5,617C 192.711,616.107 192.711,615.274 191.5,614.5C 188.557,613.756 185.557,613.256 182.5,613C 183.815,611.605 183.481,610.605 181.5,610C 179.19,609.503 176.857,609.337 174.5,609.5C 174.5,608.167 174.5,606.833 174.5,605.5C 171.813,605.664 169.146,605.497 166.5,605C 167.833,604 167.833,603 166.5,602C 164.19,601.503 161.857,601.337 159.5,601.5C 159.5,600.167 159.5,598.833 159.5,597.5C 157.143,597.663 154.81,597.497 152.5,597C 153.833,596 153.833,595 152.5,594C 150.5,593.667 148.5,593.333 146.5,593C 147.833,592 147.833,591 146.5,590C 144.866,589.506 143.199,589.34 141.5,589.5C 141.5,588.167 141.5,586.833 141.5,585.5C 137.842,586.32 135.509,584.987 134.5,581.5C 133.264,580.754 131.93,580.421 130.5,580.5C 130.833,577.5 129.5,576.167 126.5,576.5C 126.567,573.234 124.901,571.734 121.5,572C 122.641,571.259 122.641,570.425 121.5,569.5C 120.311,568.571 118.978,568.238 117.5,568.5C 117.5,567.167 117.5,565.833 117.5,564.5C 116.167,564.5 114.833,564.5 113.5,564.5C 113.5,563.167 113.5,561.833 113.5,560.5C 112.167,560.5 110.833,560.5 109.5,560.5C 109.5,559.167 109.5,557.833 109.5,556.5C 108.167,556.5 106.833,556.5 105.5,556.5C 105.5,555.167 105.5,553.833 105.5,552.5C 104.167,552.5 102.833,552.5 101.5,552.5C 101.5,551.167 101.5,549.833 101.5,548.5C 100.167,548.5 98.8333,548.5 97.5,548.5C 97.5,547.167 97.5,545.833 97.5,544.5C 96.1667,544.5 94.8333,544.5 93.5,544.5C 93.1667,541.833 92.8333,539.167 92.5,536.5C 91.1266,536.657 89.7932,536.49 88.5,536C 90.1612,532.85 89.1612,531.35 85.5,531.5C 85.8633,529.089 84.8633,527.589 82.5,527C 83.3402,525.334 82.8402,525.167 81,526.5C 80.6948,524.443 80.6948,522.443 81,520.5C 79.6439,519.62 78.1439,519.286 76.5,519.5C 76.5,516.833 76.5,514.167 76.5,511.5C 75.1667,511.5 73.8333,511.5 72.5,511.5C 72.6633,509.143 72.4966,506.81 72,504.5C 70.9887,503.663 69.8221,503.33 68.5,503.5C 68.5,500.833 68.5,498.167 68.5,495.5C 67.1667,495.5 65.8333,495.5 64.5,495.5C 61.8465,489.392 60.3465,482.726 60,475.5C 58.9887,474.663 57.8221,474.33 56.5,474.5C 56.5,470.5 56.5,466.5 56.5,462.5C 55.1667,462.5 53.8333,462.5 52.5,462.5C 50.937,440.87 50.2703,419.204 50.5,397.5C 74.5747,397.823 98.5747,397.49 122.5,396.5 Z"/></g>
<g><path style="opacity:0.936" fill="#8077d8" d="M 122.5,395.5 C 123.5,396.167 124.5,396.833 125.5,397.5C 144.659,398.497 163.993,398.83 183.5,398.5C 183.5,399.167 183.167,399.5 182.5,399.5C 162.757,399.821 143.091,399.487 123.5,398.5C 123.167,397.833 122.833,397.167 122.5,396.5C 122.5,396.167 122.5,395.833 122.5,395.5 Z"/></g>
<g><path style="opacity:0.903" fill="#1aa9f0" d="M 516.5,399.5 C 543.502,399.333 570.502,399.5 597.5,400C 598.406,401.699 598.739,403.533 598.5,405.5C 598.167,405.5 597.833,405.5 597.5,405.5C 597.714,403.856 597.38,402.356 596.5,401C 569.664,400.832 542.997,400.332 516.5,399.5 Z"/></g>
<g><path style="opacity:0.877" fill="#ae42b1" d="M 123.5,398.5 C 143.091,399.487 162.757,399.821 182.5,399.5C 180.052,400.473 177.385,400.806 174.5,400.5C 158.851,401.363 143.184,401.696 127.5,401.5C 126.833,401.5 126.167,401.5 125.5,401.5C 125.167,401.5 124.833,401.5 124.5,401.5C 123.89,400.609 123.557,399.609 123.5,398.5 Z"/></g>
<g><path style="opacity:0.879" fill="#03b5af" d="M 384.5,399.5 C 389.833,399.5 395.167,399.5 400.5,399.5C 438.5,400.167 476.5,400.833 514.5,401.5C 490.833,401.5 467.167,401.5 443.5,401.5C 426.148,401.729 408.815,401.396 391.5,400.5C 388.941,400.802 386.607,400.468 384.5,399.5 Z"/></g>
<g><path style="opacity:0.245" fill="#00cd95" d="M 391.5,401.5 C 394.32,401.248 396.986,401.748 399.5,403C 399.167,403.333 398.833,403.667 398.5,404C 391.842,404.5 385.175,404.666 378.5,404.5C 378.586,403.504 378.252,402.671 377.5,402C 382.155,401.501 386.821,401.334 391.5,401.5 Z"/></g>
<g><path style="opacity:0.999" fill="#06e5b0" d="M 443.5,401.5 C 467.167,401.5 490.833,401.5 514.5,401.5C 515.167,401.833 515.833,402.167 516.5,402.5C 516.833,403.167 517.167,403.833 517.5,404.5C 516.602,405.158 515.602,405.824 514.5,406.5C 516.042,408.879 516.709,411.546 516.5,414.5C 514.963,428.584 513.13,442.584 511,456.5C 508.451,460.815 507.118,465.481 507,470.5C 505.274,472.228 503.941,474.228 503,476.5C 501.242,481.424 499.742,486.424 498.5,491.5C 497.522,491.977 496.689,492.643 496,493.5C 493.425,498.645 491.425,503.978 490,509.5C 484.658,515.518 480.325,522.185 477,529.5C 473.111,532.278 470.445,535.944 469,540.5C 465.29,544.208 461.957,548.208 459,552.5C 453.061,558.194 447.228,564.027 441.5,570C 437.557,571.61 434.557,574.277 432.5,578C 427.517,579.984 423.517,583.15 420.5,587.5C 415.898,588.985 411.898,591.485 408.5,595C 401.297,598.185 394.297,601.851 387.5,606C 382.884,605.729 378.884,607.063 375.5,610C 371.731,609.811 368.898,611.311 367,614.5C 364.865,615.127 362.698,615.627 360.5,616C 356.757,618.828 352.424,620.161 347.5,620C 346.167,620.667 345.167,621.667 344.5,623C 336.257,622.916 328.257,624.249 320.5,627C 311.73,627.037 303.063,627.871 294.5,629.5C 290.377,628.098 287.044,629.098 284.5,632.5C 284.232,630.901 284.566,629.568 285.5,628.5C 286.458,628.047 287.292,627.381 288,626.5C 288.5,602.836 288.667,579.169 288.5,555.5C 297.173,555.666 305.84,555.5 314.5,555C 319.448,552.407 324.782,551.074 330.5,551C 333.979,548.211 337.979,546.878 342.5,547C 350.258,540.729 358.924,536.229 368.5,533.5C 369.18,532.14 369.847,530.807 370.5,529.5C 382.369,523.468 392.869,515.468 402,505.5C 402.483,504.552 402.649,503.552 402.5,502.5C 405.766,502.567 407.266,500.901 407,497.5C 410.053,494.113 412.72,490.447 415,486.5C 416.154,485.257 417.488,484.257 419,483.5C 421.92,475.512 425.587,467.845 430,460.5C 432.555,454.891 434.388,449.058 435.5,443C 437.459,441.7 438.626,439.867 439,437.5C 439.463,429.36 440.63,421.36 442.5,413.5C 442.386,410.783 442.052,408.116 441.5,405.5C 442.345,404.329 443.011,402.995 443.5,401.5 Z"/></g>
<g><path style="opacity:0.886" fill="#12bdd8" d="M 400.5,399.5 C 439.167,399.5 477.833,399.5 516.5,399.5C 542.997,400.332 569.664,400.832 596.5,401C 597.38,402.356 597.714,403.856 597.5,405.5C 597.167,405.5 596.833,405.5 596.5,405.5C 596.586,404.504 596.252,403.671 595.5,403C 569.169,402.5 542.835,402.333 516.5,402.5C 515.833,402.167 515.167,401.833 514.5,401.5C 476.5,400.833 438.5,400.167 400.5,399.5 Z"/></g>
<g><path style="opacity:0.968" fill="#cf1794" d="M 174.5,400.5 C 174.5,400.833 174.5,401.167 174.5,401.5C 172.023,401.051 170.023,401.717 168.5,403.5C 175.134,404.497 181.8,404.83 188.5,404.5C 192.064,405.423 195.731,405.756 199.5,405.5C 199.33,406.822 199.663,407.989 200.5,409C 203.146,409.497 205.813,409.664 208.5,409.5C 208.33,410.822 208.663,411.989 209.5,413C 212.167,413.333 214.833,413.667 217.5,414C 216.167,415 216.167,416 217.5,417C 219.5,417.333 221.5,417.667 223.5,418C 222.167,419 222.167,420 223.5,421C 225.833,421.333 228.167,421.667 230.5,422C 229.167,423 229.167,424 230.5,425C 232.167,425.333 233.833,425.667 235.5,426C 234.167,427 234.167,428 235.5,429C 236.793,429.49 238.127,429.657 239.5,429.5C 239.5,430.833 239.5,432.167 239.5,433.5C 242.541,433.406 244.207,434.906 244.5,438C 245.448,438.483 246.448,438.649 247.5,438.5C 247.433,441.766 249.099,443.266 252.5,443C 251.639,445.321 252.639,446.487 255.5,446.5C 255.167,449.5 256.5,450.833 259.5,450.5C 259.297,452.39 259.963,453.89 261.5,455C 260.306,457.658 261.306,458.824 264.5,458.5C 264.5,459.833 264.5,461.167 264.5,462.5C 265.833,462.5 267.167,462.5 268.5,462.5C 268.337,464.857 268.503,467.19 269,469.5C 270.011,470.337 271.178,470.67 272.5,470.5C 272.337,472.857 272.503,475.19 273,477.5C 274.011,478.337 275.178,478.67 276.5,478.5C 276.264,481.609 276.597,484.609 277.5,487.5C 277.5,509.5 277.5,531.5 277.5,553.5C 269.304,554.701 260.971,554.534 252.5,553C 247.484,550.49 242.151,548.824 236.5,548C 235.833,547.333 235.167,546.667 234.5,546C 231.833,545.667 229.167,545.333 226.5,545C 221.575,542.53 216.575,540.363 211.5,538.5C 204.605,535.372 198.271,531.206 192.5,526C 191.167,525.667 189.833,525.333 188.5,525C 182.657,520.981 177.324,516.481 172.5,511.5C 169.615,506.941 165.948,502.941 161.5,499.5C 158.116,494.065 155.282,488.398 153,482.5C 149.044,478.914 146.377,474.58 145,469.5C 143.871,467.859 142.371,466.859 140.5,466.5C 141.036,463.335 140.203,460.669 138,458.5C 135.229,448.888 132.562,439.221 130,429.5C 129.981,420.03 129.148,410.697 127.5,401.5C 143.184,401.696 158.851,401.363 174.5,400.5 Z"/></g>
<g><path style="opacity:0.201" fill="#da098a" d="M 174.5,401.5 C 179.511,401.334 184.511,401.501 189.5,402C 188.748,402.671 188.414,403.504 188.5,404.5C 181.8,404.83 175.134,404.497 168.5,403.5C 170.023,401.717 172.023,401.051 174.5,401.5 Z"/></g>
<g><path style="opacity:0.967" fill="#00c49a" d="M 391.5,401.5 C 391.5,401.167 391.5,400.833 391.5,400.5C 408.815,401.396 426.148,401.729 443.5,401.5C 443.011,402.995 442.345,404.329 441.5,405.5C 440.536,414.406 439.036,423.739 437,433.5C 434.855,437.934 433.522,442.6 433,447.5C 429.379,457.411 425.379,467.078 421,476.5C 415.954,483.036 410.621,489.369 405,495.5C 405.132,499.033 403.465,501.033 400,501.5C 398.799,504.872 396.966,507.872 394.5,510.5C 386.991,517.701 378.991,524.034 370.5,529.5C 363.012,533.05 355.679,536.884 348.5,541C 341.61,543.98 334.61,546.647 327.5,549C 321.237,549.286 315.237,550.619 309.5,553C 303.115,553.793 296.782,553.626 290.5,552.5C 289.186,553.313 288.019,554.313 287,555.5C 286.832,579.337 286.332,603.004 285.5,626.5C 286.16,592.483 285.493,558.817 283.5,525.5C 283.5,518.167 283.5,510.833 283.5,503.5C 284.167,499.833 284.833,496.167 285.5,492.5C 285.168,503.187 285.501,513.854 286.5,524.5C 287.499,513.52 287.832,502.52 287.5,491.5C 288.977,487.767 289.811,483.767 290,479.5C 291.011,478.663 292.178,478.33 293.5,478.5C 293.5,475.833 293.5,473.167 293.5,470.5C 294.833,470.5 296.167,470.5 297.5,470.5C 297.5,467.833 297.5,465.167 297.5,462.5C 298.833,462.5 300.167,462.5 301.5,462.5C 301.5,461.167 301.5,459.833 301.5,458.5C 302.833,458.5 304.167,458.5 305.5,458.5C 305.5,456.833 305.5,455.167 305.5,453.5C 307.942,453.646 308.609,452.813 307.5,451C 309.863,450.411 310.863,448.911 310.5,446.5C 313.5,446.833 314.833,445.5 314.5,442.5C 317.5,442.833 318.833,441.5 318.5,438.5C 319.822,438.67 320.989,438.337 322,437.5C 322.401,435.479 323.568,434.145 325.5,433.5C 326.429,432.311 326.762,430.978 326.5,429.5C 328.167,429.5 329.833,429.5 331.5,429.5C 331.5,428.167 331.5,426.833 331.5,425.5C 333.5,425.5 335.5,425.5 337.5,425.5C 337.67,424.178 337.337,423.011 336.5,422C 338.81,421.503 341.143,421.337 343.5,421.5C 343.5,420.167 343.5,418.833 343.5,417.5C 345.527,417.662 347.527,417.495 349.5,417C 350.337,415.989 350.67,414.822 350.5,413.5C 353.482,413.896 356.149,413.229 358.5,411.5C 358.291,410.914 357.957,410.414 357.5,410C 360.167,409.667 362.833,409.333 365.5,409C 366.337,407.989 366.67,406.822 366.5,405.5C 370.566,405.693 374.566,405.36 378.5,404.5C 385.175,404.666 391.842,404.5 398.5,404C 398.833,403.667 399.167,403.333 399.5,403C 396.986,401.748 394.32,401.248 391.5,401.5 Z"/></g>
<g><path style="opacity:0.953" fill="#10e7cb" d="M 516.5,402.5 C 542.835,402.333 569.169,402.5 595.5,403C 596.252,403.671 596.586,404.504 596.5,405.5C 570.241,404.51 543.908,404.176 517.5,404.5C 517.167,403.833 516.833,403.167 516.5,402.5 Z"/></g>
<g><path style="opacity:0.947" fill="#0afebe" d="M 517.5,404.5 C 543.908,404.176 570.241,404.51 596.5,405.5C 596.833,405.5 597.167,405.5 597.5,405.5C 597.285,407.179 597.952,408.179 599.5,408.5C 599.666,418.506 599.5,428.506 599,438.5C 598.586,438.043 598.086,437.709 597.5,437.5C 596.719,438.729 596.219,440.062 596,441.5C 595.667,449.5 595.333,457.5 595,465.5C 594.333,464.833 593.667,464.167 593,463.5C 591.826,468.75 591.159,474.084 591,479.5C 590.333,480.833 589.667,480.833 589,479.5C 587.855,484.083 587.189,488.749 587,493.5C 586.29,494.973 585.124,495.64 583.5,495.5C 582.526,498.863 582.36,502.197 583,505.5C 581.951,507.107 580.451,507.773 578.5,507.5C 578.665,510.518 578.498,513.518 578,516.5C 577.667,516.167 577.333,515.833 577,515.5C 574.87,519.172 574.037,523.172 574.5,527.5C 573.167,527.5 571.833,527.5 570.5,527.5C 570.813,530.247 570.48,532.914 569.5,535.5C 568.833,535.833 568.167,536.167 567.5,536.5C 566.686,538.766 566.186,541.1 566,543.5C 564.989,544.337 563.822,544.67 562.5,544.5C 562.5,547.167 562.5,549.833 562.5,552.5C 561.167,552.5 559.833,552.5 558.5,552.5C 558.66,554.199 558.494,555.866 558,557.5C 557.586,557.043 557.086,556.709 556.5,556.5C 555.723,558.781 554.723,560.948 553.5,563C 553.833,563.333 554.167,563.667 554.5,564C 553.207,564.49 551.873,564.657 550.5,564.5C 550.5,566.167 550.5,567.833 550.5,569.5C 549.5,569.5 548.5,569.5 547.5,569.5C 546.833,571.833 546.167,574.167 545.5,576.5C 542.466,576.609 541.466,577.943 542.5,580.5C 541.311,581.429 539.978,581.762 538.5,581.5C 538.477,583.927 537.977,586.26 537,588.5C 535.989,589.337 534.822,589.67 533.5,589.5C 533.5,590.833 533.5,592.167 533.5,593.5C 532.167,593.5 530.833,593.5 529.5,593.5C 529.5,594.833 529.5,596.167 529.5,597.5C 528.167,597.5 526.833,597.5 525.5,597.5C 525.5,598.833 525.5,600.167 525.5,601.5C 524.5,601.5 523.5,601.5 522.5,601.5C 522.5,602.833 522.5,604.167 522.5,605.5C 521.022,605.238 519.689,605.571 518.5,606.5C 518.173,608.667 517.506,611.001 516.5,613.5C 514.319,613.284 512.653,614.117 511.5,616C 511.833,616.333 512.167,616.667 512.5,617C 510.382,617.26 508.716,618.26 507.5,620C 507.833,620.333 508.167,620.667 508.5,621C 506.382,621.26 504.716,622.26 503.5,624C 503.833,624.333 504.167,624.667 504.5,625C 502.564,625.813 500.564,626.313 498.5,626.5C 498.616,629.91 496.95,631.244 493.5,630.5C 493.5,631.833 493.5,633.167 493.5,634.5C 492.127,634.343 490.793,634.51 489.5,635C 488.167,636 488.167,637 489.5,638C 487.866,638.494 486.199,638.66 484.5,638.5C 484.5,639.833 484.5,641.167 484.5,642.5C 482.833,642.5 481.167,642.5 479.5,642.5C 479.5,643.833 479.5,645.167 479.5,646.5C 477.801,646.34 476.134,646.506 474.5,647C 473.167,648 473.167,649 474.5,650C 472.527,650.495 470.527,650.662 468.5,650.5C 468.5,651.833 468.5,653.167 468.5,654.5C 465.843,654.162 463.51,654.829 461.5,656.5C 461.709,657.086 462.043,657.586 462.5,658C 460.5,658.333 458.5,658.667 456.5,659C 455.167,660 455.167,661 456.5,662C 454.5,662.333 452.5,662.667 450.5,663C 449.663,664.011 449.33,665.178 449.5,666.5C 447.473,666.338 445.473,666.505 443.5,667C 442.663,668.011 442.33,669.178 442.5,670.5C 439.335,669.964 436.669,670.797 434.5,673C 434.833,673.333 435.167,673.667 435.5,674C 432.883,674.822 430.216,675.322 427.5,675.5C 427.5,676.5 427.5,677.5 427.5,678.5C 425.143,678.337 422.81,678.503 420.5,679C 418.963,680.11 418.297,681.61 418.5,683.5C 415.278,683.108 412.278,683.608 409.5,685C 410.167,685.667 410.833,686.333 411.5,687C 407.833,687.333 404.167,687.667 400.5,688C 399.167,689 399.167,690 400.5,691C 396.833,691.333 393.167,691.667 389.5,692C 388.167,693 388.167,694 389.5,695C 385.5,695.333 381.5,695.667 377.5,696C 376.167,697 376.167,698 377.5,699C 372.833,699.333 368.167,699.667 363.5,700C 361.875,700.853 361.542,701.853 362.5,703C 356.5,703.333 350.5,703.667 344.5,704C 343.167,705 343.167,706 344.5,707C 323.191,708.526 301.858,709.359 280.5,709.5C 280.5,685.5 280.5,661.5 280.5,637.5C 283.167,637.167 285.833,636.833 288.5,636.5C 288.5,635.167 288.5,633.833 288.5,632.5C 301.743,630.677 315.077,629.177 328.5,628C 342.52,623.996 356.52,619.996 370.5,616C 379.332,611.418 388.332,607.084 397.5,603C 403.941,598.63 410.608,594.63 417.5,591C 418.365,589.641 419.365,588.474 420.5,587.5C 423.517,583.15 427.517,579.984 432.5,578C 434.557,574.277 437.557,571.61 441.5,570C 447.228,564.027 453.061,558.194 459,552.5C 461.957,548.208 465.29,544.208 469,540.5C 470.445,535.944 473.111,532.278 477,529.5C 480.325,522.185 484.658,515.518 490,509.5C 491.425,503.978 493.425,498.645 496,493.5C 496.689,492.643 497.522,491.977 498.5,491.5C 499.742,486.424 501.242,481.424 503,476.5C 503.941,474.228 505.274,472.228 507,470.5C 507.118,465.481 508.451,460.815 511,456.5C 513.13,442.584 514.963,428.584 516.5,414.5C 516.709,411.546 516.042,408.879 514.5,406.5C 515.602,405.824 516.602,405.158 517.5,404.5 Z"/></g>
<g><path style="opacity:0.027" fill="#24e2d3" d="M 597.5,405.5 C 597.833,405.5 598.167,405.5 598.5,405.5C 598.5,406.167 598.833,406.5 599.5,406.5C 599.5,407.167 599.5,407.833 599.5,408.5C 597.952,408.179 597.285,407.179 597.5,405.5 Z"/></g>
<g><path style="opacity:0.878" fill="#db189f" d="M 125.5,401.5 C 126.167,401.5 126.833,401.5 127.5,401.5C 129.148,410.697 129.981,420.03 130,429.5C 132.562,439.221 135.229,448.888 138,458.5C 140.203,460.669 141.036,463.335 140.5,466.5C 139.857,464.924 138.857,463.59 137.5,462.5C 136.504,457.214 134.671,452.214 132,447.5C 129.445,432.247 127.279,416.914 125.5,401.5 Z"/></g>
<g><path style="opacity:1" fill="#ef1cb1" d="M 124.5,401.5 C 124.833,401.5 125.167,401.5 125.5,401.5C 127.279,416.914 129.445,432.247 132,447.5C 134.671,452.214 136.504,457.214 137.5,462.5C 136.25,462.423 135.417,461.756 135,460.5C 132.01,452.657 129.344,444.657 127,436.5C 126.967,424.736 126.134,413.069 124.5,401.5 Z"/></g>
<g><path style="opacity:0.961" fill="#03d6a6" d="M 441.5,405.5 C 442.052,408.116 442.386,410.783 442.5,413.5C 440.63,421.36 439.463,429.36 439,437.5C 438.626,439.867 437.459,441.7 435.5,443C 434.388,449.058 432.555,454.891 430,460.5C 425.587,467.845 421.92,475.512 419,483.5C 417.488,484.257 416.154,485.257 415,486.5C 412.72,490.447 410.053,494.113 407,497.5C 407.266,500.901 405.766,502.567 402.5,502.5C 402.649,503.552 402.483,504.552 402,505.5C 392.869,515.468 382.369,523.468 370.5,529.5C 378.991,524.034 386.991,517.701 394.5,510.5C 396.966,507.872 398.799,504.872 400,501.5C 403.465,501.033 405.132,499.033 405,495.5C 410.621,489.369 415.954,483.036 421,476.5C 425.379,467.078 429.379,457.411 433,447.5C 433.522,442.6 434.855,437.934 437,433.5C 439.036,423.739 440.536,414.406 441.5,405.5 Z"/></g>
<g><path style="opacity:0.44" fill="#00d59b" d="M 287.5,491.5 C 287.832,502.52 287.499,513.52 286.5,524.5C 285.501,513.854 285.168,503.187 285.5,492.5C 285.842,491.662 286.508,491.328 287.5,491.5 Z"/></g>
<g><path style="opacity:0.949" fill="#e81bab" d="M 140.5,466.5 C 142.371,466.859 143.871,467.859 145,469.5C 146.377,474.58 149.044,478.914 153,482.5C 155.282,488.398 158.116,494.065 161.5,499.5C 165.948,502.941 169.615,506.941 172.5,511.5C 171.078,511.291 169.745,510.791 168.5,510C 165.179,505.811 162.012,501.644 159,497.5C 155.44,494.492 152.773,490.825 151,486.5C 150,485.833 149,485.167 148,484.5C 147.667,482.167 147.333,479.833 147,477.5C 144.182,474.209 142.016,470.542 140.5,466.5 Z"/></g>
<g><path style="opacity:1" fill="#d4249b" d="M 277.5,487.5 C 278.5,487.5 279.5,487.5 280.5,487.5C 280.303,492.974 280.969,498.308 282.5,503.5C 282.832,547.337 282.499,591.003 281.5,634.5C 281.5,608.833 281.5,583.167 281.5,557.5C 281.5,556.167 281.5,554.833 281.5,553.5C 280.167,553.5 278.833,553.5 277.5,553.5C 277.5,531.5 277.5,509.5 277.5,487.5 Z"/></g>
<g><path style="opacity:0.98" fill="#ed1baf" d="M 211.5,538.5 C 216.575,540.363 221.575,542.53 226.5,545C 229.167,545.333 231.833,545.667 234.5,546C 235.167,546.667 235.833,547.333 236.5,548C 242.151,548.824 247.484,550.49 252.5,553C 260.971,554.534 269.304,554.701 277.5,553.5C 278.833,553.5 280.167,553.5 281.5,553.5C 281.5,554.833 281.5,556.167 281.5,557.5C 271.419,555.725 261.085,554.892 250.5,555C 245.962,552.154 240.962,550.821 235.5,551C 228.409,548.456 221.409,545.789 214.5,543C 213.778,541.249 212.778,539.749 211.5,538.5 Z"/></g>
<g><path style="opacity:1" fill="#50a4ae" d="M 283.5,525.5 C 285.493,558.817 286.16,592.483 285.5,626.5C 285.5,627.167 285.5,627.833 285.5,628.5C 284.566,629.568 284.232,630.901 284.5,632.5C 284.5,633.167 284.167,633.5 283.5,633.5C 283.5,597.5 283.5,561.5 283.5,525.5 Z"/></g>
<g><path style="opacity:1" fill="#0ed9ac" d="M 370.5,529.5 C 369.847,530.807 369.18,532.14 368.5,533.5C 358.924,536.229 350.258,540.729 342.5,547C 337.979,546.878 333.979,548.211 330.5,551C 324.782,551.074 319.448,552.407 314.5,555C 305.84,555.5 297.173,555.666 288.5,555.5C 288.667,579.169 288.5,602.836 288,626.5C 287.292,627.381 286.458,628.047 285.5,628.5C 285.5,627.833 285.5,627.167 285.5,626.5C 286.332,603.004 286.832,579.337 287,555.5C 288.019,554.313 289.186,553.313 290.5,552.5C 296.782,553.626 303.115,553.793 309.5,553C 315.237,550.619 321.237,549.286 327.5,549C 334.61,546.647 341.61,543.98 348.5,541C 355.679,536.884 363.012,533.05 370.5,529.5 Z"/></g>
<g><path style="opacity:0.952" fill="#09f3b8" d="M 420.5,587.5 C 419.365,588.474 418.365,589.641 417.5,591C 410.608,594.63 403.941,598.63 397.5,603C 388.332,607.084 379.332,611.418 370.5,616C 356.52,619.996 342.52,623.996 328.5,628C 315.077,629.177 301.743,630.677 288.5,632.5C 288.5,633.833 288.5,635.167 288.5,636.5C 285.833,636.833 283.167,637.167 280.5,637.5C 280.5,636.833 280.833,636.5 281.5,636.5C 282.906,636.027 283.573,635.027 283.5,633.5C 284.167,633.5 284.5,633.167 284.5,632.5C 287.044,629.098 290.377,628.098 294.5,629.5C 303.063,627.871 311.73,627.037 320.5,627C 328.257,624.249 336.257,622.916 344.5,623C 345.167,621.667 346.167,620.667 347.5,620C 352.424,620.161 356.757,618.828 360.5,616C 362.698,615.627 364.865,615.127 367,614.5C 368.898,611.311 371.731,609.811 375.5,610C 378.884,607.063 382.884,605.729 387.5,606C 394.297,601.851 401.297,598.185 408.5,595C 411.898,591.485 415.898,588.985 420.5,587.5 Z"/></g>
<g><path style="opacity:0.62" fill="#8f7ab6" d="M 282.5,503.5 C 282.833,503.5 283.167,503.5 283.5,503.5C 283.5,510.833 283.5,518.167 283.5,525.5C 283.5,561.5 283.5,597.5 283.5,633.5C 283.573,635.027 282.906,636.027 281.5,636.5C 281.5,635.833 281.5,635.167 281.5,634.5C 282.499,591.003 282.832,547.337 282.5,503.5 Z"/></g>
</svg>
