<?xml version="1.0" encoding="UTF-8" standalone="no"?>
<!-- Created with Inkscape (http://www.inkscape.org/) -->
<svg
   xmlns:svg="http://www.w3.org/2000/svg"
   xmlns="http://www.w3.org/2000/svg"
   xmlns:xlink="http://www.w3.org/1999/xlink"
   version="1.0"
   width="400"
   height="360"
   id="svg2">
  <defs
     id="defs5">
    <linearGradient
       id="linearGradient2889">
      <stop
         style="stop-color:#a0a3e1;stop-opacity:1"
         offset="0"
         id="stop2891" />
      <stop
         style="stop-color:#dedcfa;stop-opacity:1"
         offset="1"
         id="stop2893" />
    </linearGradient>
    <linearGradient
       id="linearGradient2812">
      <stop
         style="stop-color:black;stop-opacity:1"
         offset="0"
         id="stop2814" />
      <stop
         style="stop-color:white;stop-opacity:0"
         offset="1"
         id="stop2816" />
    </linearGradient>
    <mask
       id="mask2799">
      <path
         d="M 168.99397,144.76334 C 168.99397,144.76334 214.49314,156.63269 246.14473,148.71979 C 277.79633,140.80689 309.44793,103.22062 309.44793,103.22062 C 309.44793,103.22062 344.06686,191.25162 348.02331,221.91411 C 351.97976,252.57659 350.00153,289.17375 327.25195,311.92334 C 304.50236,334.67292 255.67246,325.40751 232.29716,302.03221 C 218.4143,288.14936 204.60201,261.4786 192.73266,233.78346 C 180.86331,206.08831 168.00485,143.77423 168.99397,144.76334 z "
         style="fill:#e8e7fe;fill-opacity:1;fill-rule:evenodd;stroke:black;stroke-width:3.125;stroke-linecap:butt;stroke-linejoin:round;stroke-miterlimit:4;stroke-dasharray:none;stroke-opacity:1"
         id="use2796" />
    </mask>
    <mask
       id="mask2858">
      <path
         d="M 100,24 C 100,24 88.5,66.5 134,76 C 179.5,85.5 217,67 217,67 C 217,67 211,163.46447 196,192.46447 C 181,221.46447 141.5,254 118,254 C 94.5,254 76,238.5 70,223.5 C 64,208.5 60.5,128 71,102 C 78.202941,84.164147 73,78.5 82,49.5 C 87.643273,31.316121 100.5,23 100,24 z "
         style="fill:#e8e7fe;fill-opacity:1;fill-rule:evenodd;stroke:black;stroke-width:3.125;stroke-linecap:butt;stroke-linejoin:miter;stroke-miterlimit:4;stroke-dasharray:none;stroke-opacity:1"
         id="use2848" />
    </mask>
    <linearGradient
       x1="92.604424"
       y1="304.50995"
       x2="263.82959"
       y2="26.290426"
       id="linearGradient2895"
       xlink:href="#linearGradient2889"
       gradientUnits="userSpaceOnUse" />
  </defs>
  <path
     d="M 374 169 A 190 152 0 1 1  -6,169 A 190 152 0 1 1  374 169 z"
     transform="matrix(0.851641,-0.524127,0.524127,0.851641,-45.27941,132.512)"
     style="opacity:1;fill:url(#linearGradient2895);fill-opacity:1;stroke:none;stroke-width:3.125;stroke-linecap:butt;stroke-linejoin:round;stroke-miterlimit:4;stroke-dasharray:none;stroke-dashoffset:0;stroke-opacity:1"
     id="path2869" />
  <path
     d="M 128.5,144.5 C 95.5,178.5 63,154.5 127,115 C 191,75.5 263.07595,54.581773 135.5,173 C 10.12132,289.37868 82.243877,293.87887 147.23045,217.94113 C 154.45406,209.50023 186.10493,185.29366 212.21661,157.72996 C 259.29653,108.03202 266.75487,106.42181 269.3125,108.75 C 276.53921,115.32843 256.21447,139.45711 223.96447,169.20711 C 159.46447,228.70711 151.5,340 283,185.5 C 414.5,31 316.5,119.25 288.5,137 C 358,45.25 398.59094,68.27083 293,194.5 C 183,326 134.02817,271.08947 192,187.5 C 29.75,367.375 22.141967,241.23317 123,163 C 218.51317,88.912713 203.5,81.5 139.5,120.5 C 60.197217,168.82513 129,144 128.5,144.5 z "
     style="fill:black;fill-opacity:1;fill-rule:evenodd;stroke:none;stroke-width:1px;stroke-linecap:butt;stroke-linejoin:miter;stroke-opacity:1"
     id="path2027" />
  <path
     d="M 133.67158,150.67158 C 100.67158,184.67158 68.171573,160.67158 132.17158,121.17158 C 196.17158,81.671573 268.24753,60.753346 140.67158,179.17158 C 15.292893,295.55026 87.41545,300.05045 152.40203,224.11271 C 159.62564,215.67181 191.27651,191.46524 217.38819,163.90154 C 264.46811,114.2036 271.92645,112.59339 274.48408,114.92158 C 281.71079,121.50001 261.38605,145.62869 229.13605,175.37869 C 164.63605,234.87869 156.67158,346.17158 288.17158,191.67158 C 419.67158,37.171573 321.67158,125.42158 293.67158,143.17158 C 363.17158,51.421573 403.76252,74.442403 298.17158,200.67158 C 188.17158,332.17158 139.19975,277.26105 197.17158,193.67158 C 34.921573,373.54658 27.31354,247.40475 128.17158,169.17158 C 223.68475,95.084283 208.67158,87.671573 144.67158,126.67158 C 65.36879,174.99671 134.17158,150.17158 133.67158,150.67158 z "
     style="opacity:0.2;fill:black;fill-opacity:1;fill-rule:evenodd;stroke:black;stroke-width:15;stroke-linecap:butt;stroke-linejoin:round;stroke-miterlimit:4;stroke-dasharray:none;stroke-opacity:1"
     id="use2914" />
</svg>
